<svg xmlns="http://www.w3.org/2000/svg" xmlns:xlink="http://www.w3.org/1999/xlink" contentStyleType="text/css" data-diagram-type="ACTIVITY" height="862px" preserveAspectRatio="none" style="width:243px;height:862px;background:#FFFFFF;" version="1.1" viewBox="0 0 243 862" width="243px" zoomAndPan="magnify"><defs/><g><ellipse cx="118.7412" cy="20" fill="#222222" rx="10" ry="10" style="stroke:#222222;stroke-width:1;"/><rect fill="none" height="305.4509" style="stroke:#000000;stroke-width:1.5;" width="215.4492" x="17.0166" y="40"/><path d="M142.7354,40 L142.7354,50.0146 L132.7354,60.0146 L17.0166,60.0146" fill="none" style="stroke:#000000;stroke-width:1.5;"/><text fill="#000000" font-family="sans-serif" font-size="14" lengthAdjust="spacing" textLength="115.7188" x="20.0166" y="55.0752">Download ASDM</text><rect fill="#F1F1F1" height="34.584" rx="12.5" ry="12.5" style="stroke:#181818;stroke-width:0.5;" width="174.1719" x="31.6553" y="77.0146"/><text fill="#000000" font-family="sans-serif" font-size="12" lengthAdjust="spacing" textLength="154.1719" x="41.6553" y="99.0791">filename = download(url)</text><rect fill="#F1F1F1" height="34.584" rx="12.5" ry="12.5" style="stroke:#181818;stroke-width:0.5;" width="102.1953" x="67.6436" y="180.283"/><text fill="#000000" font-family="sans-serif" font-size="12" lengthAdjust="spacing" textLength="82.1953" x="77.6436" y="202.3474">Report failure</text><rect fill="#F1F1F1" height="34.584" rx="12.5" ry="12.5" style="stroke:#181818;stroke-width:0.5;" width="163.4492" x="37.0166" y="234.8669"/><text fill="#000000" font-family="sans-serif" font-size="12" lengthAdjust="spacing" textLength="143.4492" x="47.0166" y="256.9314">Remove files if required</text><ellipse cx="118.7412" cy="300.4509" fill="none" rx="11" ry="11" style="stroke:#222222;stroke-width:1;"/><ellipse cx="118.7412" cy="300.4509" fill="#222222" rx="6" ry="6" style="stroke:#222222;stroke-width:1;"/><polygon fill="#F1F1F1" points="80.8911,131.5986,156.5913,131.5986,168.5913,143.5986,156.5913,155.5986,80.8911,155.5986,68.8911,143.5986,80.8911,131.5986" style="stroke:#181818;stroke-width:0.5;"/><text fill="#000000" font-family="sans-serif" font-size="11" lengthAdjust="spacing" textLength="13.6372" x="122.7412" y="166.6577">no</text><text fill="#000000" font-family="sans-serif" font-size="11" lengthAdjust="spacing" textLength="75.7002" x="80.8911" y="147.9734">download ok?</text><text fill="#000000" font-family="sans-serif" font-size="11" lengthAdjust="spacing" textLength="18.7935" x="168.5913" y="141.2891">yes</text><rect fill="none" height="305.4509" style="stroke:#000000;stroke-width:1.5;" width="215.4492" x="17.0166" y="355.4509"/><path d="M126.8008,355.4509 L126.8008,365.4656 L116.8008,375.4656 L17.0166,375.4656" fill="none" style="stroke:#000000;stroke-width:1.5;"/><text fill="#000000" font-family="sans-serif" font-size="14" lengthAdjust="spacing" textLength="99.7842" x="20.0166" y="370.5261">Process ASDM</text><rect fill="#F1F1F1" height="34.584" rx="12.5" ry="12.5" style="stroke:#181818;stroke-width:0.5;" width="135.8867" x="50.7979" y="392.4656"/><text fill="#000000" font-family="sans-serif" font-size="12" lengthAdjust="spacing" textLength="115.8867" x="60.7979" y="414.53">_process(filename)</text><rect fill="#F1F1F1" height="34.584" rx="12.5" ry="12.5" style="stroke:#181818;stroke-width:0.5;" width="102.1953" x="67.6436" y="495.7339"/><text fill="#000000" font-family="sans-serif" font-size="12" lengthAdjust="spacing" textLength="82.1953" x="77.6436" y="517.7983">Report failure</text><rect fill="#F1F1F1" height="34.584" rx="12.5" ry="12.5" style="stroke:#181818;stroke-width:0.5;" width="163.4492" x="37.0166" y="550.3179"/><text fill="#000000" font-family="sans-serif" font-size="12" lengthAdjust="spacing" textLength="143.4492" x="47.0166" y="572.3823">Remove files if required</text><ellipse cx="118.7412" cy="615.9019" fill="none" rx="11" ry="11" style="stroke:#222222;stroke-width:1;"/><ellipse cx="118.7412" cy="615.9019" fill="#222222" rx="6" ry="6" style="stroke:#222222;stroke-width:1;"/><polygon fill="#F1F1F1" points="86.23,447.0496,151.2524,447.0496,163.2524,459.0496,151.2524,471.0496,86.23,471.0496,74.23,459.0496,86.23,447.0496" style="stroke:#181818;stroke-width:0.5;"/><text fill="#000000" font-family="sans-serif" font-size="11" lengthAdjust="spacing" textLength="13.6372" x="122.7412" y="482.1086">no</text><text fill="#000000" font-family="sans-serif" font-size="11" lengthAdjust="spacing" textLength="65.0225" x="86.23" y="463.4243">process ok?</text><text fill="#000000" font-family="sans-serif" font-size="11" lengthAdjust="spacing" textLength="18.7935" x="163.2524" y="456.74">yes</text><rect fill="none" height="138.1826" style="stroke:#000000;stroke-width:1.5;" width="215.4824" x="11" y="670.9019"/><path d="M67.7852,670.9019 L67.7852,680.9165 L57.7852,690.9165 L11,690.9165" fill="none" style="stroke:#000000;stroke-width:1.5;"/><text fill="#000000" font-family="sans-serif" font-size="14" lengthAdjust="spacing" textLength="46.7852" x="14" y="685.9771">Report</text><rect fill="#F1F1F1" height="34.584" rx="12.5" ry="12.5" style="stroke:#181818;stroke-width:0.5;" width="110.3223" x="63.5801" y="707.9165"/><text fill="#000000" font-family="sans-serif" font-size="12" lengthAdjust="spacing" textLength="90.3223" x="73.5801" y="729.981">Report success</text><rect fill="#F1F1F1" height="34.584" rx="12.5" ry="12.5" style="stroke:#181818;stroke-width:0.5;" width="195.4824" x="21" y="762.5005"/><text fill="#000000" font-family="sans-serif" font-size="12" lengthAdjust="spacing" textLength="175.4824" x="31" y="784.5649">Write to successful ASDM list</text><ellipse cx="118.7412" cy="840.0845" fill="none" rx="11" ry="11" style="stroke:#222222;stroke-width:1;"/><ellipse cx="118.7412" cy="840.0845" fill="#222222" rx="6" ry="6" style="stroke:#222222;stroke-width:1;"/><line style="stroke:#181818;stroke-width:1;" x1="118.7412" x2="118.7412" y1="214.8669" y2="234.8669"/><polygon fill="#181818" points="114.7412,224.8669,118.7412,234.8669,122.7412,224.8669,118.7412,228.8669" style="stroke:#181818;stroke-width:1;"/><line style="stroke:#181818;stroke-width:1;" x1="118.7412" x2="118.7412" y1="269.4509" y2="289.4509"/><polygon fill="#181818" points="114.7412,279.4509,118.7412,289.4509,122.7412,279.4509,118.7412,283.4509" style="stroke:#181818;stroke-width:1;"/><line style="stroke:#181818;stroke-width:1;" x1="118.7412" x2="118.7412" y1="155.5986" y2="180.283"/><polygon fill="#181818" points="114.7412,170.283,118.7412,180.283,122.7412,170.283,118.7412,174.283" style="stroke:#181818;stroke-width:1;"/><line style="stroke:#181818;stroke-width:1;" x1="168.5913" x2="210.4658" y1="143.5986" y2="143.5986"/><polygon fill="#181818" points="206.4658,232.8669,210.4658,242.8669,214.4658,232.8669,210.4658,236.8669" style="stroke:#181818;stroke-width:1;"/><line style="stroke:#181818;stroke-width:1;" x1="210.4658" x2="210.4658" y1="143.5986" y2="333.4509"/><line style="stroke:#181818;stroke-width:1;" x1="210.4658" x2="118.7412" y1="333.4509" y2="333.4509"/><line style="stroke:#181818;stroke-width:1;" x1="118.7412" x2="118.7412" y1="333.4509" y2="392.4656"/><polygon fill="#181818" points="114.7412,382.4656,118.7412,392.4656,122.7412,382.4656,118.7412,386.4656" style="stroke:#181818;stroke-width:1;"/><line style="stroke:#181818;stroke-width:1;" x1="118.7412" x2="118.7412" y1="111.5986" y2="131.5986"/><polygon fill="#181818" points="114.7412,121.5986,118.7412,131.5986,122.7412,121.5986,118.7412,125.5986" style="stroke:#181818;stroke-width:1;"/><line style="stroke:#181818;stroke-width:1;" x1="118.7412" x2="118.7412" y1="30" y2="77.0146"/><polygon fill="#181818" points="114.7412,67.0146,118.7412,77.0146,122.7412,67.0146,118.7412,71.0146" style="stroke:#181818;stroke-width:1;"/><line style="stroke:#181818;stroke-width:1;" x1="118.7412" x2="118.7412" y1="530.3179" y2="550.3179"/><polygon fill="#181818" points="114.7412,540.3179,118.7412,550.3179,122.7412,540.3179,118.7412,544.3179" style="stroke:#181818;stroke-width:1;"/><line style="stroke:#181818;stroke-width:1;" x1="118.7412" x2="118.7412" y1="584.9019" y2="604.9019"/><polygon fill="#181818" points="114.7412,594.9019,118.7412,604.9019,122.7412,594.9019,118.7412,598.9019" style="stroke:#181818;stroke-width:1;"/><line style="stroke:#181818;stroke-width:1;" x1="118.7412" x2="118.7412" y1="471.0496" y2="495.7339"/><polygon fill="#181818" points="114.7412,485.7339,118.7412,495.7339,122.7412,485.7339,118.7412,489.7339" style="stroke:#181818;stroke-width:1;"/><line style="stroke:#181818;stroke-width:1;" x1="163.2524" x2="210.4658" y1="459.0496" y2="459.0496"/><polygon fill="#181818" points="206.4658,548.3179,210.4658,558.3179,214.4658,548.3179,210.4658,552.3179" style="stroke:#181818;stroke-width:1;"/><line style="stroke:#181818;stroke-width:1;" x1="210.4658" x2="210.4658" y1="459.0496" y2="648.9019"/><line style="stroke:#181818;stroke-width:1;" x1="210.4658" x2="118.7412" y1="648.9019" y2="648.9019"/><line style="stroke:#181818;stroke-width:1;" x1="118.7412" x2="118.7412" y1="648.9019" y2="707.9165"/><polygon fill="#181818" points="114.7412,697.9165,118.7412,707.9165,122.7412,697.9165,118.7412,701.9165" style="stroke:#181818;stroke-width:1;"/><line style="stroke:#181818;stroke-width:1;" x1="118.7412" x2="118.7412" y1="427.0496" y2="447.0496"/><polygon fill="#181818" points="114.7412,437.0496,118.7412,447.0496,122.7412,437.0496,118.7412,441.0496" style="stroke:#181818;stroke-width:1;"/><line style="stroke:#181818;stroke-width:1;" x1="118.7412" x2="118.7412" y1="742.5005" y2="762.5005"/><polygon fill="#181818" points="114.7412,752.5005,118.7412,762.5005,122.7412,752.5005,118.7412,756.5005" style="stroke:#181818;stroke-width:1;"/><line style="stroke:#181818;stroke-width:1;" x1="118.7412" x2="118.7412" y1="797.0845" y2="829.0845"/><polygon fill="#181818" points="114.7412,819.0845,118.7412,829.0845,122.7412,819.0845,118.7412,823.0845" style="stroke:#181818;stroke-width:1;"/><!--SRC=[nOz12i8m44NtFSNWAhs2HKHmAuWkN4ff9pWOCpKpKKIykstJQZs1MGpap-VzFw9bqAnf1ocnXzcQxzvnMSDglzxCu9b1- -QM7FhoWh20UZ2O65nUz6koO4OP-BpCGK_emJnGyjw0JX2Cv_JhYJjiE2ZOabmCM4mN5xuXT8dIaGDU8mMilnPHRXBMrsIprxJ-Dd258h_jZqrIpNZ6fFUm-dFjXFqK7b8aLbstX9WV0Yc2yYZRwFepmP5eqVAoBk4D]--></g></svg>