<?plantuml 1.2026.1?><svg xmlns="http://www.w3.org/2000/svg" xmlns:xlink="http://www.w3.org/1999/xlink" contentStyleType="text/css" data-diagram-type="ACTIVITY" height="896px" preserveAspectRatio="none" style="width:640px;height:896px;background:#FFFFFF;" version="1.1" viewBox="0 0 640 896" width="640px" zoomAndPan="magnify"><defs/><g><ellipse cx="317.3234" cy="20" fill="#222222" rx="10" ry="10" style="stroke:#222222;stroke-width:1;"/><rect fill="#FFFFE0" height="143.7561" style="stroke:#000000;stroke-width:1.5;" width="592.7358" x="20.9555" y="40"/><path d="M108.9912,40 L108.9912,52.0679 L98.9912,62.0679 L20.9555,62.0679" fill="none" style="stroke:#000000;stroke-width:1.5;"/><text fill="#000000" font-family="sans-serif" font-size="14" lengthAdjust="spacing" textLength="78.0357" x="23.9555" y="55.9659">Preparation</text><rect fill="#F1F1F1" height="36.3441" rx="12.5" ry="12.5" style="stroke:#181818;stroke-width:0.5;" width="494.3393" x="70.1538" y="79.0679"/><text fill="#000000" font-family="sans-serif" font-size="12" lengthAdjust="spacing" textLength="474.3393" x="80.1538" y="101.896">Search project directories in the working directory, e.g., uid___A002_X123456_X7890`</text><rect fill="#F1F1F1" height="36.3441" rx="12.5" ry="12.5" style="stroke:#181818;stroke-width:0.5;" width="572.7358" x="30.9555" y="135.412"/><text fill="#000000" font-family="sans-serif" font-size="12" lengthAdjust="spacing" textLength="552.7358" x="40.9555" y="158.2401">Create directories for target images, e.g., working_dir/uid___A002_X123456_X7890/J1234+5678/fits</text><rect fill="#FFFFE0" height="651.7717" style="stroke:#000000;stroke-width:1.5;" width="618.6469" x="11" y="193.7561"/><path d="M99.3997,193.7561 L99.3997,205.8241 L89.3997,215.8241 L11,215.8241" fill="none" style="stroke:#000000;stroke-width:1.5;"/><text fill="#000000" font-family="sans-serif" font-size="14" lengthAdjust="spacing" textLength="78.3997" x="14" y="209.7221">Sort images</text><rect fill="#FFE4B5" height="171.9898" style="stroke:#000000;stroke-width:1.5;" width="524.6469" x="55" y="337.3419"/><path d="M255.1613,337.3419 L255.1613,349.4098 L245.1613,359.4098 L55,359.4098" fill="none" style="stroke:#000000;stroke-width:1.5;"/><text fill="#000000" font-family="sans-serif" font-size="14" lengthAdjust="spacing" textLength="190.1613" x="58" y="353.3078">Select target image directory</text><polygon fill="#F1F1F1" points="127.8651,379.4098,224.1804,379.4098,236.1804,391.4098,224.1804,403.4098,127.8651,403.4098,115.8651,391.4098,127.8651,379.4098" style="stroke:#181818;stroke-width:0.5;"/><text fill="#000000" font-family="sans-serif" font-size="11" lengthAdjust="spacing" textLength="17.0829" x="180.0227" y="415.1687">yes</text><text fill="#000000" font-family="sans-serif" font-size="11" lengthAdjust="spacing" textLength="96.3153" x="127.8651" y="395.6778">`selfcal_fits` exists?</text><rect fill="#F1F1F1" height="36.3441" rx="12.5" ry="12.5" style="stroke:#181818;stroke-width:0.5;" width="222.0455" x="65" y="436.6687"/><text fill="#000000" font-family="sans-serif" font-size="12" lengthAdjust="spacing" textLength="202.0455" x="75" y="459.4968">Images in `selfcal_fits` will be sorted</text><polygon fill="#F1F1F1" points="369.517,379.4098,457.1754,379.4098,469.1754,391.4098,457.1754,403.4098,369.517,403.4098,357.517,391.4098,369.517,379.4098" style="stroke:#181818;stroke-width:0.5;"/><text fill="#000000" font-family="sans-serif" font-size="11" lengthAdjust="spacing" textLength="17.0829" x="417.3462" y="415.1687">yes</text><text fill="#000000" font-family="sans-serif" font-size="11" lengthAdjust="spacing" textLength="87.6584" x="369.517" y="395.6778">`dirty_fits` exists?</text><text fill="#000000" font-family="sans-serif" font-size="11" lengthAdjust="spacing" textLength="13.4529" x="469.1754" y="388.1868">no</text><rect fill="#F1F1F1" height="36.3441" rx="12.5" ry="12.5" style="stroke:#181818;stroke-width:0.5;" width="212.6014" x="307.0455" y="436.6687"/><text fill="#000000" font-family="sans-serif" font-size="12" lengthAdjust="spacing" textLength="192.6014" x="317.0455" y="459.4968">Images in `dirty_fits` will be sorted</text><rect fill="#FFE4B5" height="231.0241" style="stroke:#000000;stroke-width:1.5;" width="289.0446" x="171.3011" y="536.5038"/><path d="M268.8848,536.5038 L268.8848,548.5717 L258.8848,558.5717 L171.3011,558.5717" fill="none" style="stroke:#000000;stroke-width:1.5;"/><text fill="#000000" font-family="sans-serif" font-size="14" lengthAdjust="spacing" textLength="87.5837" x="174.3011" y="552.4697">Move images</text><rect fill="#F1F1F1" height="36.3441" rx="12.5" ry="12.5" style="stroke:#181818;stroke-width:0.5;" width="215.0374" x="209.8048" y="632.8306"/><text fill="#000000" font-family="sans-serif" font-size="12" lengthAdjust="spacing" textLength="195.0374" x="219.8048" y="655.6587">Extract target name from filename</text><rect fill="#F1F1F1" height="36.3441" rx="12.5" ry="12.5" style="stroke:#181818;stroke-width:0.5;" width="195.4053" x="219.6208" y="697.1838"/><text fill="#000000" font-family="sans-serif" font-size="12" lengthAdjust="spacing" textLength="175.4053" x="229.6208" y="720.0119">Move image to target directory</text><polygon fill="#F1F1F1" points="217.3011,575.5717,417.3457,575.5717,429.3457,587.5717,417.3457,599.5717,217.3011,599.5717,205.3011,587.5717,217.3011,575.5717" style="stroke:#181818;stroke-width:0.5;"/><text fill="#000000" font-family="sans-serif" font-size="11" lengthAdjust="spacing" textLength="17.0829" x="321.3234" y="611.3306">yes</text><text fill="#000000" font-family="sans-serif" font-size="11" lengthAdjust="spacing" textLength="200.0446" x="217.3011" y="591.8397">more images in the selected directory?</text><polygon fill="#F1F1F1" points="235.3795,290.083,399.2674,290.083,411.2674,302.083,399.2674,314.083,235.3795,314.083,223.3795,302.083,235.3795,290.083" style="stroke:#181818;stroke-width:0.5;"/><text fill="#000000" font-family="sans-serif" font-size="11" lengthAdjust="spacing" textLength="17.0829" x="321.3234" y="325.8419">yes</text><text fill="#000000" font-family="sans-serif" font-size="11" lengthAdjust="spacing" textLength="163.8878" x="235.3795" y="306.3509">`selfcal_fits` or `dirty_fits` exists?</text><text fill="#000000" font-family="sans-serif" font-size="11" lengthAdjust="spacing" textLength="13.4529" x="411.2674" y="298.86">no</text><polygon fill="#F1F1F1" points="317.3234,787.5279,329.3234,799.5279,317.3234,811.5279,305.3234,799.5279,317.3234,787.5279" style="stroke:#181818;stroke-width:0.5;"/><polygon fill="#F1F1F1" points="252.5504,232.8241,382.0965,232.8241,394.0965,244.8241,382.0965,256.8241,252.5504,256.8241,240.5504,244.8241,252.5504,232.8241" style="stroke:#181818;stroke-width:0.5;"/><text fill="#000000" font-family="sans-serif" font-size="11" lengthAdjust="spacing" textLength="17.0829" x="321.3234" y="268.583">yes</text><text fill="#000000" font-family="sans-serif" font-size="11" lengthAdjust="spacing" textLength="129.5461" x="252.5504" y="249.092">more project directories?</text><ellipse cx="317.3234" cy="875.5279" fill="none" rx="10" ry="10" style="stroke:#222222;stroke-width:1.5;"/><line style="stroke:#222222;stroke-width:2.5;" x1="311.1363" x2="323.5106" y1="869.3407" y2="881.7151"/><line style="stroke:#222222;stroke-width:2.5;" x1="323.5106" x2="311.1363" y1="869.3407" y2="881.7151"/><line style="stroke:#181818;stroke-width:1;" x1="317.3234" x2="317.3234" y1="115.412" y2="135.412"/><polygon fill="#181818" points="313.3234,125.412,317.3234,135.412,321.3234,125.412,317.3234,129.412" style="stroke:#181818;stroke-width:1;"/><line style="stroke:#181818;stroke-width:1;" x1="317.3234" x2="317.3234" y1="30" y2="79.0679"/><polygon fill="#181818" points="313.3234,69.0679,317.3234,79.0679,321.3234,69.0679,317.3234,73.0679" style="stroke:#181818;stroke-width:1;"/><line style="stroke:#181818;stroke-width:1;" x1="176.0227" x2="176.0227" y1="403.4098" y2="436.6687"/><polygon fill="#181818" points="172.0227,426.6687,176.0227,436.6687,180.0227,426.6687,176.0227,430.6687" style="stroke:#181818;stroke-width:1;"/><line style="stroke:#181818;stroke-width:1;" x1="176.0227" x2="176.0227" y1="473.0128" y2="493.0128"/><polygon fill="#181818" points="172.0227,483.0128,176.0227,493.0128,180.0227,483.0128,176.0227,487.0128" style="stroke:#181818;stroke-width:1;"/><line style="stroke:#181818;stroke-width:1;" x1="413.3462" x2="413.3462" y1="403.4098" y2="436.6687"/><polygon fill="#181818" points="409.3462,426.6687,413.3462,436.6687,417.3462,426.6687,413.3462,430.6687" style="stroke:#181818;stroke-width:1;"/><line style="stroke:#181818;stroke-width:1;" x1="413.3462" x2="413.3462" y1="473.0128" y2="493.0128"/><polygon fill="#181818" points="409.3462,483.0128,413.3462,493.0128,417.3462,483.0128,413.3462,487.0128" style="stroke:#181818;stroke-width:1;"/><line style="stroke:#181818;stroke-width:1;" x1="236.1804" x2="357.517" y1="391.4098" y2="391.4098"/><polygon fill="#181818" points="347.517,387.4098,357.517,391.4098,347.517,395.4098,351.517,391.4098" style="stroke:#181818;stroke-width:1;"/><line style="stroke:#181818;stroke-width:1;" x1="317.3234" x2="317.3234" y1="314.083" y2="364.4098"/><line style="stroke:#181818;stroke-width:1;" x1="317.3234" x2="176.0227" y1="364.4098" y2="364.4098"/><line style="stroke:#181818;stroke-width:1;" x1="176.0227" x2="176.0227" y1="364.4098" y2="379.4098"/><polygon fill="#181818" points="172.0227,369.4098,176.0227,379.4098,180.0227,369.4098,176.0227,373.4098" style="stroke:#181818;stroke-width:1;"/><line style="stroke:#181818;stroke-width:1;" x1="469.1754" x2="554.6469" y1="391.4098" y2="391.4098"/><line style="stroke:#181818;stroke-width:1;" x1="554.6469" x2="554.6469" y1="391.4098" y2="493.0128"/><polygon fill="#181818" points="550.6469,483.0128,554.6469,493.0128,558.6469,483.0128,554.6469,487.0128" style="stroke:#181818;stroke-width:1;"/><line style="stroke:#181818;stroke-width:1;" x1="176.0227" x2="554.6469" y1="493.0128" y2="493.0128"/><line style="stroke:#181818;stroke-width:1;" x1="317.3234" x2="317.3234" y1="669.1747" y2="697.1838"/><polygon fill="#181818" points="313.3234,687.1838,317.3234,697.1838,321.3234,687.1838,317.3234,691.1838" style="stroke:#181818;stroke-width:1;"/><line style="stroke:#181818;stroke-width:1;" x1="317.3234" x2="317.3234" y1="599.5717" y2="632.8306"/><polygon fill="#181818" points="313.3234,622.8306,317.3234,632.8306,321.3234,622.8306,317.3234,626.8306" style="stroke:#181818;stroke-width:1;"/><line style="stroke:#181818;stroke-width:1;" x1="317.3234" x2="317.3234" y1="733.5279" y2="743.5279"/><line style="stroke:#181818;stroke-width:1;" x1="317.3234" x2="441.3457" y1="743.5279" y2="743.5279"/><polygon fill="#181818" points="437.3457,677.1838,441.3457,667.1838,445.3457,677.1838,441.3457,673.1838" style="stroke:#181818;stroke-width:1;"/><line style="stroke:#181818;stroke-width:1;" x1="441.3457" x2="441.3457" y1="587.5717" y2="743.5279"/><line style="stroke:#181818;stroke-width:1;" x1="441.3457" x2="429.3457" y1="587.5717" y2="587.5717"/><polygon fill="#181818" points="439.3457,583.5717,429.3457,587.5717,439.3457,591.5717,435.3457,587.5717" style="stroke:#181818;stroke-width:1;"/><line style="stroke:#181818;stroke-width:1;" x1="205.3011" x2="193.3011" y1="587.5717" y2="587.5717"/><polygon fill="#181818" points="189.3011,663.1838,193.3011,673.1838,197.3011,663.1838,193.3011,667.1838" style="stroke:#181818;stroke-width:1;"/><line style="stroke:#181818;stroke-width:1;" x1="193.3011" x2="193.3011" y1="587.5717" y2="755.5279"/><line style="stroke:#181818;stroke-width:1;" x1="193.3011" x2="317.3234" y1="755.5279" y2="755.5279"/><line style="stroke:#181818;stroke-width:1;" x1="317.3234" x2="317.3234" y1="755.5279" y2="787.5279"/><polygon fill="#181818" points="313.3234,777.5279,317.3234,787.5279,321.3234,777.5279,317.3234,781.5279" style="stroke:#181818;stroke-width:1;"/><line style="stroke:#181818;stroke-width:1;" x1="317.3234" x2="317.3234" y1="493.0128" y2="575.5717"/><polygon fill="#181818" points="313.3234,565.5717,317.3234,575.5717,321.3234,565.5717,317.3234,569.5717" style="stroke:#181818;stroke-width:1;"/><line style="stroke:#181818;stroke-width:1;" x1="411.2674" x2="589.6469" y1="302.083" y2="302.083"/><polygon fill="#181818" points="585.6469,516.5038,589.6469,526.5038,593.6469,516.5038,589.6469,520.5038" style="stroke:#181818;stroke-width:1;"/><line style="stroke:#181818;stroke-width:1;" x1="589.6469" x2="589.6469" y1="302.083" y2="799.5279"/><line style="stroke:#181818;stroke-width:1;" x1="589.6469" x2="329.3234" y1="799.5279" y2="799.5279"/><polygon fill="#181818" points="339.3234,795.5279,329.3234,799.5279,339.3234,803.5279,335.3234,799.5279" style="stroke:#181818;stroke-width:1;"/><line style="stroke:#181818;stroke-width:1;" x1="317.3234" x2="317.3234" y1="256.8241" y2="290.083"/><polygon fill="#181818" points="313.3234,280.083,317.3234,290.083,321.3234,280.083,317.3234,284.083" style="stroke:#181818;stroke-width:1;"/><line style="stroke:#181818;stroke-width:1;" x1="317.3234" x2="317.3234" y1="811.5279" y2="821.5279"/><line style="stroke:#181818;stroke-width:1;" x1="317.3234" x2="613.6469" y1="821.5279" y2="821.5279"/><polygon fill="#181818" points="609.6469,517.0128,613.6469,507.0128,617.6469,517.0128,613.6469,513.0128" style="stroke:#181818;stroke-width:1;"/><line style="stroke:#181818;stroke-width:1;" x1="613.6469" x2="613.6469" y1="244.8241" y2="821.5279"/><line style="stroke:#181818;stroke-width:1;" x1="613.6469" x2="394.0965" y1="244.8241" y2="244.8241"/><polygon fill="#181818" points="404.0965,240.8241,394.0965,244.8241,404.0965,248.8241,400.0965,244.8241" style="stroke:#181818;stroke-width:1;"/><line style="stroke:#181818;stroke-width:1;" x1="240.5504" x2="33" y1="244.8241" y2="244.8241"/><polygon fill="#181818" points="29,503.0128,33,513.0128,37,503.0128,33,507.0128" style="stroke:#181818;stroke-width:1;"/><line style="stroke:#181818;stroke-width:1;" x1="33" x2="33" y1="244.8241" y2="833.5279"/><line style="stroke:#181818;stroke-width:1;" x1="33" x2="317.3234" y1="833.5279" y2="833.5279"/><line style="stroke:#181818;stroke-width:1;" x1="317.3234" x2="317.3234" y1="833.5279" y2="865.5279"/><polygon fill="#181818" points="313.3234,855.5279,317.3234,865.5279,321.3234,855.5279,317.3234,859.5279" style="stroke:#181818;stroke-width:1;"/><line style="stroke:#181818;stroke-width:1;" x1="317.3234" x2="317.3234" y1="171.7561" y2="232.8241"/><polygon fill="#181818" points="313.3234,222.8241,317.3234,232.8241,321.3234,222.8241,317.3234,226.8241" style="stroke:#181818;stroke-width:1;"/><?plantuml-src bLDDJzj04BtxLupI0q55IKe97_41eQfIMn4KAKA2axFOOsTWinljBWqHuhypwoQn4zO5vc1hl9xtthoPjKuO5qLpVf8ZhQ0rCiYPy4aBlbnICNMtAALUm7C478Cn2fDEOMxqFQOECZByqeRG0YbmKuI5DW-aYitHyW2mKtGEu96o94akUht3vERRuVUZ_d5oSt9wrfl4_w1_61GEjo1pRO0r5kY0Pg90kyPQaIJySxS9j_l7Pr_xnoUdtPoSZQENUgjZRTQemLONKv88xPas66htV1_8Gdk9Th_ytGVbq9vOb7agPE8f9y0DJBZABLSvFf5rlfYjKZlbFke2KNhEUl-LgInvgDDKM7RzUGkXGSXxnEiO_2ujyTFSGLYGb727ODaupE8trIWjbiIVwJT4Mw__22cqbGwZxi7uWURCpQFQdU6oeU8NRu3JB7nkq5fefLevKe_Oyjf6KYXtFRmyVoj4PPHlVNrf6knG_yLgy_upnleAqiOVVybikHkOLTs4zd7Bu9zFpeXgdvIO8UH6po1d4f_5uRfAhRTbLRsXZKD6bBeRl0WFR0-kzBf5Ph7btLJl3QxoF4ZgW-zyn8Ul?></g></svg>