<svg xmlns="http://www.w3.org/2000/svg" xmlns:xlink="http://www.w3.org/1999/xlink" contentStyleType="text/css" data-diagram-type="ACTIVITY" height="2334px" preserveAspectRatio="none" style="width:540px;height:2334px;background:#FFFFFF;" version="1.1" viewBox="0 0 540 2334" width="540px" zoomAndPan="magnify"><defs/><g><ellipse cx="266.5587" cy="20" fill="#222222" rx="10" ry="10" style="stroke:#222222;stroke-width:1;"/><rect fill="#FFFFE0" height="143.7561" style="stroke:#000000;stroke-width:1.5;" width="393.1026" x="70.0074" y="40"/><path d="M153.0452,40 L153.0452,52.0679 L143.0452,62.0679 L70.0074,62.0679" fill="none" style="stroke:#000000;stroke-width:1.5;"/><text fill="#000000" font-family="sans-serif" font-size="14" lengthAdjust="spacing" textLength="73.0377" x="73.0074" y="55.9659">Preprocess</text><rect fill="#F1F1F1" height="36.3441" rx="12.5" ry="12.5" style="stroke:#181818;stroke-width:0.5;" width="289.2699" x="121.9238" y="79.0679"/><text fill="#000000" font-family="sans-serif" font-size="12" lengthAdjust="spacing" textLength="269.2699" x="131.9238" y="101.896">Extract name of ASDM from downloaded tarball</text><rect fill="#F1F1F1" height="36.3441" rx="12.5" ry="12.5" style="stroke:#181818;stroke-width:0.5;" width="373.1026" x="80.0074" y="135.412"/><text fill="#000000" font-family="sans-serif" font-size="12" lengthAdjust="spacing" textLength="353.1026" x="90.0074" y="158.2401">Create working directory for the ASDM. If exists, remove it first</text><rect fill="#FFFFE0" height="144.6709" style="stroke:#000000;stroke-width:1.5;" width="283.6377" x="124.7399" y="193.7561"/><path d="M223.5835,193.7561 L223.5835,205.8241 L213.5835,215.8241 L124.7399,215.8241" fill="none" style="stroke:#000000;stroke-width:1.5;"/><text fill="#000000" font-family="sans-serif" font-size="14" lengthAdjust="spacing" textLength="88.8437" x="127.7399" y="209.7221">Extract ASDM</text><rect fill="#F1F1F1" height="36.3441" rx="12.5" ry="12.5" style="stroke:#181818;stroke-width:0.5;" width="263.6377" x="134.7399" y="232.8241"/><text fill="#000000" font-family="sans-serif" font-size="12" lengthAdjust="spacing" textLength="243.6377" x="144.7399" y="255.6522">Extract ASDM tarball into working directory</text><polygon fill="#F1F1F1" points="216.9326,289.1682,316.1849,289.1682,328.1849,301.1682,316.1849,313.1682,216.9326,313.1682,204.9326,301.1682,216.9326,289.1682" style="stroke:#181818;stroke-width:0.5;"/><text fill="#000000" font-family="sans-serif" font-size="11" lengthAdjust="spacing" textLength="17.0829" x="270.5587" y="324.9271">yes</text><text fill="#000000" font-family="sans-serif" font-size="11" lengthAdjust="spacing" textLength="99.2523" x="216.9326" y="305.4361">extraction success?</text><text fill="#000000" font-family="sans-serif" font-size="11" lengthAdjust="spacing" textLength="13.4529" x="328.1849" y="297.9452">no</text><ellipse cx="363.6378" cy="301.1682" fill="none" rx="11" ry="11" style="stroke:#222222;stroke-width:1;"/><ellipse cx="363.6378" cy="301.1682" fill="#222222" rx="6" ry="6" style="stroke:#222222;stroke-width:1;"/><rect fill="#FFFFE0" height="1932.8468" style="stroke:#000000;stroke-width:1.5;" width="518.9883" x="11" y="348.4271"/><path d="M114.9397,348.4271 L114.9397,360.495 L104.9397,370.495 L11,370.495" fill="none" style="stroke:#000000;stroke-width:1.5;"/><text fill="#000000" font-family="sans-serif" font-size="14" lengthAdjust="spacing" textLength="93.9397" x="14" y="364.393">Process ASDM</text><rect fill="#F1F1F1" height="36.3441" rx="12.5" ry="12.5" style="stroke:#181818;stroke-width:0.5;" width="325.1382" x="103.9897" y="387.495"/><text fill="#000000" font-family="sans-serif" font-size="12" lengthAdjust="spacing" textLength="305.1382" x="113.9897" y="410.3231">Create calibration script with make_calibration_script()</text><polygon fill="#F1F1F1" points="206.0647,443.8391,327.0528,443.8391,339.0528,455.8391,327.0528,467.8391,206.0647,467.8391,194.0647,455.8391,206.0647,443.8391" style="stroke:#181818;stroke-width:0.5;"/><text fill="#000000" font-family="sans-serif" font-size="11" lengthAdjust="spacing" textLength="17.0829" x="270.5587" y="479.598">yes</text><text fill="#000000" font-family="sans-serif" font-size="11" lengthAdjust="spacing" textLength="120.9882" x="206.0647" y="460.1071">script creation success?</text><text fill="#000000" font-family="sans-serif" font-size="11" lengthAdjust="spacing" textLength="13.4529" x="339.0528" y="452.6161">no</text><ellipse cx="374.5057" cy="455.8391" fill="none" rx="11" ry="11" style="stroke:#222222;stroke-width:1;"/><ellipse cx="374.5057" cy="455.8391" fill="#222222" rx="6" ry="6" style="stroke:#222222;stroke-width:1;"/><rect fill="#F1F1F1" height="36.3441" rx="12.5" ry="12.5" style="stroke:#181818;stroke-width:0.5;" width="139.6648" x="196.7263" y="501.098"/><text fill="#000000" font-family="sans-serif" font-size="12" lengthAdjust="spacing" textLength="119.6648" x="206.7263" y="523.9261">Run calibration script</text><polygon fill="#F1F1F1" points="214.8646,557.4421,318.2529,557.4421,330.2529,569.4421,318.2529,581.4421,214.8646,581.4421,202.8646,569.4421,214.8646,557.4421" style="stroke:#181818;stroke-width:0.5;"/><text fill="#000000" font-family="sans-serif" font-size="11" lengthAdjust="spacing" textLength="17.0829" x="270.5587" y="593.2011">yes</text><text fill="#000000" font-family="sans-serif" font-size="11" lengthAdjust="spacing" textLength="103.3883" x="214.8646" y="573.7101">processing success?</text><text fill="#000000" font-family="sans-serif" font-size="11" lengthAdjust="spacing" textLength="13.4529" x="330.2529" y="566.2192">no</text><ellipse cx="365.7058" cy="569.4421" fill="none" rx="11" ry="11" style="stroke:#222222;stroke-width:1;"/><ellipse cx="365.7058" cy="569.4421" fill="#222222" rx="6" ry="6" style="stroke:#222222;stroke-width:1;"/><rect fill="#F1F1F1" height="36.3441" rx="12.5" ry="12.5" style="stroke:#181818;stroke-width:0.5;" width="375.8146" x="78.6514" y="614.7011"/><text fill="#000000" font-family="sans-serif" font-size="12" lengthAdjust="spacing" textLength="355.8146" x="88.6514" y="637.5291">Remove target source of project (keep calibration sources only)</text><polygon fill="#F1F1F1" points="221.9156,671.0452,311.2019,671.0452,323.2019,683.0452,311.2019,695.0452,221.9156,695.0452,209.9156,683.0452,221.9156,671.0452" style="stroke:#181818;stroke-width:0.5;"/><text fill="#000000" font-family="sans-serif" font-size="11" lengthAdjust="spacing" textLength="17.0829" x="270.5587" y="706.8041">yes</text><text fill="#000000" font-family="sans-serif" font-size="11" lengthAdjust="spacing" textLength="89.2864" x="221.9156" y="687.3131">removal success?</text><text fill="#000000" font-family="sans-serif" font-size="11" lengthAdjust="spacing" textLength="13.4529" x="323.2019" y="679.8222">no</text><ellipse cx="358.6548" cy="683.0452" fill="none" rx="11" ry="11" style="stroke:#222222;stroke-width:1;"/><ellipse cx="358.6548" cy="683.0452" fill="#222222" rx="6" ry="6" style="stroke:#222222;stroke-width:1;"/><rect fill="#FFE4B5" height="269.0581" style="stroke:#000000;stroke-width:1.5;" width="458.2136" x="27.1292" y="775.563"/><path d="M92.303,775.563 L92.303,787.6309 L82.303,797.6309 L27.1292,797.6309" fill="none" style="stroke:#000000;stroke-width:1.5;"/><text fill="#000000" font-family="sans-serif" font-size="14" lengthAdjust="spacing" textLength="55.1738" x="30.1292" y="791.5289">Imaging</text><polygon fill="#F1F1F1" points="153.991,814.6309,379.1265,814.6309,391.1265,826.6309,379.1265,838.6309,153.991,838.6309,141.991,826.6309,153.991,814.6309" style="stroke:#181818;stroke-width:0.5;"/><text fill="#000000" font-family="sans-serif" font-size="11" lengthAdjust="spacing" textLength="225.1354" x="153.991" y="830.8989">Required self-calibration later?: `do_selfcal`?</text><text fill="#000000" font-family="sans-serif" font-size="11" lengthAdjust="spacing" textLength="17.0829" x="124.9082" y="823.4079">yes</text><text fill="#000000" font-family="sans-serif" font-size="11" lengthAdjust="spacing" textLength="13.4529" x="391.1265" y="823.4079">no</text><rect fill="#F1F1F1" height="36.3441" rx="12.5" ry="12.5" style="stroke:#181818;stroke-width:0.5;" width="177.4651" x="43.2585" y="848.6309"/><text fill="#000000" font-family="sans-serif" font-size="12" lengthAdjust="spacing" textLength="157.4651" x="53.2585" y="871.459">savemodel = 'modelcolumn'</text><rect fill="#F1F1F1" height="36.3441" rx="12.5" ry="12.5" style="stroke:#181818;stroke-width:0.5;" width="128.4328" x="336.9101" y="848.6309"/><text fill="#000000" font-family="sans-serif" font-size="12" lengthAdjust="spacing" textLength="108.4328" x="346.9101" y="871.459">savemodel = 'none'</text><polygon fill="#F1F1F1" points="266.5587,890.975,278.5587,902.975,266.5587,914.975,254.5587,902.975,266.5587,890.975" style="stroke:#181818;stroke-width:0.5;"/><rect fill="#F1F1F1" height="36.3441" rx="12.5" ry="12.5" style="stroke:#181818;stroke-width:0.5;" width="79.5204" x="226.7985" y="939.018"/><text fill="#000000" font-family="sans-serif" font-size="12" lengthAdjust="spacing" textLength="59.5204" x="236.7985" y="961.8461">Run tclean</text><polygon fill="#F1F1F1" points="221.8276,995.3622,311.2899,995.3622,323.2899,1007.3622,311.2899,1019.3622,221.8276,1019.3622,209.8276,1007.3622,221.8276,995.3622" style="stroke:#181818;stroke-width:0.5;"/><text fill="#000000" font-family="sans-serif" font-size="11" lengthAdjust="spacing" textLength="17.0829" x="270.5587" y="1031.1211">yes</text><text fill="#000000" font-family="sans-serif" font-size="11" lengthAdjust="spacing" textLength="89.4624" x="221.8276" y="1011.6301">imaging success?</text><text fill="#000000" font-family="sans-serif" font-size="11" lengthAdjust="spacing" textLength="13.4529" x="323.2899" y="1004.1392">no</text><ellipse cx="358.7428" cy="1007.3622" fill="none" rx="11" ry="11" style="stroke:#222222;stroke-width:1;"/><ellipse cx="358.7428" cy="1007.3622" fill="#222222" rx="6" ry="6" style="stroke:#222222;stroke-width:1;"/><polygon fill="#F1F1F1" points="184.8678,728.3041,348.2497,728.3041,360.2497,740.3041,348.2497,752.3041,184.8678,752.3041,172.8678,740.3041,184.8678,728.3041" style="stroke:#181818;stroke-width:0.5;"/><text fill="#000000" font-family="sans-serif" font-size="11" lengthAdjust="spacing" textLength="17.0829" x="270.5587" y="764.063">yes</text><text fill="#000000" font-family="sans-serif" font-size="11" lengthAdjust="spacing" textLength="163.3818" x="184.8678" y="744.5721">Required imaging?: `do_tlcean`?</text><text fill="#000000" font-family="sans-serif" font-size="11" lengthAdjust="spacing" textLength="13.4529" x="360.2497" y="737.0811">no</text><polygon fill="#F1F1F1" points="266.5587,1064.6211,278.5587,1076.6211,266.5587,1088.6211,254.5587,1076.6211,266.5587,1064.6211" style="stroke:#181818;stroke-width:0.5;"/><rect fill="#FFE4B5" height="152.386" style="stroke:#000000;stroke-width:1.5;" width="290.7029" x="149.0283" y="1157.482"/><path d="M429.7312,1157.482 L429.7312,1169.5499 L419.7312,1179.5499 L149.0283,1179.5499" fill="none" style="stroke:#000000;stroke-width:1.5;"/><text fill="#000000" font-family="sans-serif" font-size="14" lengthAdjust="spacing" textLength="270.7029" x="152.0283" y="1173.4479">Self-calibration and generate 2nd images</text><rect fill="#F1F1F1" height="36.3441" rx="12.5" ry="12.5" style="stroke:#181818;stroke-width:0.5;" width="153.129" x="189.9943" y="1196.5499"/><text fill="#000000" font-family="sans-serif" font-size="12" lengthAdjust="spacing" textLength="133.129" x="199.9943" y="1219.378">Perform self-calibration</text><polygon fill="#F1F1F1" points="204.8052,1260.6091,328.3123,1260.6091,340.3123,1272.6091,328.3123,1284.6091,204.8052,1284.6091,192.8052,1272.6091,204.8052,1260.6091" style="stroke:#181818;stroke-width:0.5;"/><text fill="#000000" font-family="sans-serif" font-size="11" lengthAdjust="spacing" textLength="17.0829" x="270.5587" y="1296.368">yes</text><text fill="#000000" font-family="sans-serif" font-size="11" lengthAdjust="spacing" textLength="123.5072" x="204.8052" y="1276.877">self-calibration success?</text><text fill="#000000" font-family="sans-serif" font-size="11" lengthAdjust="spacing" textLength="13.4529" x="340.3123" y="1269.3861">no</text><ellipse cx="375.7652" cy="1272.6091" fill="none" rx="11" ry="11" style="stroke:#222222;stroke-width:1;"/><ellipse cx="375.7652" cy="1272.6091" fill="#222222" rx="6" ry="6" style="stroke:#222222;stroke-width:1;"/><polygon fill="#F1F1F1" points="167.2844,1108.6211,365.833,1108.6211,377.833,1120.6211,365.833,1132.6211,167.2844,1132.6211,155.2844,1120.6211,167.2844,1108.6211" style="stroke:#181818;stroke-width:0.5;"/><text fill="#000000" font-family="sans-serif" font-size="11" lengthAdjust="spacing" textLength="17.0829" x="270.5587" y="1144.38">yes</text><text fill="#000000" font-family="sans-serif" font-size="11" lengthAdjust="spacing" textLength="198.5486" x="167.2844" y="1124.889">Required self-calibration?: `do_selfcal`?</text><text fill="#000000" font-family="sans-serif" font-size="11" lengthAdjust="spacing" textLength="13.4529" x="377.833" y="1117.3981">no</text><polygon fill="#F1F1F1" points="266.5587,1329.868,278.5587,1341.868,266.5587,1353.868,254.5587,1341.868,266.5587,1329.868" style="stroke:#181818;stroke-width:0.5;"/><rect fill="#FFE4B5" height="294.506" style="stroke:#000000;stroke-width:1.5;" width="433.6404" x="60.2386" y="1363.868"/><path d="M213.038,1363.868 L213.038,1375.9359 L203.038,1385.9359 L60.2386,1385.9359" fill="none" style="stroke:#000000;stroke-width:1.5;"/><text fill="#000000" font-family="sans-serif" font-size="14" lengthAdjust="spacing" textLength="142.7995" x="63.2386" y="1379.8339">Export images to FITS</text><rect fill="#F1F1F1" height="36.3441" rx="12.5" ry="12.5" style="stroke:#181818;stroke-width:0.5;" width="184.1492" x="174.4842" y="1402.9359"/><text fill="#000000" font-family="sans-serif" font-size="12" lengthAdjust="spacing" textLength="164.1492" x="184.4842" y="1425.764">Export images to FITS format</text><rect fill="#F1F1F1" height="36.3441" rx="12.5" ry="12.5" style="stroke:#181818;stroke-width:0.5;" width="142.2689" x="195.4243" y="1508.771"/><text fill="#000000" font-family="sans-serif" font-size="12" lengthAdjust="spacing" textLength="122.2689" x="205.4243" y="1531.599">Remove CASA images</text><polygon fill="#F1F1F1" points="82.2386,1459.28,450.8789,1459.28,462.8789,1471.28,450.8789,1483.28,82.2386,1483.28,70.2386,1471.28,82.2386,1459.28" style="stroke:#181818;stroke-width:0.5;"/><text fill="#000000" font-family="sans-serif" font-size="11" lengthAdjust="spacing" textLength="17.0829" x="270.5587" y="1495.0389">yes</text><text fill="#000000" font-family="sans-serif" font-size="11" lengthAdjust="spacing" textLength="368.6404" x="82.2386" y="1475.548">Required to remove CASA images after export?: `remove_casa_images`?</text><text fill="#000000" font-family="sans-serif" font-size="11" lengthAdjust="spacing" textLength="13.4529" x="462.8789" y="1468.057">no</text><polygon fill="#F1F1F1" points="266.5587,1565.1151,278.5587,1577.1151,266.5587,1589.1151,254.5587,1577.1151,266.5587,1565.1151" style="stroke:#181818;stroke-width:0.5;"/><polygon fill="#F1F1F1" points="193.6128,1609.1151,339.5047,1609.1151,351.5047,1621.1151,339.5047,1633.1151,193.6128,1633.1151,181.6128,1621.1151,193.6128,1609.1151" style="stroke:#181818;stroke-width:0.5;"/><text fill="#000000" font-family="sans-serif" font-size="11" lengthAdjust="spacing" textLength="17.0829" x="270.5587" y="1644.874">yes</text><text fill="#000000" font-family="sans-serif" font-size="11" lengthAdjust="spacing" textLength="145.892" x="193.6128" y="1625.383">export and remove success?</text><text fill="#000000" font-family="sans-serif" font-size="11" lengthAdjust="spacing" textLength="13.4529" x="351.5047" y="1617.8921">no</text><ellipse cx="386.9576" cy="1621.1151" fill="none" rx="11" ry="11" style="stroke:#222222;stroke-width:1;"/><ellipse cx="386.9576" cy="1621.1151" fill="#222222" rx="6" ry="6" style="stroke:#222222;stroke-width:1;"/><rect fill="#FFE4B5" height="330.738" style="stroke:#000000;stroke-width:1.5;" width="496.9883" x="23" y="1668.374"/><path d="M87.1238,1668.374 L87.1238,1680.4419 L77.1238,1690.4419 L23,1690.4419" fill="none" style="stroke:#000000;stroke-width:1.5;"/><text fill="#000000" font-family="sans-serif" font-size="14" lengthAdjust="spacing" textLength="54.1238" x="26" y="1684.3399">Cleanup</text><rect fill="#F1F1F1" height="36.3441" rx="12.5" ry="12.5" style="stroke:#181818;stroke-width:0.5;" width="205.4133" x="163.8521" y="1756.9328"/><text fill="#000000" font-family="sans-serif" font-size="12" lengthAdjust="spacing" textLength="185.4133" x="173.8521" y="1779.7609">Remove ASDM working directory</text><polygon fill="#F1F1F1" points="151.0046,1707.4419,382.1129,1707.4419,394.1129,1719.4419,382.1129,1731.4419,151.0046,1731.4419,139.0046,1719.4419,151.0046,1707.4419" style="stroke:#181818;stroke-width:0.5;"/><text fill="#000000" font-family="sans-serif" font-size="11" lengthAdjust="spacing" textLength="17.0829" x="270.5587" y="1743.2008">yes</text><text fill="#000000" font-family="sans-serif" font-size="11" lengthAdjust="spacing" textLength="231.1083" x="151.0046" y="1723.7099">Required to remove ASDM?: `remove_asdm`?</text><text fill="#000000" font-family="sans-serif" font-size="11" lengthAdjust="spacing" textLength="13.4529" x="394.1129" y="1716.2189">no</text><polygon fill="#F1F1F1" points="266.5587,1813.277,278.5587,1825.277,266.5587,1837.277,254.5587,1825.277,266.5587,1813.277" style="stroke:#181818;stroke-width:0.5;"/><rect fill="#F1F1F1" height="36.3441" rx="12.5" ry="12.5" style="stroke:#181818;stroke-width:0.5;" width="454.859" x="39.1292" y="1906.7679"/><text fill="#000000" font-family="sans-serif" font-size="12" lengthAdjust="spacing" textLength="434.859" x="49.1292" y="1929.596">Remove intermediate files. Only keep images dirs, MS and *.py and *.log files</text><polygon fill="#F1F1F1" points="102.0989,1857.277,431.0186,1857.277,443.0186,1869.277,431.0186,1881.277,102.0989,1881.277,90.0989,1869.277,102.0989,1857.277" style="stroke:#181818;stroke-width:0.5;"/><text fill="#000000" font-family="sans-serif" font-size="11" lengthAdjust="spacing" textLength="17.0829" x="270.5587" y="1893.0359">yes</text><text fill="#000000" font-family="sans-serif" font-size="11" lengthAdjust="spacing" textLength="328.9196" x="102.0989" y="1873.5449">Required to remove intermediate files?: `remove_intermediate`?</text><text fill="#000000" font-family="sans-serif" font-size="11" lengthAdjust="spacing" textLength="13.4529" x="443.0186" y="1866.054">no</text><polygon fill="#F1F1F1" points="266.5587,1963.112,278.5587,1975.112,266.5587,1987.112,254.5587,1975.112,266.5587,1963.112" style="stroke:#181818;stroke-width:0.5;"/><rect fill="#FFE4B5" height="260.1619" style="stroke:#000000;stroke-width:1.5;" width="279.6612" x="131.2281" y="2009.112"/><path d="M234.5658,2009.112 L234.5658,2021.1799 L224.5658,2031.1799 L131.2281,2031.1799" fill="none" style="stroke:#000000;stroke-width:1.5;"/><text fill="#000000" font-family="sans-serif" font-size="14" lengthAdjust="spacing" textLength="93.3376" x="134.2281" y="2025.0779">Check success</text><rect fill="#F1F1F1" height="36.3441" rx="12.5" ry="12.5" style="stroke:#181818;stroke-width:0.5;" width="182.6612" x="175.2281" y="2154.9298"/><text fill="#000000" font-family="sans-serif" font-size="12" lengthAdjust="spacing" textLength="162.6612" x="185.2281" y="2177.7579">Mark ASDM process as failed</text><polygon fill="#F1F1F1" points="195.9943,2105.4388,337.1232,2105.4388,349.1232,2117.4388,337.1232,2129.4388,195.9943,2129.4388,183.9943,2117.4388,195.9943,2105.4388" style="stroke:#181818;stroke-width:0.5;"/><text fill="#000000" font-family="sans-serif" font-size="11" lengthAdjust="spacing" textLength="17.0829" x="270.5587" y="2141.1978">yes</text><text fill="#000000" font-family="sans-serif" font-size="11" lengthAdjust="spacing" textLength="141.129" x="195.9943" y="2121.7068">log files contains "SEVERE"?</text><text fill="#000000" font-family="sans-serif" font-size="11" lengthAdjust="spacing" textLength="13.4529" x="349.1232" y="2114.2159">no</text><polygon fill="#F1F1F1" points="266.5587,2211.2739,278.5587,2223.2739,266.5587,2235.2739,254.5587,2223.2739,266.5587,2211.2739" style="stroke:#181818;stroke-width:0.5;"/><polygon fill="#F1F1F1" points="228.873,2048.1799,304.2445,2048.1799,316.2445,2060.1799,304.2445,2072.1799,228.873,2072.1799,216.873,2060.1799,228.873,2048.1799" style="stroke:#181818;stroke-width:0.5;"/><text fill="#000000" font-family="sans-serif" font-size="11" lengthAdjust="spacing" textLength="17.0829" x="270.5587" y="2083.9388">yes</text><text fill="#000000" font-family="sans-serif" font-size="11" lengthAdjust="spacing" textLength="75.3715" x="228.873" y="2064.4479">more log files?</text><ellipse cx="266.5587" cy="2312.2739" fill="none" rx="11" ry="11" style="stroke:#222222;stroke-width:1;"/><ellipse cx="266.5587" cy="2312.2739" fill="#222222" rx="6" ry="6" style="stroke:#222222;stroke-width:1;"/><line style="stroke:#181818;stroke-width:1;" x1="266.5587" x2="266.5587" y1="115.412" y2="135.412"/><polygon fill="#181818" points="262.5587,125.412,266.5587,135.412,270.5587,125.412,266.5587,129.412" style="stroke:#181818;stroke-width:1;"/><line style="stroke:#181818;stroke-width:1;" x1="266.5587" x2="266.5587" y1="30" y2="79.0679"/><polygon fill="#181818" points="262.5587,69.0679,266.5587,79.0679,270.5587,69.0679,266.5587,73.0679" style="stroke:#181818;stroke-width:1;"/><line style="stroke:#181818;stroke-width:1;" x1="266.5587" x2="266.5587" y1="313.1682" y2="387.495"/><polygon fill="#181818" points="262.5587,377.495,266.5587,387.495,270.5587,377.495,266.5587,381.495" style="stroke:#181818;stroke-width:1;"/><line style="stroke:#181818;stroke-width:1;" x1="328.1849" x2="352.6378" y1="301.1682" y2="301.1682"/><polygon fill="#181818" points="342.6378,297.1682,352.6378,301.1682,342.6378,305.1682,346.6378,301.1682" style="stroke:#181818;stroke-width:1;"/><line style="stroke:#181818;stroke-width:1;" x1="266.5587" x2="266.5587" y1="269.1682" y2="289.1682"/><polygon fill="#181818" points="262.5587,279.1682,266.5587,289.1682,270.5587,279.1682,266.5587,283.1682" style="stroke:#181818;stroke-width:1;"/><line style="stroke:#181818;stroke-width:1;" x1="266.5587" x2="266.5587" y1="171.7561" y2="232.8241"/><polygon fill="#181818" points="262.5587,222.8241,266.5587,232.8241,270.5587,222.8241,266.5587,226.8241" style="stroke:#181818;stroke-width:1;"/><line style="stroke:#181818;stroke-width:1;" x1="266.5587" x2="266.5587" y1="467.8391" y2="501.098"/><polygon fill="#181818" points="262.5587,491.098,266.5587,501.098,270.5587,491.098,266.5587,495.098" style="stroke:#181818;stroke-width:1;"/><line style="stroke:#181818;stroke-width:1;" x1="339.0528" x2="363.5057" y1="455.8391" y2="455.8391"/><polygon fill="#181818" points="353.5057,451.8391,363.5057,455.8391,353.5057,459.8391,357.5057,455.8391" style="stroke:#181818;stroke-width:1;"/><line style="stroke:#181818;stroke-width:1;" x1="266.5587" x2="266.5587" y1="423.8391" y2="443.8391"/><polygon fill="#181818" points="262.5587,433.8391,266.5587,443.8391,270.5587,433.8391,266.5587,437.8391" style="stroke:#181818;stroke-width:1;"/><line style="stroke:#181818;stroke-width:1;" x1="266.5587" x2="266.5587" y1="581.4421" y2="614.7011"/><polygon fill="#181818" points="262.5587,604.7011,266.5587,614.7011,270.5587,604.7011,266.5587,608.7011" style="stroke:#181818;stroke-width:1;"/><line style="stroke:#181818;stroke-width:1;" x1="330.2529" x2="354.7058" y1="569.4421" y2="569.4421"/><polygon fill="#181818" points="344.7058,565.4421,354.7058,569.4421,344.7058,573.4421,348.7058,569.4421" style="stroke:#181818;stroke-width:1;"/><line style="stroke:#181818;stroke-width:1;" x1="266.5587" x2="266.5587" y1="537.4421" y2="557.4421"/><polygon fill="#181818" points="262.5587,547.4421,266.5587,557.4421,270.5587,547.4421,266.5587,551.4421" style="stroke:#181818;stroke-width:1;"/><line style="stroke:#181818;stroke-width:1;" x1="266.5587" x2="266.5587" y1="695.0452" y2="728.3041"/><polygon fill="#181818" points="262.5587,718.3041,266.5587,728.3041,270.5587,718.3041,266.5587,722.3041" style="stroke:#181818;stroke-width:1;"/><line style="stroke:#181818;stroke-width:1;" x1="323.2019" x2="347.6548" y1="683.0452" y2="683.0452"/><polygon fill="#181818" points="337.6548,679.0452,347.6548,683.0452,337.6548,687.0452,341.6548,683.0452" style="stroke:#181818;stroke-width:1;"/><line style="stroke:#181818;stroke-width:1;" x1="266.5587" x2="266.5587" y1="651.0452" y2="671.0452"/><polygon fill="#181818" points="262.5587,661.0452,266.5587,671.0452,270.5587,661.0452,266.5587,665.0452" style="stroke:#181818;stroke-width:1;"/><line style="stroke:#181818;stroke-width:1;" x1="141.991" x2="131.991" y1="826.6309" y2="826.6309"/><line style="stroke:#181818;stroke-width:1;" x1="131.991" x2="131.991" y1="826.6309" y2="848.6309"/><polygon fill="#181818" points="127.991,838.6309,131.991,848.6309,135.991,838.6309,131.991,842.6309" style="stroke:#181818;stroke-width:1;"/><line style="stroke:#181818;stroke-width:1;" x1="391.1265" x2="401.1265" y1="826.6309" y2="826.6309"/><line style="stroke:#181818;stroke-width:1;" x1="401.1265" x2="401.1265" y1="826.6309" y2="848.6309"/><polygon fill="#181818" points="397.1265,838.6309,401.1265,848.6309,405.1265,838.6309,401.1265,842.6309" style="stroke:#181818;stroke-width:1;"/><line style="stroke:#181818;stroke-width:1;" x1="131.991" x2="131.991" y1="884.975" y2="902.975"/><line style="stroke:#181818;stroke-width:1;" x1="131.991" x2="254.5587" y1="902.975" y2="902.975"/><polygon fill="#181818" points="244.5587,898.975,254.5587,902.975,244.5587,906.975,248.5587,902.975" style="stroke:#181818;stroke-width:1;"/><line style="stroke:#181818;stroke-width:1;" x1="401.1265" x2="401.1265" y1="884.975" y2="902.975"/><line style="stroke:#181818;stroke-width:1;" x1="401.1265" x2="278.5587" y1="902.975" y2="902.975"/><polygon fill="#181818" points="288.5587,898.975,278.5587,902.975,288.5587,906.975,284.5587,902.975" style="stroke:#181818;stroke-width:1;"/><line style="stroke:#181818;stroke-width:1;" x1="266.5587" x2="266.5587" y1="914.975" y2="939.018"/><polygon fill="#181818" points="262.5587,929.018,266.5587,939.018,270.5587,929.018,266.5587,933.018" style="stroke:#181818;stroke-width:1;"/><line style="stroke:#181818;stroke-width:1;" x1="266.5587" x2="266.5587" y1="1019.3622" y2="1064.6211"/><polygon fill="#181818" points="262.5587,1054.6211,266.5587,1064.6211,270.5587,1054.6211,266.5587,1058.6211" style="stroke:#181818;stroke-width:1;"/><line style="stroke:#181818;stroke-width:1;" x1="323.2899" x2="347.7428" y1="1007.3622" y2="1007.3622"/><polygon fill="#181818" points="337.7428,1003.3622,347.7428,1007.3622,337.7428,1011.3622,341.7428,1007.3622" style="stroke:#181818;stroke-width:1;"/><line style="stroke:#181818;stroke-width:1;" x1="266.5587" x2="266.5587" y1="975.3622" y2="995.3622"/><polygon fill="#181818" points="262.5587,985.3622,266.5587,995.3622,270.5587,985.3622,266.5587,989.3622" style="stroke:#181818;stroke-width:1;"/><line style="stroke:#181818;stroke-width:1;" x1="266.5587" x2="266.5587" y1="752.3041" y2="814.6309"/><polygon fill="#181818" points="262.5587,804.6309,266.5587,814.6309,270.5587,804.6309,266.5587,808.6309" style="stroke:#181818;stroke-width:1;"/><line style="stroke:#181818;stroke-width:1;" x1="360.2497" x2="495.3428" y1="740.3041" y2="740.3041"/><polygon fill="#181818" points="491.3428,924.975,495.3428,934.975,499.3428,924.975,495.3428,928.975" style="stroke:#181818;stroke-width:1;"/><line style="stroke:#181818;stroke-width:1;" x1="495.3428" x2="495.3428" y1="740.3041" y2="1076.6211"/><line style="stroke:#181818;stroke-width:1;" x1="495.3428" x2="278.5587" y1="1076.6211" y2="1076.6211"/><polygon fill="#181818" points="288.5587,1072.6211,278.5587,1076.6211,288.5587,1080.6211,284.5587,1076.6211" style="stroke:#181818;stroke-width:1;"/><line style="stroke:#181818;stroke-width:1;" x1="266.5587" x2="266.5587" y1="1284.6091" y2="1329.868"/><polygon fill="#181818" points="262.5587,1319.868,266.5587,1329.868,270.5587,1319.868,266.5587,1323.868" style="stroke:#181818;stroke-width:1;"/><line style="stroke:#181818;stroke-width:1;" x1="340.3123" x2="364.7652" y1="1272.6091" y2="1272.6091"/><polygon fill="#181818" points="354.7652,1268.6091,364.7652,1272.6091,354.7652,1276.6091,358.7652,1272.6091" style="stroke:#181818;stroke-width:1;"/><line style="stroke:#181818;stroke-width:1;" x1="266.5587" x2="266.5587" y1="1232.894" y2="1260.6091"/><polygon fill="#181818" points="262.5587,1250.6091,266.5587,1260.6091,270.5587,1250.6091,266.5587,1254.6091" style="stroke:#181818;stroke-width:1;"/><line style="stroke:#181818;stroke-width:1;" x1="266.5587" x2="266.5587" y1="1132.6211" y2="1196.5499"/><polygon fill="#181818" points="262.5587,1186.5499,266.5587,1196.5499,270.5587,1186.5499,266.5587,1190.5499" style="stroke:#181818;stroke-width:1;"/><line style="stroke:#181818;stroke-width:1;" x1="377.833" x2="449.7312" y1="1120.6211" y2="1120.6211"/><polygon fill="#181818" points="445.7312,1242.894,449.7312,1252.894,453.7312,1242.894,449.7312,1246.894" style="stroke:#181818;stroke-width:1;"/><line style="stroke:#181818;stroke-width:1;" x1="449.7312" x2="449.7312" y1="1120.6211" y2="1341.868"/><line style="stroke:#181818;stroke-width:1;" x1="449.7312" x2="278.5587" y1="1341.868" y2="1341.868"/><polygon fill="#181818" points="288.5587,1337.868,278.5587,1341.868,288.5587,1345.868,284.5587,1341.868" style="stroke:#181818;stroke-width:1;"/><line style="stroke:#181818;stroke-width:1;" x1="266.5587" x2="266.5587" y1="1088.6211" y2="1108.6211"/><polygon fill="#181818" points="262.5587,1098.6211,266.5587,1108.6211,270.5587,1098.6211,266.5587,1102.6211" style="stroke:#181818;stroke-width:1;"/><line style="stroke:#181818;stroke-width:1;" x1="266.5587" x2="266.5587" y1="1483.28" y2="1508.771"/><polygon fill="#181818" points="262.5587,1498.771,266.5587,1508.771,270.5587,1498.771,266.5587,1502.771" style="stroke:#181818;stroke-width:1;"/><line style="stroke:#181818;stroke-width:1;" x1="462.8789" x2="474.8789" y1="1471.28" y2="1471.28"/><polygon fill="#181818" points="470.8789,1516.943,474.8789,1526.943,478.8789,1516.943,474.8789,1520.943" style="stroke:#181818;stroke-width:1;"/><line style="stroke:#181818;stroke-width:1;" x1="474.8789" x2="474.8789" y1="1471.28" y2="1577.1151"/><line style="stroke:#181818;stroke-width:1;" x1="474.8789" x2="278.5587" y1="1577.1151" y2="1577.1151"/><polygon fill="#181818" points="288.5587,1573.1151,278.5587,1577.1151,288.5587,1581.1151,284.5587,1577.1151" style="stroke:#181818;stroke-width:1;"/><line style="stroke:#181818;stroke-width:1;" x1="266.5587" x2="266.5587" y1="1545.1151" y2="1565.1151"/><polygon fill="#181818" points="262.5587,1555.1151,266.5587,1565.1151,270.5587,1555.1151,266.5587,1559.1151" style="stroke:#181818;stroke-width:1;"/><line style="stroke:#181818;stroke-width:1;" x1="266.5587" x2="266.5587" y1="1439.28" y2="1459.28"/><polygon fill="#181818" points="262.5587,1449.28,266.5587,1459.28,270.5587,1449.28,266.5587,1453.28" style="stroke:#181818;stroke-width:1;"/><line style="stroke:#181818;stroke-width:1;" x1="266.5587" x2="266.5587" y1="1633.1151" y2="1707.4419"/><polygon fill="#181818" points="262.5587,1697.4419,266.5587,1707.4419,270.5587,1697.4419,266.5587,1701.4419" style="stroke:#181818;stroke-width:1;"/><line style="stroke:#181818;stroke-width:1;" x1="351.5047" x2="375.9576" y1="1621.1151" y2="1621.1151"/><polygon fill="#181818" points="365.9576,1617.1151,375.9576,1621.1151,365.9576,1625.1151,369.9576,1621.1151" style="stroke:#181818;stroke-width:1;"/><line style="stroke:#181818;stroke-width:1;" x1="266.5587" x2="266.5587" y1="1589.1151" y2="1609.1151"/><polygon fill="#181818" points="262.5587,1599.1151,266.5587,1609.1151,270.5587,1599.1151,266.5587,1603.1151" style="stroke:#181818;stroke-width:1;"/><line style="stroke:#181818;stroke-width:1;" x1="266.5587" x2="266.5587" y1="1353.868" y2="1402.9359"/><polygon fill="#181818" points="262.5587,1392.9359,266.5587,1402.9359,270.5587,1392.9359,266.5587,1396.9359" style="stroke:#181818;stroke-width:1;"/><line style="stroke:#181818;stroke-width:1;" x1="266.5587" x2="266.5587" y1="1731.4419" y2="1756.9328"/><polygon fill="#181818" points="262.5587,1746.9328,266.5587,1756.9328,270.5587,1746.9328,266.5587,1750.9328" style="stroke:#181818;stroke-width:1;"/><line style="stroke:#181818;stroke-width:1;" x1="394.1129" x2="406.1129" y1="1719.4419" y2="1719.4419"/><polygon fill="#181818" points="402.1129,1765.1049,406.1129,1775.1049,410.1129,1765.1049,406.1129,1769.1049" style="stroke:#181818;stroke-width:1;"/><line style="stroke:#181818;stroke-width:1;" x1="406.1129" x2="406.1129" y1="1719.4419" y2="1825.277"/><line style="stroke:#181818;stroke-width:1;" x1="406.1129" x2="278.5587" y1="1825.277" y2="1825.277"/><polygon fill="#181818" points="288.5587,1821.277,278.5587,1825.277,288.5587,1829.277,284.5587,1825.277" style="stroke:#181818;stroke-width:1;"/><line style="stroke:#181818;stroke-width:1;" x1="266.5587" x2="266.5587" y1="1793.277" y2="1813.277"/><polygon fill="#181818" points="262.5587,1803.277,266.5587,1813.277,270.5587,1803.277,266.5587,1807.277" style="stroke:#181818;stroke-width:1;"/><line style="stroke:#181818;stroke-width:1;" x1="266.5587" x2="266.5587" y1="1881.277" y2="1906.7679"/><polygon fill="#181818" points="262.5587,1896.7679,266.5587,1906.7679,270.5587,1896.7679,266.5587,1900.7679" style="stroke:#181818;stroke-width:1;"/><line style="stroke:#181818;stroke-width:1;" x1="443.0186" x2="503.9883" y1="1869.277" y2="1869.277"/><polygon fill="#181818" points="499.9883,1914.94,503.9883,1924.94,507.9883,1914.94,503.9883,1918.94" style="stroke:#181818;stroke-width:1;"/><line style="stroke:#181818;stroke-width:1;" x1="503.9883" x2="503.9883" y1="1869.277" y2="1975.112"/><line style="stroke:#181818;stroke-width:1;" x1="503.9883" x2="278.5587" y1="1975.112" y2="1975.112"/><polygon fill="#181818" points="288.5587,1971.112,278.5587,1975.112,288.5587,1979.112,284.5587,1975.112" style="stroke:#181818;stroke-width:1;"/><line style="stroke:#181818;stroke-width:1;" x1="266.5587" x2="266.5587" y1="1943.112" y2="1963.112"/><polygon fill="#181818" points="262.5587,1953.112,266.5587,1963.112,270.5587,1953.112,266.5587,1957.112" style="stroke:#181818;stroke-width:1;"/><line style="stroke:#181818;stroke-width:1;" x1="266.5587" x2="266.5587" y1="1837.277" y2="1857.277"/><polygon fill="#181818" points="262.5587,1847.277,266.5587,1857.277,270.5587,1847.277,266.5587,1851.277" style="stroke:#181818;stroke-width:1;"/><line style="stroke:#181818;stroke-width:1;" x1="266.5587" x2="266.5587" y1="2129.4388" y2="2154.9298"/><polygon fill="#181818" points="262.5587,2144.9298,266.5587,2154.9298,270.5587,2144.9298,266.5587,2148.9298" style="stroke:#181818;stroke-width:1;"/><line style="stroke:#181818;stroke-width:1;" x1="349.1232" x2="367.8893" y1="2117.4388" y2="2117.4388"/><polygon fill="#181818" points="363.8893,2163.1018,367.8893,2173.1018,371.8893,2163.1018,367.8893,2167.1018" style="stroke:#181818;stroke-width:1;"/><line style="stroke:#181818;stroke-width:1;" x1="367.8893" x2="367.8893" y1="2117.4388" y2="2223.2739"/><line style="stroke:#181818;stroke-width:1;" x1="367.8893" x2="278.5587" y1="2223.2739" y2="2223.2739"/><polygon fill="#181818" points="288.5587,2219.2739,278.5587,2223.2739,288.5587,2227.2739,284.5587,2223.2739" style="stroke:#181818;stroke-width:1;"/><line style="stroke:#181818;stroke-width:1;" x1="266.5587" x2="266.5587" y1="2191.2739" y2="2211.2739"/><polygon fill="#181818" points="262.5587,2201.2739,266.5587,2211.2739,270.5587,2201.2739,266.5587,2205.2739" style="stroke:#181818;stroke-width:1;"/><line style="stroke:#181818;stroke-width:1;" x1="266.5587" x2="266.5587" y1="2072.1799" y2="2105.4388"/><polygon fill="#181818" points="262.5587,2095.4388,266.5587,2105.4388,270.5587,2095.4388,266.5587,2099.4388" style="stroke:#181818;stroke-width:1;"/><line style="stroke:#181818;stroke-width:1;" x1="266.5587" x2="266.5587" y1="2235.2739" y2="2245.2739"/><line style="stroke:#181818;stroke-width:1;" x1="266.5587" x2="391.8893" y1="2245.2739" y2="2245.2739"/><polygon fill="#181818" points="387.8893,2163.6109,391.8893,2153.6109,395.8893,2163.6109,391.8893,2159.6109" style="stroke:#181818;stroke-width:1;"/><line style="stroke:#181818;stroke-width:1;" x1="391.8893" x2="391.8893" y1="2060.1799" y2="2245.2739"/><line style="stroke:#181818;stroke-width:1;" x1="391.8893" x2="316.2445" y1="2060.1799" y2="2060.1799"/><polygon fill="#181818" points="326.2445,2056.1799,316.2445,2060.1799,326.2445,2064.1799,322.2445,2060.1799" style="stroke:#181818;stroke-width:1;"/><line style="stroke:#181818;stroke-width:1;" x1="216.873" x2="153.2281" y1="2060.1799" y2="2060.1799"/><polygon fill="#181818" points="149.2281,2149.6109,153.2281,2159.6109,157.2281,2149.6109,153.2281,2153.6109" style="stroke:#181818;stroke-width:1;"/><line style="stroke:#181818;stroke-width:1;" x1="153.2281" x2="153.2281" y1="2060.1799" y2="2257.2739"/><line style="stroke:#181818;stroke-width:1;" x1="153.2281" x2="266.5587" y1="2257.2739" y2="2257.2739"/><line style="stroke:#181818;stroke-width:1;" x1="266.5587" x2="266.5587" y1="2257.2739" y2="2301.2739"/><polygon fill="#181818" points="262.5587,2291.2739,266.5587,2301.2739,270.5587,2291.2739,266.5587,2295.2739" style="stroke:#181818;stroke-width:1;"/><line style="stroke:#181818;stroke-width:1;" x1="266.5587" x2="266.5587" y1="1987.112" y2="2048.1799"/><polygon fill="#181818" points="262.5587,2038.1799,266.5587,2048.1799,270.5587,2038.1799,266.5587,2042.1799" style="stroke:#181818;stroke-width:1;"/><!--SRC=[nLPDRnen4BtpAqRq45ArEVG8gg8efLAaeaPGLUg9EDvPSF7QMziRWYh-UySVm6vs8KWvr0S4ydoyUMyyWtNCk5v97y89hQ1_Rx0qcgErVNZtJIoMxXTAgTVmjmTqXkDdPnXte5Y1e7EucNsPG6vq0PbUAwbPXXbGq4ScvIYwt1fa3c6jpKge1MJ287VQR23N1jmIGumhkCi1duLrzWCOBFGJWd2G2sFTgBUjGzn1y6wdGGPm2Gm8vNGRHCGeSXXWTF8fRCKz0zUN7fw2mGRjPR13QH46IiTV_bYdotYbCf4tWTv78ay0JTHm9iMZOJ4tDw9qi1Pk2GLRuRnsEO-NWyi3wcJEVQ2tGO-8ffNgW7F8bvh3S_ZcL55bqcU13gok30yjHIb-apWmM26MJJ31ne9MSbFZ8BGBasy5v4DDyKz5hP61ADY2YhmUmaEcvqvoPEgX7TcVck9tqOl4dcZE6T6KbDwTHWwBClzOhqzICvYKqb_ItP6SkpEqx8cgpr32PxW8NxYMLQ4kHWtRDWFT4PHM-D8rCDHmyKtYk2HAHgtg4d77nNWTqbwSRWZR3asFoVYIuhF8hGawUoaHKnaiKA7nx_QJYes2zhZYmtiqDEYA5fGsTQr- -6ySDgPjgOrBPGADqAztFsRTvGuxRVsOBvWxbDiGY8pIjB-zcTtiN5bE3u7MWG_d9OicD0ejcqUJ4-zYDrXg0G_9sumrYOcR89JXfKxOJWhHBK93W4EEROlWM_-EghARqYDS-OrIuuNPh3Y3aB0EZsp0KzoyXeOsAve2C-7VH2uasXgs-kKP6Dknhk0xZNi8oo2r1s6dVmcJMP3e_LMvIL-aNaIVy_Jkq6A9VBLJkrkHzP8ImA3G1c6VZ-eIjgCgJzZU2BXMZWbbQQoCVuwdu_uhitt2p2gAbhOkC0iverZPETEzsTZqAq1FbMzxla7_0G00]--></g></svg>