<svg xmlns="http://www.w3.org/2000/svg" xmlns:xlink="http://www.w3.org/1999/xlink" contentStyleType="text/css" data-diagram-type="ACTIVITY" height="957px" preserveAspectRatio="none" style="width:700px;height:957px;background:#FFFFFF;" version="1.1" viewBox="0 0 700 957" width="700px" zoomAndPan="magnify"><defs/><g><ellipse cx="350.1777" cy="20" fill="#222222" rx="10" ry="10" style="stroke:#222222;stroke-width:1;"/><rect fill="none" height="247.3506" style="stroke:#000000;stroke-width:1.5;" width="235.1406" x="232.6074" y="40"/><path d="M318.7803,40 L318.7803,50.0146 L308.7803,60.0146 L232.6074,60.0146" fill="none" style="stroke:#000000;stroke-width:1.5;"/><text fill="#000000" font-family="sans-serif" font-size="14" lengthAdjust="spacing" textLength="76.1729" x="235.6074" y="55.0752">Preprocess</text><rect fill="#F1F1F1" height="34.584" rx="12.5" ry="12.5" style="stroke:#181818;stroke-width:0.5;" width="119.3164" x="290.5195" y="77.0146"/><text fill="#000000" font-family="sans-serif" font-size="12" lengthAdjust="spacing" textLength="99.3164" x="300.5195" y="99.0791">Initialize logging</text><rect fill="#F1F1F1" height="34.584" rx="12.5" ry="12.5" style="stroke:#181818;stroke-width:0.5;" width="211.3906" x="244.4824" y="131.5986"/><text fill="#000000" font-family="sans-serif" font-size="12" lengthAdjust="spacing" textLength="191.3906" x="254.4824" y="153.6631">Change directory to working dir</text><rect fill="#F1F1F1" height="34.584" rx="12.5" ry="12.5" style="stroke:#181818;stroke-width:0.5;" width="215.1406" x="242.6074" y="186.1826"/><text fill="#000000" font-family="sans-serif" font-size="12" lengthAdjust="spacing" textLength="195.1406" x="252.6074" y="208.2471">Remove all *.asdm.sdm.tar files</text><rect fill="#F1F1F1" height="34.584" rx="12.5" ry="12.5" style="stroke:#181818;stroke-width:0.5;" width="161.7969" x="269.2793" y="240.7666"/><text fill="#000000" font-family="sans-serif" font-size="12" lengthAdjust="spacing" textLength="141.7969" x="279.2793" y="262.8311">Report process settings</text><rect fill="none" height="313.3257" style="stroke:#000000;stroke-width:1.5;" width="474.8477" x="108.7725" y="297.3506"/><path d="M197.2285,297.3506 L197.2285,307.3652 L187.2285,317.3652 L108.7725,317.3652" fill="none" style="stroke:#000000;stroke-width:1.5;"/><text fill="#000000" font-family="sans-serif" font-size="14" lengthAdjust="spacing" textLength="78.4561" x="111.7725" y="312.4258">Query data</text><rect fill="#F1F1F1" height="34.584" rx="12.5" ry="12.5" style="stroke:#181818;stroke-width:0.5;" width="286.332" x="207.0117" y="334.3652"/><text fill="#000000" font-family="sans-serif" font-size="12" lengthAdjust="spacing" textLength="266.332" x="217.0117" y="356.4297">query = Query(source, band, cycle).query()</text><polygon fill="#F1F1F1" points="308.3745,388.9492,391.981,388.9492,403.981,400.9492,391.981,412.9492,308.3745,412.9492,296.3745,400.9492,308.3745,388.9492" style="stroke:#181818;stroke-width:0.5;"/><text fill="#000000" font-family="sans-serif" font-size="11" lengthAdjust="spacing" textLength="18.7935" x="354.1777" y="424.0083">yes</text><text fill="#000000" font-family="sans-serif" font-size="11" lengthAdjust="spacing" textLength="83.6064" x="308.3745" y="405.324">query success?</text><text fill="#000000" font-family="sans-serif" font-size="11" lengthAdjust="spacing" textLength="13.6372" x="403.981" y="398.6396">no</text><ellipse cx="439.6182" cy="400.9492" fill="none" rx="11" ry="11" style="stroke:#222222;stroke-width:1;"/><ellipse cx="439.6182" cy="400.9492" fill="#222222" rx="6" ry="6" style="stroke:#222222;stroke-width:1;"/><polygon fill="#F1F1F1" points="280.6221,445.5083,419.7334,445.5083,431.7334,457.5083,419.7334,469.5083,280.6221,469.5083,268.6221,457.5083,280.6221,445.5083" style="stroke:#181818;stroke-width:0.5;"/><text fill="#000000" font-family="sans-serif" font-size="11" lengthAdjust="spacing" textLength="139.1113" x="280.6221" y="461.8831">skip_previous_successful</text><text fill="#000000" font-family="sans-serif" font-size="11" lengthAdjust="spacing" textLength="18.7935" x="249.8286" y="455.1987">yes</text><text fill="#000000" font-family="sans-serif" font-size="11" lengthAdjust="spacing" textLength="13.6372" x="431.7334" y="455.1987">no</text><rect fill="#F1F1F1" height="34.584" rx="12.5" ry="12.5" style="stroke:#181818;stroke-width:0.5;" width="157.0742" x="157.9287" y="479.5083"/><text fill="#000000" font-family="sans-serif" font-size="12" lengthAdjust="spacing" textLength="137.0742" x="167.9287" y="501.5728">load successful_asdms</text><rect fill="#F1F1F1" height="34.584" rx="12.5" ry="12.5" style="stroke:#181818;stroke-width:0.5;" width="215.3867" x="128.7725" y="534.0923"/><text fill="#000000" font-family="sans-serif" font-size="12" lengthAdjust="spacing" textLength="195.3867" x="138.7725" y="556.1567">filter to process only new asdms</text><rect fill="#F1F1F1" height="34.584" rx="12.5" ry="12.5" style="stroke:#181818;stroke-width:0.5;" width="199.4609" x="364.1592" y="479.5083"/><text fill="#000000" font-family="sans-serif" font-size="12" lengthAdjust="spacing" textLength="179.4609" x="374.1592" y="501.5728">remove successful_asdms file</text><polygon fill="#F1F1F1" points="350.1777,574.6763,362.1777,586.6763,350.1777,598.6763,338.1777,586.6763,350.1777,574.6763" style="stroke:#181818;stroke-width:0.5;"/><rect fill="none" height="135.5986" style="stroke:#000000;stroke-width:1.5;" width="678.3555" x="11" y="620.6763"/><path d="M233.2627,620.6763 L233.2627,630.6909 L223.2627,640.6909 L11,640.6909" fill="none" style="stroke:#000000;stroke-width:1.5;"/><text fill="#000000" font-family="sans-serif" font-size="14" lengthAdjust="spacing" textLength="212.2627" x="14" y="635.7515">Download and process ASDMs</text><rect fill="#555555" height="6" rx="2.5" ry="2.5" style="stroke:#555555;stroke-width:1;" width="658.3555" x="21" y="657.6909"/><rect fill="#F1F1F1" height="34.584" rx="12.5" ry="12.5" style="stroke:#181818;stroke-width:0.5;" width="192.3359" x="33" y="683.6909"/><text fill="#000000" font-family="sans-serif" font-size="12" lengthAdjust="spacing" textLength="172.3359" x="43" y="705.7554">_process_wrapper(ASDM_1)</text><rect fill="#F1F1F1" height="34.584" rx="12.5" ry="12.5" style="stroke:#181818;stroke-width:0.5;" width="192.3359" x="253.3359" y="683.6909"/><text fill="#000000" font-family="sans-serif" font-size="12" lengthAdjust="spacing" textLength="172.3359" x="263.3359" y="705.7554">_process_wrapper(ASDM_2)</text><rect fill="#F1F1F1" height="34.584" rx="12.5" ry="12.5" style="stroke:#181818;stroke-width:0.5;" width="193.6836" x="473.6719" y="683.6909"/><text fill="#000000" font-family="sans-serif" font-size="12" lengthAdjust="spacing" textLength="173.6836" x="483.6719" y="705.7554">_process_wrapper(ASDM_N)</text><rect fill="#555555" height="6" rx="2.5" ry="2.5" style="stroke:#555555;stroke-width:1;" width="658.3555" x="21" y="738.2749"/><rect fill="none" height="138.1826" style="stroke:#000000;stroke-width:1.5;" width="169.123" x="265.6162" y="766.2749"/><path d="M358.7822,766.2749 L358.7822,776.2896 L348.7822,786.2896 L265.6162,786.2896" fill="none" style="stroke:#000000;stroke-width:1.5;"/><text fill="#000000" font-family="sans-serif" font-size="14" lengthAdjust="spacing" textLength="83.166" x="268.6162" y="781.3501">Postprocess</text><rect fill="#F1F1F1" height="34.584" rx="12.5" ry="12.5" style="stroke:#181818;stroke-width:0.5;" width="132.8223" x="283.7666" y="803.2896"/><text fill="#000000" font-family="sans-serif" font-size="12" lengthAdjust="spacing" textLength="112.8223" x="293.7666" y="825.354">Summarize results</text><rect fill="#F1F1F1" height="34.584" rx="12.5" ry="12.5" style="stroke:#181818;stroke-width:0.5;" width="149.123" x="275.6162" y="857.8735"/><text fill="#000000" font-family="sans-serif" font-size="12" lengthAdjust="spacing" textLength="129.123" x="285.6162" y="879.938">Preprocess of logging</text><ellipse cx="350.1777" cy="935.4575" fill="none" rx="11" ry="11" style="stroke:#222222;stroke-width:1;"/><ellipse cx="350.1777" cy="935.4575" fill="#222222" rx="6" ry="6" style="stroke:#222222;stroke-width:1;"/><line style="stroke:#181818;stroke-width:1;" x1="350.1777" x2="350.1777" y1="111.5986" y2="131.5986"/><polygon fill="#181818" points="346.1777,121.5986,350.1777,131.5986,354.1777,121.5986,350.1777,125.5986" style="stroke:#181818;stroke-width:1;"/><line style="stroke:#181818;stroke-width:1;" x1="350.1777" x2="350.1777" y1="166.1826" y2="186.1826"/><polygon fill="#181818" points="346.1777,176.1826,350.1777,186.1826,354.1777,176.1826,350.1777,180.1826" style="stroke:#181818;stroke-width:1;"/><line style="stroke:#181818;stroke-width:1;" x1="350.1777" x2="350.1777" y1="220.7666" y2="240.7666"/><polygon fill="#181818" points="346.1777,230.7666,350.1777,240.7666,354.1777,230.7666,350.1777,234.7666" style="stroke:#181818;stroke-width:1;"/><line style="stroke:#181818;stroke-width:1;" x1="350.1777" x2="350.1777" y1="30" y2="77.0146"/><polygon fill="#181818" points="346.1777,67.0146,350.1777,77.0146,354.1777,67.0146,350.1777,71.0146" style="stroke:#181818;stroke-width:1;"/><line style="stroke:#181818;stroke-width:1;" x1="350.1777" x2="350.1777" y1="412.9492" y2="445.5083"/><polygon fill="#181818" points="346.1777,435.5083,350.1777,445.5083,354.1777,435.5083,350.1777,439.5083" style="stroke:#181818;stroke-width:1;"/><line style="stroke:#181818;stroke-width:1;" x1="403.981" x2="428.6182" y1="400.9492" y2="400.9492"/><polygon fill="#181818" points="418.6182,396.9492,428.6182,400.9492,418.6182,404.9492,422.6182,400.9492" style="stroke:#181818;stroke-width:1;"/><line style="stroke:#181818;stroke-width:1;" x1="350.1777" x2="350.1777" y1="368.9492" y2="388.9492"/><polygon fill="#181818" points="346.1777,378.9492,350.1777,388.9492,354.1777,378.9492,350.1777,382.9492" style="stroke:#181818;stroke-width:1;"/><line style="stroke:#181818;stroke-width:1;" x1="236.4658" x2="236.4658" y1="514.0923" y2="534.0923"/><polygon fill="#181818" points="232.4658,524.0923,236.4658,534.0923,240.4658,524.0923,236.4658,528.0923" style="stroke:#181818;stroke-width:1;"/><line style="stroke:#181818;stroke-width:1;" x1="268.6221" x2="236.4658" y1="457.5083" y2="457.5083"/><line style="stroke:#181818;stroke-width:1;" x1="236.4658" x2="236.4658" y1="457.5083" y2="479.5083"/><polygon fill="#181818" points="232.4658,469.5083,236.4658,479.5083,240.4658,469.5083,236.4658,473.5083" style="stroke:#181818;stroke-width:1;"/><line style="stroke:#181818;stroke-width:1;" x1="431.7334" x2="463.8896" y1="457.5083" y2="457.5083"/><line style="stroke:#181818;stroke-width:1;" x1="463.8896" x2="463.8896" y1="457.5083" y2="479.5083"/><polygon fill="#181818" points="459.8896,469.5083,463.8896,479.5083,467.8896,469.5083,463.8896,473.5083" style="stroke:#181818;stroke-width:1;"/><line style="stroke:#181818;stroke-width:1;" x1="236.4658" x2="236.4658" y1="568.6763" y2="586.6763"/><line style="stroke:#181818;stroke-width:1;" x1="236.4658" x2="338.1777" y1="586.6763" y2="586.6763"/><polygon fill="#181818" points="328.1777,582.6763,338.1777,586.6763,328.1777,590.6763,332.1777,586.6763" style="stroke:#181818;stroke-width:1;"/><line style="stroke:#181818;stroke-width:1;" x1="463.8896" x2="463.8896" y1="514.0923" y2="586.6763"/><line style="stroke:#181818;stroke-width:1;" x1="463.8896" x2="362.1777" y1="586.6763" y2="586.6763"/><polygon fill="#181818" points="372.1777,582.6763,362.1777,586.6763,372.1777,590.6763,368.1777,586.6763" style="stroke:#181818;stroke-width:1;"/><line style="stroke:#181818;stroke-width:1;" x1="350.1777" x2="350.1777" y1="275.3506" y2="334.3652"/><polygon fill="#181818" points="346.1777,324.3652,350.1777,334.3652,354.1777,324.3652,350.1777,328.3652" style="stroke:#181818;stroke-width:1;"/><line style="stroke:#181818;stroke-width:1;" x1="129.168" x2="129.168" y1="663.6909" y2="683.6909"/><polygon fill="#181818" points="125.168,673.6909,129.168,683.6909,133.168,673.6909,129.168,677.6909" style="stroke:#181818;stroke-width:1;"/><line style="stroke:#181818;stroke-width:1;" x1="349.5039" x2="349.5039" y1="663.6909" y2="683.6909"/><polygon fill="#181818" points="345.5039,673.6909,349.5039,683.6909,353.5039,673.6909,349.5039,677.6909" style="stroke:#181818;stroke-width:1;"/><line style="stroke:#181818;stroke-width:1;" x1="570.5137" x2="570.5137" y1="663.6909" y2="683.6909"/><polygon fill="#181818" points="566.5137,673.6909,570.5137,683.6909,574.5137,673.6909,570.5137,677.6909" style="stroke:#181818;stroke-width:1;"/><line style="stroke:#181818;stroke-width:1;" x1="129.168" x2="129.168" y1="718.2749" y2="738.2749"/><polygon fill="#181818" points="125.168,728.2749,129.168,738.2749,133.168,728.2749,129.168,732.2749" style="stroke:#181818;stroke-width:1;"/><line style="stroke:#181818;stroke-width:1;" x1="349.5039" x2="349.5039" y1="718.2749" y2="738.2749"/><polygon fill="#181818" points="345.5039,728.2749,349.5039,738.2749,353.5039,728.2749,349.5039,732.2749" style="stroke:#181818;stroke-width:1;"/><line style="stroke:#181818;stroke-width:1;" x1="570.5137" x2="570.5137" y1="718.2749" y2="738.2749"/><polygon fill="#181818" points="566.5137,728.2749,570.5137,738.2749,574.5137,728.2749,570.5137,732.2749" style="stroke:#181818;stroke-width:1;"/><line style="stroke:#181818;stroke-width:1;" x1="350.1777" x2="350.1777" y1="598.6763" y2="657.6909"/><polygon fill="#181818" points="346.1777,647.6909,350.1777,657.6909,354.1777,647.6909,350.1777,651.6909" style="stroke:#181818;stroke-width:1;"/><line style="stroke:#181818;stroke-width:1;" x1="350.1777" x2="350.1777" y1="837.8735" y2="857.8735"/><polygon fill="#181818" points="346.1777,847.8735,350.1777,857.8735,354.1777,847.8735,350.1777,851.8735" style="stroke:#181818;stroke-width:1;"/><line style="stroke:#181818;stroke-width:1;" x1="350.1777" x2="350.1777" y1="744.2749" y2="803.2896"/><polygon fill="#181818" points="346.1777,793.2896,350.1777,803.2896,354.1777,793.2896,350.1777,797.2896" style="stroke:#181818;stroke-width:1;"/><line style="stroke:#181818;stroke-width:1;" x1="350.1777" x2="350.1777" y1="892.4575" y2="924.4575"/><polygon fill="#181818" points="346.1777,914.4575,350.1777,924.4575,354.1777,914.4575,350.1777,918.4575" style="stroke:#181818;stroke-width:1;"/><!--SRC=[bLBBJiCm4BpdArOz9GXLWcChX12zS00L-W6HIJQfLSTh_6WKKFyTsqcJFWu8Iubax-pExEmQoxHD4kN_t7AIC5jhL9eAD6O6FmduitYHFiO4_qOGLDTSrii-yBnbiaOekSR2akx04hIaTnuH7WVK1pQqHs12mCsScRAPXyyJGyK5cX6bI5iOkC6WjRwCZnvErRqxz3GbisnKznMV7Y26KaDE5tWBdqoMjr1qXS1i7Y5frZFn2j8-nxWYS3rcOBSe8UtGP162mY2aalfRECQIwaEov5Ko5Z8xhdAbSS_9cNmeM3bnLJ9A5SHAc41vC6FeFyQz7nPrSF5e0qdHWSGMJg3NwXQwj_YoT3HuUQBxpCiLjJ8gybQDX4-RrUiu-ShFSYB91qpUQgOKwZHWyxl1re05LZCk_ygu_tV6MpOsqMiwwsDDnbwkxCOr3TDXOpKQ9-nnowRj1ggcRJuaIPZmBm00]--></g></svg>