<svg xmlns="http://www.w3.org/2000/svg" xmlns:xlink="http://www.w3.org/1999/xlink" contentStyleType="text/css" data-diagram-type="ACTIVITY" height="2012px" preserveAspectRatio="none" style="width:567px;height:2012px;background:#FFFFFF;" version="1.1" viewBox="0 0 567 2012" width="567px" zoomAndPan="magnify"><defs/><g><ellipse cx="276.7334" cy="20" fill="#222222" rx="10" ry="10" style="stroke:#222222;stroke-width:1;"/><rect fill="#FFFFE0" height="136.2344" style="stroke:#000000;stroke-width:1.5;" width="419.1777" x="67.1445" y="40"/><path d="M154.0625,40 L154.0625,49.2969 L144.0625,59.2969 L67.1445,59.2969" fill="none" style="stroke:#000000;stroke-width:1.5;"/><text fill="#000000" font-family="sans-serif" font-size="14" lengthAdjust="spacing" textLength="76.918" x="70.1445" y="53.9951">Preprocess</text><rect fill="#F1F1F1" height="33.9688" rx="12.5" ry="12.5" style="stroke:#181818;stroke-width:0.5;" width="306.7285" x="123.3691" y="76.2969"/><text fill="#000000" font-family="sans-serif" font-size="12" lengthAdjust="spacing" textLength="286.7285" x="133.3691" y="97.4355">Extract name of ASDM from downloaded tarball</text><rect fill="#F1F1F1" height="33.9688" rx="12.5" ry="12.5" style="stroke:#181818;stroke-width:0.5;" width="399.1777" x="77.1445" y="130.2656"/><text fill="#000000" font-family="sans-serif" font-size="12" lengthAdjust="spacing" textLength="379.1777" x="87.1445" y="151.4043">Create working directory for the ASDM. If exists, remove it first</text><rect fill="#FFFFE0" height="82.2656" style="stroke:#000000;stroke-width:1.5;" width="300.6309" x="126.418" y="186.2344"/><path d="M232.333,186.2344 L232.333,195.5313 L222.333,205.5313 L126.418,205.5313" fill="none" style="stroke:#000000;stroke-width:1.5;"/><text fill="#000000" font-family="sans-serif" font-size="14" lengthAdjust="spacing" textLength="95.915" x="129.418" y="200.2295">Extract ASDM</text><rect fill="#F1F1F1" height="33.9688" rx="12.5" ry="12.5" style="stroke:#181818;stroke-width:0.5;" width="280.6309" x="136.418" y="222.5313"/><text fill="#000000" font-family="sans-serif" font-size="12" lengthAdjust="spacing" textLength="260.6309" x="146.418" y="243.6699">Extract ASDM tarball into working directory</text><rect fill="#FFFFE0" height="1681.3198" style="stroke:#000000;stroke-width:1.5;" width="545.4668" x="11" y="278.5"/><path d="M120.4355,278.5 L120.4355,287.7969 L110.4355,297.7969 L11,297.7969" fill="none" style="stroke:#000000;stroke-width:1.5;"/><text fill="#000000" font-family="sans-serif" font-size="14" lengthAdjust="spacing" textLength="99.4355" x="14" y="292.4951">Process ASDM</text><rect fill="#F1F1F1" height="33.9688" rx="12.5" ry="12.5" style="stroke:#181818;stroke-width:0.5;" width="271.3613" x="141.0527" y="314.7969"/><text fill="#000000" font-family="sans-serif" font-size="12" lengthAdjust="spacing" textLength="251.3613" x="151.0527" y="335.9355">Import ASDM into MS and get field names</text><rect fill="#F1F1F1" height="33.9688" rx="12.5" ry="12.5" style="stroke:#181818;stroke-width:0.5;" width="175.1445" x="189.1611" y="417.168"/><text fill="#000000" font-family="sans-serif" font-size="12" lengthAdjust="spacing" textLength="155.1445" x="199.1611" y="438.3066">Record retain field names</text><polygon fill="#F1F1F1" points="213.3035,368.7656,340.1633,368.7656,352.1633,380.7656,340.1633,392.7656,213.3035,392.7656,201.3035,380.7656,213.3035,368.7656" style="stroke:#181818;stroke-width:0.5;"/><text fill="#000000" font-family="sans-serif" font-size="11" lengthAdjust="spacing" textLength="19.0083" x="280.7334" y="402.9761">yes</text><text fill="#000000" font-family="sans-serif" font-size="11" lengthAdjust="spacing" textLength="126.8599" x="213.3035" y="384.5737">User's target contains?</text><text fill="#000000" font-family="sans-serif" font-size="11" lengthAdjust="spacing" textLength="13.7017" x="352.1633" y="378.1714">no</text><ellipse cx="387.865" cy="380.7656" fill="none" rx="11" ry="11" style="stroke:#222222;stroke-width:1;"/><ellipse cx="387.865" cy="380.7656" fill="#222222" rx="6" ry="6" style="stroke:#222222;stroke-width:1;"/><rect fill="#F1F1F1" height="33.9688" rx="12.5" ry="12.5" style="stroke:#181818;stroke-width:0.5;" width="164.7148" x="194.376" y="471.1367"/><text fill="#000000" font-family="sans-serif" font-size="12" lengthAdjust="spacing" textLength="144.7148" x="204.376" y="492.2754">Create calibration script</text><rect fill="#F1F1F1" height="33.9688" rx="12.5" ry="12.5" style="stroke:#181818;stroke-width:0.5;" width="148.127" x="202.6699" y="525.1055"/><text fill="#000000" font-family="sans-serif" font-size="12" lengthAdjust="spacing" textLength="128.127" x="212.6699" y="546.2441">Run calibration script</text><rect fill="#F1F1F1" height="33.9688" rx="12.5" ry="12.5" style="stroke:#181818;stroke-width:0.5;" width="256.1914" x="148.6377" y="579.0742"/><text fill="#000000" font-family="sans-serif" font-size="12" lengthAdjust="spacing" textLength="236.1914" x="158.6377" y="600.2129">Extract user's target fields into new MS</text><rect fill="#FFE4B5" height="200.2344" style="stroke:#000000;stroke-width:1.5;" width="419.0122" x="54.3264" y="678.7534"/><path d="M121.2083,678.7534 L121.2083,688.0503 L111.2083,698.0503 L54.3264,698.0503" fill="none" style="stroke:#000000;stroke-width:1.5;"/><text fill="#000000" font-family="sans-serif" font-size="14" lengthAdjust="spacing" textLength="56.8818" x="57.3264" y="692.7485">Imaging</text><polygon fill="#F1F1F1" points="191.9641,715.0503,361.5027,715.0503,373.5027,727.0503,361.5027,739.0503,191.9641,739.0503,179.9641,727.0503,191.9641,715.0503" style="stroke:#181818;stroke-width:0.5;"/><text fill="#000000" font-family="sans-serif" font-size="11" lengthAdjust="spacing" textLength="169.5386" x="191.9641" y="730.8584">Required self-calibration later?</text><text fill="#000000" font-family="sans-serif" font-size="11" lengthAdjust="spacing" textLength="19.0083" x="160.9558" y="724.4561">yes</text><text fill="#000000" font-family="sans-serif" font-size="11" lengthAdjust="spacing" textLength="13.7017" x="373.5027" y="724.4561">no</text><rect fill="#F1F1F1" height="33.9688" rx="12.5" ry="12.5" style="stroke:#181818;stroke-width:0.5;" width="191.2754" x="74.3264" y="749.0503"/><text fill="#000000" font-family="sans-serif" font-size="12" lengthAdjust="spacing" textLength="171.2754" x="84.3264" y="770.189">savemodel = 'modelcolumn'</text><rect fill="#F1F1F1" height="33.9688" rx="12.5" ry="12.5" style="stroke:#181818;stroke-width:0.5;" width="139.6719" x="313.6667" y="749.0503"/><text fill="#000000" font-family="sans-serif" font-size="12" lengthAdjust="spacing" textLength="119.6719" x="323.6667" y="770.189">savemodel = 'none'</text><polygon fill="#F1F1F1" points="276.7334,789.019,288.7334,801.019,276.7334,813.019,264.7334,801.019,276.7334,789.019" style="stroke:#181818;stroke-width:0.5;"/><rect fill="#F1F1F1" height="33.9688" rx="12.5" ry="12.5" style="stroke:#181818;stroke-width:0.5;" width="84.3418" x="234.5625" y="833.019"/><text fill="#000000" font-family="sans-serif" font-size="12" lengthAdjust="spacing" textLength="64.3418" x="244.5625" y="854.1577">Run tclean</text><polygon fill="#F1F1F1" points="224.9668,633.043,328.5,633.043,340.5,645.043,328.5,657.043,224.9668,657.043,212.9668,645.043,224.9668,633.043" style="stroke:#181818;stroke-width:0.5;"/><text fill="#000000" font-family="sans-serif" font-size="11" lengthAdjust="spacing" textLength="19.0083" x="280.7334" y="667.2534">yes</text><text fill="#000000" font-family="sans-serif" font-size="11" lengthAdjust="spacing" textLength="103.5332" x="224.9668" y="648.8511">Required imaging?</text><text fill="#000000" font-family="sans-serif" font-size="11" lengthAdjust="spacing" textLength="13.7017" x="340.5" y="642.4487">no</text><polygon fill="#F1F1F1" points="276.7334,898.9878,288.7334,910.9878,276.7334,922.9878,264.7334,910.9878,276.7334,898.9878" style="stroke:#181818;stroke-width:0.5;"/><rect fill="#FFE4B5" height="82.2656" style="stroke:#000000;stroke-width:1.5;" width="310.5957" x="121.4355" y="989.5"/><path d="M422.0313,989.5 L422.0313,998.7969 L412.0313,1008.7969 L121.4355,1008.7969" fill="none" style="stroke:#000000;stroke-width:1.5;"/><text fill="#000000" font-family="sans-serif" font-size="14" lengthAdjust="spacing" textLength="290.5957" x="124.4355" y="1003.4951">Self-calibration and generate 2nd images</text><rect fill="#F1F1F1" height="33.9688" rx="12.5" ry="12.5" style="stroke:#181818;stroke-width:0.5;" width="160.5898" x="196.4385" y="1025.7969"/><text fill="#000000" font-family="sans-serif" font-size="12" lengthAdjust="spacing" textLength="140.5898" x="206.4385" y="1046.9355">Perform self-calibration</text><polygon fill="#F1F1F1" points="206.4124,942.9878,347.0544,942.9878,359.0544,954.9878,347.0544,966.9878,206.4124,966.9878,194.4124,954.9878,206.4124,942.9878" style="stroke:#181818;stroke-width:0.5;"/><text fill="#000000" font-family="sans-serif" font-size="11" lengthAdjust="spacing" textLength="19.0083" x="280.7334" y="977.1982">yes</text><text fill="#000000" font-family="sans-serif" font-size="11" lengthAdjust="spacing" textLength="140.6421" x="206.4124" y="958.7959">Required self-calibration?</text><text fill="#000000" font-family="sans-serif" font-size="11" lengthAdjust="spacing" textLength="13.7017" x="359.0544" y="952.3936">no</text><polygon fill="#F1F1F1" points="276.7334,1091.7656,288.7334,1103.7656,276.7334,1115.7656,264.7334,1103.7656,276.7334,1091.7656" style="stroke:#181818;stroke-width:0.5;"/><rect fill="#FFE4B5" height="228.6367" style="stroke:#000000;stroke-width:1.5;" width="326.3145" x="124.0762" y="1125.7656"/><path d="M287.8301,1125.7656 L287.8301,1135.0625 L277.8301,1145.0625 L124.0762,1145.0625" fill="none" style="stroke:#000000;stroke-width:1.5;"/><text fill="#000000" font-family="sans-serif" font-size="14" lengthAdjust="spacing" textLength="153.7539" x="127.0762" y="1139.7607">Export images to FITS</text><rect fill="#F1F1F1" height="33.9688" rx="12.5" ry="12.5" style="stroke:#181818;stroke-width:0.5;" width="195.8516" x="178.8076" y="1162.0625"/><text fill="#000000" font-family="sans-serif" font-size="12" lengthAdjust="spacing" textLength="175.8516" x="188.8076" y="1183.2012">Export images to FITS format</text><rect fill="#F1F1F1" height="33.9688" rx="12.5" ry="12.5" style="stroke:#181818;stroke-width:0.5;" width="152.9082" x="200.2793" y="1264.4336"/><text fill="#000000" font-family="sans-serif" font-size="12" lengthAdjust="spacing" textLength="132.9082" x="210.2793" y="1285.5723">Remove CASA images</text><polygon fill="#F1F1F1" points="146.0762,1216.0313,407.3906,1216.0313,419.3906,1228.0313,407.3906,1240.0313,146.0762,1240.0313,134.0762,1228.0313,146.0762,1216.0313" style="stroke:#181818;stroke-width:0.5;"/><text fill="#000000" font-family="sans-serif" font-size="11" lengthAdjust="spacing" textLength="19.0083" x="280.7334" y="1250.2417">yes</text><text fill="#000000" font-family="sans-serif" font-size="11" lengthAdjust="spacing" textLength="261.3145" x="146.0762" y="1231.8394">Required to remove CASA images after export?</text><text fill="#000000" font-family="sans-serif" font-size="11" lengthAdjust="spacing" textLength="13.7017" x="419.3906" y="1225.437">no</text><polygon fill="#F1F1F1" points="276.7334,1318.4023,288.7334,1330.4023,276.7334,1342.4023,264.7334,1330.4023,276.7334,1318.4023" style="stroke:#181818;stroke-width:0.5;"/><rect fill="#FFE4B5" height="321.0391" style="stroke:#000000;stroke-width:1.5;" width="525.4668" x="21" y="1364.4023"/><path d="M88.4902,1364.4023 L88.4902,1373.6992 L78.4902,1383.6992 L21,1383.6992" fill="none" style="stroke:#000000;stroke-width:1.5;"/><text fill="#000000" font-family="sans-serif" font-size="14" lengthAdjust="spacing" textLength="57.4902" x="24" y="1378.3975">Cleanup</text><rect fill="#F1F1F1" height="33.9688" rx="12.5" ry="12.5" style="stroke:#181818;stroke-width:0.5;" width="217.6426" x="167.9121" y="1449.1016"/><text fill="#000000" font-family="sans-serif" font-size="12" lengthAdjust="spacing" textLength="197.6426" x="177.9121" y="1470.2402">Remove ASDM working directory</text><polygon fill="#F1F1F1" points="200.9607,1400.6992,352.5061,1400.6992,364.5061,1412.6992,352.5061,1424.6992,200.9607,1424.6992,188.9607,1412.6992,200.9607,1400.6992" style="stroke:#181818;stroke-width:0.5;"/><text fill="#000000" font-family="sans-serif" font-size="11" lengthAdjust="spacing" textLength="19.0083" x="280.7334" y="1434.9097">yes</text><text fill="#000000" font-family="sans-serif" font-size="11" lengthAdjust="spacing" textLength="151.5454" x="200.9607" y="1416.5073">Required to remove ASDM?</text><text fill="#000000" font-family="sans-serif" font-size="11" lengthAdjust="spacing" textLength="13.7017" x="364.5061" y="1410.105">no</text><polygon fill="#F1F1F1" points="276.7334,1503.0703,288.7334,1515.0703,276.7334,1527.0703,264.7334,1515.0703,276.7334,1503.0703" style="stroke:#181818;stroke-width:0.5;"/><rect fill="#F1F1F1" height="33.9688" rx="12.5" ry="12.5" style="stroke:#181818;stroke-width:0.5;" width="487.4668" x="33" y="1595.4727"/><text fill="#000000" font-family="sans-serif" font-size="12" lengthAdjust="spacing" textLength="467.4668" x="43" y="1616.6113">Remove intermediate files. Only keep images dirs, MS and *.py and *.log files</text><polygon fill="#F1F1F1" points="168.718,1547.0703,384.7488,1547.0703,396.7488,1559.0703,384.7488,1571.0703,168.718,1571.0703,156.718,1559.0703,168.718,1547.0703" style="stroke:#181818;stroke-width:0.5;"/><text fill="#000000" font-family="sans-serif" font-size="11" lengthAdjust="spacing" textLength="19.0083" x="280.7334" y="1581.2808">yes</text><text fill="#000000" font-family="sans-serif" font-size="11" lengthAdjust="spacing" textLength="216.0308" x="168.718" y="1562.8784">Required to remove intermediate files?</text><text fill="#000000" font-family="sans-serif" font-size="11" lengthAdjust="spacing" textLength="13.7017" x="396.7488" y="1556.4761">no</text><polygon fill="#F1F1F1" points="276.7334,1649.4414,288.7334,1661.4414,276.7334,1673.4414,264.7334,1661.4414,276.7334,1649.4414" style="stroke:#181818;stroke-width:0.5;"/><rect fill="#FFE4B5" height="252.3784" style="stroke:#000000;stroke-width:1.5;" width="290.4961" x="135.9854" y="1695.4414"/><path d="M248.2646,1695.4414 L248.2646,1704.7383 L238.2646,1714.7383 L135.9854,1714.7383" fill="none" style="stroke:#000000;stroke-width:1.5;"/><text fill="#000000" font-family="sans-serif" font-size="14" lengthAdjust="spacing" textLength="102.2793" x="138.9854" y="1709.4365">Check success</text><rect fill="#F1F1F1" height="33.9688" rx="12.5" ry="12.5" style="stroke:#181818;stroke-width:0.5;" width="193.4961" x="179.9854" y="1835.8511"/><text fill="#000000" font-family="sans-serif" font-size="12" lengthAdjust="spacing" textLength="173.4961" x="189.9854" y="1856.9897">Mark ASDM process as failed</text><polygon fill="#F1F1F1" points="199.1023,1787.4487,354.3645,1787.4487,366.3645,1799.4487,354.3645,1811.4487,199.1023,1811.4487,187.1023,1799.4487,199.1023,1787.4487" style="stroke:#181818;stroke-width:0.5;"/><text fill="#000000" font-family="sans-serif" font-size="11" lengthAdjust="spacing" textLength="19.0083" x="280.7334" y="1821.6592">yes</text><text fill="#000000" font-family="sans-serif" font-size="11" lengthAdjust="spacing" textLength="155.2622" x="199.1023" y="1803.2568">log files contains "SEVERE"?</text><text fill="#000000" font-family="sans-serif" font-size="11" lengthAdjust="spacing" textLength="13.7017" x="366.3645" y="1796.8545">no</text><polygon fill="#F1F1F1" points="276.7334,1889.8198,288.7334,1901.8198,276.7334,1913.8198,264.7334,1901.8198,276.7334,1889.8198" style="stroke:#181818;stroke-width:0.5;"/><polygon fill="#F1F1F1" points="236.324,1731.7383,317.1428,1731.7383,329.1428,1743.7383,317.1428,1755.7383,236.324,1755.7383,224.324,1743.7383,236.324,1731.7383" style="stroke:#181818;stroke-width:0.5;"/><text fill="#000000" font-family="sans-serif" font-size="11" lengthAdjust="spacing" textLength="19.0083" x="280.7334" y="1765.9487">yes</text><text fill="#000000" font-family="sans-serif" font-size="11" lengthAdjust="spacing" textLength="80.8188" x="236.324" y="1747.5464">more log files?</text><ellipse cx="276.7334" cy="1990.8198" fill="none" rx="11" ry="11" style="stroke:#222222;stroke-width:1;"/><ellipse cx="276.7334" cy="1990.8198" fill="#222222" rx="6" ry="6" style="stroke:#222222;stroke-width:1;"/><line style="stroke:#181818;stroke-width:1;" x1="276.7334" x2="276.7334" y1="110.2656" y2="130.2656"/><polygon fill="#181818" points="272.7334,120.2656,276.7334,130.2656,280.7334,120.2656,276.7334,124.2656" style="stroke:#181818;stroke-width:1;"/><line style="stroke:#181818;stroke-width:1;" x1="276.7334" x2="276.7334" y1="30" y2="76.2969"/><polygon fill="#181818" points="272.7334,66.2969,276.7334,76.2969,280.7334,66.2969,276.7334,70.2969" style="stroke:#181818;stroke-width:1;"/><line style="stroke:#181818;stroke-width:1;" x1="276.7334" x2="276.7334" y1="164.2344" y2="222.5313"/><polygon fill="#181818" points="272.7334,212.5313,276.7334,222.5313,280.7334,212.5313,276.7334,216.5313" style="stroke:#181818;stroke-width:1;"/><line style="stroke:#181818;stroke-width:1;" x1="276.7334" x2="276.7334" y1="392.7656" y2="417.168"/><polygon fill="#181818" points="272.7334,407.168,276.7334,417.168,280.7334,407.168,276.7334,411.168" style="stroke:#181818;stroke-width:1;"/><line style="stroke:#181818;stroke-width:1;" x1="352.1633" x2="376.865" y1="380.7656" y2="380.7656"/><polygon fill="#181818" points="366.865,376.7656,376.865,380.7656,366.865,384.7656,370.865,380.7656" style="stroke:#181818;stroke-width:1;"/><line style="stroke:#181818;stroke-width:1;" x1="276.7334" x2="276.7334" y1="451.1367" y2="471.1367"/><polygon fill="#181818" points="272.7334,461.1367,276.7334,471.1367,280.7334,461.1367,276.7334,465.1367" style="stroke:#181818;stroke-width:1;"/><line style="stroke:#181818;stroke-width:1;" x1="276.7334" x2="276.7334" y1="348.7656" y2="368.7656"/><polygon fill="#181818" points="272.7334,358.7656,276.7334,368.7656,280.7334,358.7656,276.7334,362.7656" style="stroke:#181818;stroke-width:1;"/><line style="stroke:#181818;stroke-width:1;" x1="276.7334" x2="276.7334" y1="505.1055" y2="525.1055"/><polygon fill="#181818" points="272.7334,515.1055,276.7334,525.1055,280.7334,515.1055,276.7334,519.1055" style="stroke:#181818;stroke-width:1;"/><line style="stroke:#181818;stroke-width:1;" x1="276.7334" x2="276.7334" y1="559.0742" y2="579.0742"/><polygon fill="#181818" points="272.7334,569.0742,276.7334,579.0742,280.7334,569.0742,276.7334,573.0742" style="stroke:#181818;stroke-width:1;"/><line style="stroke:#181818;stroke-width:1;" x1="179.9641" x2="169.9641" y1="727.0503" y2="727.0503"/><line style="stroke:#181818;stroke-width:1;" x1="169.9641" x2="169.9641" y1="727.0503" y2="749.0503"/><polygon fill="#181818" points="165.9641,739.0503,169.9641,749.0503,173.9641,739.0503,169.9641,743.0503" style="stroke:#181818;stroke-width:1;"/><line style="stroke:#181818;stroke-width:1;" x1="373.5027" x2="383.5027" y1="727.0503" y2="727.0503"/><line style="stroke:#181818;stroke-width:1;" x1="383.5027" x2="383.5027" y1="727.0503" y2="749.0503"/><polygon fill="#181818" points="379.5027,739.0503,383.5027,749.0503,387.5027,739.0503,383.5027,743.0503" style="stroke:#181818;stroke-width:1;"/><line style="stroke:#181818;stroke-width:1;" x1="169.9641" x2="169.9641" y1="783.019" y2="801.019"/><line style="stroke:#181818;stroke-width:1;" x1="169.9641" x2="264.7334" y1="801.019" y2="801.019"/><polygon fill="#181818" points="254.7334,797.019,264.7334,801.019,254.7334,805.019,258.7334,801.019" style="stroke:#181818;stroke-width:1;"/><line style="stroke:#181818;stroke-width:1;" x1="383.5027" x2="383.5027" y1="783.019" y2="801.019"/><line style="stroke:#181818;stroke-width:1;" x1="383.5027" x2="288.7334" y1="801.019" y2="801.019"/><polygon fill="#181818" points="298.7334,797.019,288.7334,801.019,298.7334,805.019,294.7334,801.019" style="stroke:#181818;stroke-width:1;"/><line style="stroke:#181818;stroke-width:1;" x1="276.7334" x2="276.7334" y1="813.019" y2="833.019"/><polygon fill="#181818" points="272.7334,823.019,276.7334,833.019,280.7334,823.019,276.7334,827.019" style="stroke:#181818;stroke-width:1;"/><line style="stroke:#181818;stroke-width:1;" x1="276.7334" x2="276.7334" y1="657.043" y2="715.0503"/><polygon fill="#181818" points="272.7334,705.0503,276.7334,715.0503,280.7334,705.0503,276.7334,709.0503" style="stroke:#181818;stroke-width:1;"/><line style="stroke:#181818;stroke-width:1;" x1="340.5" x2="483.3386" y1="645.043" y2="645.043"/><polygon fill="#181818" points="479.3386,780.3706,483.3386,790.3706,487.3386,780.3706,483.3386,784.3706" style="stroke:#181818;stroke-width:1;"/><line style="stroke:#181818;stroke-width:1;" x1="483.3386" x2="483.3386" y1="645.043" y2="910.9878"/><line style="stroke:#181818;stroke-width:1;" x1="483.3386" x2="288.7334" y1="910.9878" y2="910.9878"/><polygon fill="#181818" points="298.7334,906.9878,288.7334,910.9878,298.7334,914.9878,294.7334,910.9878" style="stroke:#181818;stroke-width:1;"/><line style="stroke:#181818;stroke-width:1;" x1="276.7334" x2="276.7334" y1="866.9878" y2="898.9878"/><polygon fill="#181818" points="272.7334,888.9878,276.7334,898.9878,280.7334,888.9878,276.7334,892.9878" style="stroke:#181818;stroke-width:1;"/><line style="stroke:#181818;stroke-width:1;" x1="276.7334" x2="276.7334" y1="613.043" y2="633.043"/><polygon fill="#181818" points="272.7334,623.043,276.7334,633.043,280.7334,623.043,276.7334,627.043" style="stroke:#181818;stroke-width:1;"/><line style="stroke:#181818;stroke-width:1;" x1="276.7334" x2="276.7334" y1="966.9878" y2="1025.7969"/><polygon fill="#181818" points="272.7334,1015.7969,276.7334,1025.7969,280.7334,1015.7969,276.7334,1019.7969" style="stroke:#181818;stroke-width:1;"/><line style="stroke:#181818;stroke-width:1;" x1="359.0544" x2="442.0313" y1="954.9878" y2="954.9878"/><polygon fill="#181818" points="438.0313,1024.6328,442.0313,1034.6328,446.0313,1024.6328,442.0313,1028.6328" style="stroke:#181818;stroke-width:1;"/><line style="stroke:#181818;stroke-width:1;" x1="442.0313" x2="442.0313" y1="954.9878" y2="1103.7656"/><line style="stroke:#181818;stroke-width:1;" x1="442.0313" x2="288.7334" y1="1103.7656" y2="1103.7656"/><polygon fill="#181818" points="298.7334,1099.7656,288.7334,1103.7656,298.7334,1107.7656,294.7334,1103.7656" style="stroke:#181818;stroke-width:1;"/><line style="stroke:#181818;stroke-width:1;" x1="276.7334" x2="276.7334" y1="1059.7656" y2="1091.7656"/><polygon fill="#181818" points="272.7334,1081.7656,276.7334,1091.7656,280.7334,1081.7656,276.7334,1085.7656" style="stroke:#181818;stroke-width:1;"/><line style="stroke:#181818;stroke-width:1;" x1="276.7334" x2="276.7334" y1="922.9878" y2="942.9878"/><polygon fill="#181818" points="272.7334,932.9878,276.7334,942.9878,280.7334,932.9878,276.7334,936.9878" style="stroke:#181818;stroke-width:1;"/><line style="stroke:#181818;stroke-width:1;" x1="276.7334" x2="276.7334" y1="1240.0313" y2="1264.4336"/><polygon fill="#181818" points="272.7334,1254.4336,276.7334,1264.4336,280.7334,1254.4336,276.7334,1258.4336" style="stroke:#181818;stroke-width:1;"/><line style="stroke:#181818;stroke-width:1;" x1="419.3906" x2="431.3906" y1="1228.0313" y2="1228.0313"/><polygon fill="#181818" points="427.3906,1271.418,431.3906,1281.418,435.3906,1271.418,431.3906,1275.418" style="stroke:#181818;stroke-width:1;"/><line style="stroke:#181818;stroke-width:1;" x1="431.3906" x2="431.3906" y1="1228.0313" y2="1330.4023"/><line style="stroke:#181818;stroke-width:1;" x1="431.3906" x2="288.7334" y1="1330.4023" y2="1330.4023"/><polygon fill="#181818" points="298.7334,1326.4023,288.7334,1330.4023,298.7334,1334.4023,294.7334,1330.4023" style="stroke:#181818;stroke-width:1;"/><line style="stroke:#181818;stroke-width:1;" x1="276.7334" x2="276.7334" y1="1298.4023" y2="1318.4023"/><polygon fill="#181818" points="272.7334,1308.4023,276.7334,1318.4023,280.7334,1308.4023,276.7334,1312.4023" style="stroke:#181818;stroke-width:1;"/><line style="stroke:#181818;stroke-width:1;" x1="276.7334" x2="276.7334" y1="1196.0313" y2="1216.0313"/><polygon fill="#181818" points="272.7334,1206.0313,276.7334,1216.0313,280.7334,1206.0313,276.7334,1210.0313" style="stroke:#181818;stroke-width:1;"/><line style="stroke:#181818;stroke-width:1;" x1="276.7334" x2="276.7334" y1="1115.7656" y2="1162.0625"/><polygon fill="#181818" points="272.7334,1152.0625,276.7334,1162.0625,280.7334,1152.0625,276.7334,1156.0625" style="stroke:#181818;stroke-width:1;"/><line style="stroke:#181818;stroke-width:1;" x1="276.7334" x2="276.7334" y1="1424.6992" y2="1449.1016"/><polygon fill="#181818" points="272.7334,1439.1016,276.7334,1449.1016,280.7334,1439.1016,276.7334,1443.1016" style="stroke:#181818;stroke-width:1;"/><line style="stroke:#181818;stroke-width:1;" x1="364.5061" x2="395.5547" y1="1412.6992" y2="1412.6992"/><polygon fill="#181818" points="391.5547,1456.0859,395.5547,1466.0859,399.5547,1456.0859,395.5547,1460.0859" style="stroke:#181818;stroke-width:1;"/><line style="stroke:#181818;stroke-width:1;" x1="395.5547" x2="395.5547" y1="1412.6992" y2="1515.0703"/><line style="stroke:#181818;stroke-width:1;" x1="395.5547" x2="288.7334" y1="1515.0703" y2="1515.0703"/><polygon fill="#181818" points="298.7334,1511.0703,288.7334,1515.0703,298.7334,1519.0703,294.7334,1515.0703" style="stroke:#181818;stroke-width:1;"/><line style="stroke:#181818;stroke-width:1;" x1="276.7334" x2="276.7334" y1="1483.0703" y2="1503.0703"/><polygon fill="#181818" points="272.7334,1493.0703,276.7334,1503.0703,280.7334,1493.0703,276.7334,1497.0703" style="stroke:#181818;stroke-width:1;"/><line style="stroke:#181818;stroke-width:1;" x1="276.7334" x2="276.7334" y1="1571.0703" y2="1595.4727"/><polygon fill="#181818" points="272.7334,1585.4727,276.7334,1595.4727,280.7334,1585.4727,276.7334,1589.4727" style="stroke:#181818;stroke-width:1;"/><line style="stroke:#181818;stroke-width:1;" x1="396.7488" x2="530.4668" y1="1559.0703" y2="1559.0703"/><polygon fill="#181818" points="526.4668,1602.457,530.4668,1612.457,534.4668,1602.457,530.4668,1606.457" style="stroke:#181818;stroke-width:1;"/><line style="stroke:#181818;stroke-width:1;" x1="530.4668" x2="530.4668" y1="1559.0703" y2="1661.4414"/><line style="stroke:#181818;stroke-width:1;" x1="530.4668" x2="288.7334" y1="1661.4414" y2="1661.4414"/><polygon fill="#181818" points="298.7334,1657.4414,288.7334,1661.4414,298.7334,1665.4414,294.7334,1661.4414" style="stroke:#181818;stroke-width:1;"/><line style="stroke:#181818;stroke-width:1;" x1="276.7334" x2="276.7334" y1="1629.4414" y2="1649.4414"/><polygon fill="#181818" points="272.7334,1639.4414,276.7334,1649.4414,280.7334,1639.4414,276.7334,1643.4414" style="stroke:#181818;stroke-width:1;"/><line style="stroke:#181818;stroke-width:1;" x1="276.7334" x2="276.7334" y1="1527.0703" y2="1547.0703"/><polygon fill="#181818" points="272.7334,1537.0703,276.7334,1547.0703,280.7334,1537.0703,276.7334,1541.0703" style="stroke:#181818;stroke-width:1;"/><line style="stroke:#181818;stroke-width:1;" x1="276.7334" x2="276.7334" y1="1342.4023" y2="1400.6992"/><polygon fill="#181818" points="272.7334,1390.6992,276.7334,1400.6992,280.7334,1390.6992,276.7334,1394.6992" style="stroke:#181818;stroke-width:1;"/><line style="stroke:#181818;stroke-width:1;" x1="276.7334" x2="276.7334" y1="1811.4487" y2="1835.8511"/><polygon fill="#181818" points="272.7334,1825.8511,276.7334,1835.8511,280.7334,1825.8511,276.7334,1829.8511" style="stroke:#181818;stroke-width:1;"/><line style="stroke:#181818;stroke-width:1;" x1="366.3645" x2="383.4814" y1="1799.4487" y2="1799.4487"/><polygon fill="#181818" points="379.4814,1842.8354,383.4814,1852.8354,387.4814,1842.8354,383.4814,1846.8354" style="stroke:#181818;stroke-width:1;"/><line style="stroke:#181818;stroke-width:1;" x1="383.4814" x2="383.4814" y1="1799.4487" y2="1901.8198"/><line style="stroke:#181818;stroke-width:1;" x1="383.4814" x2="288.7334" y1="1901.8198" y2="1901.8198"/><polygon fill="#181818" points="298.7334,1897.8198,288.7334,1901.8198,298.7334,1905.8198,294.7334,1901.8198" style="stroke:#181818;stroke-width:1;"/><line style="stroke:#181818;stroke-width:1;" x1="276.7334" x2="276.7334" y1="1869.8198" y2="1889.8198"/><polygon fill="#181818" points="272.7334,1879.8198,276.7334,1889.8198,280.7334,1879.8198,276.7334,1883.8198" style="stroke:#181818;stroke-width:1;"/><line style="stroke:#181818;stroke-width:1;" x1="276.7334" x2="276.7334" y1="1755.7383" y2="1787.4487"/><polygon fill="#181818" points="272.7334,1777.4487,276.7334,1787.4487,280.7334,1777.4487,276.7334,1781.4487" style="stroke:#181818;stroke-width:1;"/><line style="stroke:#181818;stroke-width:1;" x1="276.7334" x2="276.7334" y1="1913.8198" y2="1923.8198"/><line style="stroke:#181818;stroke-width:1;" x1="276.7334" x2="407.4814" y1="1923.8198" y2="1923.8198"/><polygon fill="#181818" points="403.4814,1844.4331,407.4814,1834.4331,411.4814,1844.4331,407.4814,1840.4331" style="stroke:#181818;stroke-width:1;"/><line style="stroke:#181818;stroke-width:1;" x1="407.4814" x2="407.4814" y1="1743.7383" y2="1923.8198"/><line style="stroke:#181818;stroke-width:1;" x1="407.4814" x2="329.1428" y1="1743.7383" y2="1743.7383"/><polygon fill="#181818" points="339.1428,1739.7383,329.1428,1743.7383,339.1428,1747.7383,335.1428,1743.7383" style="stroke:#181818;stroke-width:1;"/><line style="stroke:#181818;stroke-width:1;" x1="224.324" x2="157.9854" y1="1743.7383" y2="1743.7383"/><polygon fill="#181818" points="153.9854,1830.4331,157.9854,1840.4331,161.9854,1830.4331,157.9854,1834.4331" style="stroke:#181818;stroke-width:1;"/><line style="stroke:#181818;stroke-width:1;" x1="157.9854" x2="157.9854" y1="1743.7383" y2="1935.8198"/><line style="stroke:#181818;stroke-width:1;" x1="157.9854" x2="276.7334" y1="1935.8198" y2="1935.8198"/><line style="stroke:#181818;stroke-width:1;" x1="276.7334" x2="276.7334" y1="1935.8198" y2="1979.8198"/><polygon fill="#181818" points="272.7334,1969.8198,276.7334,1979.8198,280.7334,1969.8198,276.7334,1973.8198" style="stroke:#181818;stroke-width:1;"/><line style="stroke:#181818;stroke-width:1;" x1="276.7334" x2="276.7334" y1="1673.4414" y2="1731.7383"/><polygon fill="#181818" points="272.7334,1721.7383,276.7334,1731.7383,280.7334,1721.7383,276.7334,1725.7383" style="stroke:#181818;stroke-width:1;"/><line style="stroke:#181818;stroke-width:1;" x1="276.7334" x2="276.7334" y1="256.5" y2="314.7969"/><polygon fill="#181818" points="272.7334,304.7969,276.7334,314.7969,280.7334,304.7969,276.7334,308.7969" style="stroke:#181818;stroke-width:1;"/><!--SRC=[dLLDZzem4BtpAqRq05kr77e4LHMYL48gAeAsKezUUm8MZftQPbcquhztx8I4aB1PbGC2PJxUUpFpuZoplfVHb_JIQEYlB6RMS7Ik3- - -o-tE_q6bp15UUa2VyVpPMyOzQ9OYc0IccwzBIAn9GPYZLeO954157vbIapnbPf5vXAEnUwct8AH5xeqzGM8i-1t66YDO983Fqddt0IocvWb1UaYaTNxIErz3l408QQ-3ZE0AC22rDqqGDxLNEVTNQY_IpDYYT2ovt03J0hOOqA8IKHgNSvS937yvj0CNO8GGRhHdKhil3u6wXk49tKECZTNNo8qL9408QjP3vH26sbGPpfiiVwI5J6g2SwRaesMHcEDMPhuOoFgWMn_MnJlKS4SeBcUiyKYiY_X0SOr_3oIe09coBSdRJkvAvaKUHmel3UVC4TUNCgvHrQ5AFbu3LaJFjZSfbNJiYRP8e8BFC8W_k567L0ycjTYcekqLjD5ucregNesFbFLS8TDLwBbbSdbghvDffv2RMsdoLTHemmPyqlb8qDrNUhn2IuUODdg_cK7jDEDnv3s1LkNRukUclVUuDJPuGifyrRic3mKLrZ2RRgQNL9RGDf1tX7Btbu9EwpQpwjBSWcguvmRBMHZm8MldTGTmy8jkSD5LMZog2sTNTpfRj2aA6ROYaGfTDvPcpWX-Q7M2FM9sqPumabyN5lX-b9sA7yfiyvp_rdY7V0_km8jNKOlInnqrW65gB4BPZtX9ry8g25C6bIvC1pJ_FL_F-nrcicHsdm-dU3a2Sv0mgYNUOYTrfw1_4Nh1_DmB7luF]--></g></svg>