<svg xmlns="http://www.w3.org/2000/svg" xmlns:xlink="http://www.w3.org/1999/xlink" contentStyleType="text/css" data-diagram-type="ACTIVITY" height="854px" preserveAspectRatio="none" style="width:243px;height:854px;background:#FFFFFF;" version="1.1" viewBox="0 0 243 854" width="243px" zoomAndPan="magnify"><defs/><g><ellipse cx="118.3369" cy="20" fill="#222222" rx="10" ry="10" style="stroke:#222222;stroke-width:1;"/><rect fill="#FFFFE0" height="302.6055" style="stroke:#000000;stroke-width:1.5;" width="215.5723" x="16.5508" y="40"/><path d="M141.9141,40 L141.9141,49.2969 L131.9141,59.2969 L16.5508,59.2969" fill="none" style="stroke:#000000;stroke-width:1.5;"/><text fill="#000000" font-family="sans-serif" font-size="14" lengthAdjust="spacing" textLength="115.3633" x="19.5508" y="53.9951">Download ASDM</text><rect fill="#F1F1F1" height="33.9688" rx="12.5" ry="12.5" style="stroke:#181818;stroke-width:0.5;" width="173.252" x="31.7109" y="76.2969"/><text fill="#000000" font-family="sans-serif" font-size="12" lengthAdjust="spacing" textLength="153.252" x="41.7109" y="97.4355">filename = download(url)</text><rect fill="#F1F1F1" height="33.9688" rx="12.5" ry="12.5" style="stroke:#181818;stroke-width:0.5;" width="102.3008" x="67.1865" y="178.668"/><text fill="#000000" font-family="sans-serif" font-size="12" lengthAdjust="spacing" textLength="82.3008" x="77.1865" y="199.8066">Report failure</text><rect fill="#F1F1F1" height="33.9688" rx="12.5" ry="12.5" style="stroke:#181818;stroke-width:0.5;" width="163.5723" x="36.5508" y="232.6367"/><text fill="#000000" font-family="sans-serif" font-size="12" lengthAdjust="spacing" textLength="143.5723" x="46.5508" y="253.7754">Remove files if required</text><ellipse cx="118.3369" cy="297.6055" fill="none" rx="11" ry="11" style="stroke:#222222;stroke-width:1;"/><ellipse cx="118.3369" cy="297.6055" fill="#222222" rx="6" ry="6" style="stroke:#222222;stroke-width:1;"/><polygon fill="#F1F1F1" points="80.5244,130.2656,156.1494,130.2656,168.1494,142.2656,156.1494,154.2656,80.5244,154.2656,68.5244,142.2656,80.5244,130.2656" style="stroke:#181818;stroke-width:0.5;"/><text fill="#000000" font-family="sans-serif" font-size="11" lengthAdjust="spacing" textLength="13.7017" x="122.3369" y="164.4761">no</text><text fill="#000000" font-family="sans-serif" font-size="11" lengthAdjust="spacing" textLength="75.625" x="80.5244" y="146.0737">download ok?</text><text fill="#000000" font-family="sans-serif" font-size="11" lengthAdjust="spacing" textLength="19.0083" x="168.1494" y="139.6714">yes</text><rect fill="#FFFFE0" height="302.6055" style="stroke:#000000;stroke-width:1.5;" width="215.5723" x="16.5508" y="352.6055"/><path d="M125.9863,352.6055 L125.9863,361.9023 L115.9863,371.9023 L16.5508,371.9023" fill="none" style="stroke:#000000;stroke-width:1.5;"/><text fill="#000000" font-family="sans-serif" font-size="14" lengthAdjust="spacing" textLength="99.4355" x="19.5508" y="366.6006">Process ASDM</text><rect fill="#F1F1F1" height="33.9688" rx="12.5" ry="12.5" style="stroke:#181818;stroke-width:0.5;" width="134.0469" x="51.3135" y="388.9023"/><text fill="#000000" font-family="sans-serif" font-size="12" lengthAdjust="spacing" textLength="114.0469" x="61.3135" y="410.041">_process(filename)</text><rect fill="#F1F1F1" height="33.9688" rx="12.5" ry="12.5" style="stroke:#181818;stroke-width:0.5;" width="102.3008" x="67.1865" y="491.2734"/><text fill="#000000" font-family="sans-serif" font-size="12" lengthAdjust="spacing" textLength="82.3008" x="77.1865" y="512.4121">Report failure</text><rect fill="#F1F1F1" height="33.9688" rx="12.5" ry="12.5" style="stroke:#181818;stroke-width:0.5;" width="163.5723" x="36.5508" y="545.2422"/><text fill="#000000" font-family="sans-serif" font-size="12" lengthAdjust="spacing" textLength="143.5723" x="46.5508" y="566.3809">Remove files if required</text><ellipse cx="118.3369" cy="610.2109" fill="none" rx="11" ry="11" style="stroke:#222222;stroke-width:1;"/><ellipse cx="118.3369" cy="610.2109" fill="#222222" rx="6" ry="6" style="stroke:#222222;stroke-width:1;"/><polygon fill="#F1F1F1" points="85.8633,442.8711,150.8105,442.8711,162.8105,454.8711,150.8105,466.8711,85.8633,466.8711,73.8633,454.8711,85.8633,442.8711" style="stroke:#181818;stroke-width:0.5;"/><text fill="#000000" font-family="sans-serif" font-size="11" lengthAdjust="spacing" textLength="13.7017" x="122.3369" y="477.0815">no</text><text fill="#000000" font-family="sans-serif" font-size="11" lengthAdjust="spacing" textLength="64.9473" x="85.8633" y="458.6792">process ok?</text><text fill="#000000" font-family="sans-serif" font-size="11" lengthAdjust="spacing" textLength="19.0083" x="162.8105" y="452.2769">yes</text><rect fill="#FFFFE0" height="136.2344" style="stroke:#000000;stroke-width:1.5;" width="214.6738" x="11" y="665.2109"/><path d="M68.0381,665.2109 L68.0381,674.5078 L58.0381,684.5078 L11,684.5078" fill="none" style="stroke:#000000;stroke-width:1.5;"/><text fill="#000000" font-family="sans-serif" font-size="14" lengthAdjust="spacing" textLength="47.0381" x="14" y="679.2061">Report</text><rect fill="#F1F1F1" height="33.9688" rx="12.5" ry="12.5" style="stroke:#181818;stroke-width:0.5;" width="111.0723" x="62.8008" y="701.5078"/><text fill="#000000" font-family="sans-serif" font-size="12" lengthAdjust="spacing" textLength="91.0723" x="72.8008" y="722.6465">Report success</text><rect fill="#F1F1F1" height="33.9688" rx="12.5" ry="12.5" style="stroke:#181818;stroke-width:0.5;" width="194.6738" x="21" y="755.4766"/><text fill="#000000" font-family="sans-serif" font-size="12" lengthAdjust="spacing" textLength="174.6738" x="31" y="776.6152">Write to successful ASDM list</text><ellipse cx="118.3369" cy="832.4453" fill="none" rx="11" ry="11" style="stroke:#222222;stroke-width:1;"/><ellipse cx="118.3369" cy="832.4453" fill="#222222" rx="6" ry="6" style="stroke:#222222;stroke-width:1;"/><line style="stroke:#181818;stroke-width:1;" x1="118.3369" x2="118.3369" y1="212.6367" y2="232.6367"/><polygon fill="#181818" points="114.3369,222.6367,118.3369,232.6367,122.3369,222.6367,118.3369,226.6367" style="stroke:#181818;stroke-width:1;"/><line style="stroke:#181818;stroke-width:1;" x1="118.3369" x2="118.3369" y1="266.6055" y2="286.6055"/><polygon fill="#181818" points="114.3369,276.6055,118.3369,286.6055,122.3369,276.6055,118.3369,280.6055" style="stroke:#181818;stroke-width:1;"/><line style="stroke:#181818;stroke-width:1;" x1="118.3369" x2="118.3369" y1="154.2656" y2="178.668"/><polygon fill="#181818" points="114.3369,168.668,118.3369,178.668,122.3369,168.668,118.3369,172.668" style="stroke:#181818;stroke-width:1;"/><line style="stroke:#181818;stroke-width:1;" x1="168.1494" x2="210.123" y1="142.2656" y2="142.2656"/><polygon fill="#181818" points="206.123,230.6367,210.123,240.6367,214.123,230.6367,210.123,234.6367" style="stroke:#181818;stroke-width:1;"/><line style="stroke:#181818;stroke-width:1;" x1="210.123" x2="210.123" y1="142.2656" y2="330.6055"/><line style="stroke:#181818;stroke-width:1;" x1="210.123" x2="118.3369" y1="330.6055" y2="330.6055"/><line style="stroke:#181818;stroke-width:1;" x1="118.3369" x2="118.3369" y1="330.6055" y2="388.9023"/><polygon fill="#181818" points="114.3369,378.9023,118.3369,388.9023,122.3369,378.9023,118.3369,382.9023" style="stroke:#181818;stroke-width:1;"/><line style="stroke:#181818;stroke-width:1;" x1="118.3369" x2="118.3369" y1="110.2656" y2="130.2656"/><polygon fill="#181818" points="114.3369,120.2656,118.3369,130.2656,122.3369,120.2656,118.3369,124.2656" style="stroke:#181818;stroke-width:1;"/><line style="stroke:#181818;stroke-width:1;" x1="118.3369" x2="118.3369" y1="30" y2="76.2969"/><polygon fill="#181818" points="114.3369,66.2969,118.3369,76.2969,122.3369,66.2969,118.3369,70.2969" style="stroke:#181818;stroke-width:1;"/><line style="stroke:#181818;stroke-width:1;" x1="118.3369" x2="118.3369" y1="525.2422" y2="545.2422"/><polygon fill="#181818" points="114.3369,535.2422,118.3369,545.2422,122.3369,535.2422,118.3369,539.2422" style="stroke:#181818;stroke-width:1;"/><line style="stroke:#181818;stroke-width:1;" x1="118.3369" x2="118.3369" y1="579.2109" y2="599.2109"/><polygon fill="#181818" points="114.3369,589.2109,118.3369,599.2109,122.3369,589.2109,118.3369,593.2109" style="stroke:#181818;stroke-width:1;"/><line style="stroke:#181818;stroke-width:1;" x1="118.3369" x2="118.3369" y1="466.8711" y2="491.2734"/><polygon fill="#181818" points="114.3369,481.2734,118.3369,491.2734,122.3369,481.2734,118.3369,485.2734" style="stroke:#181818;stroke-width:1;"/><line style="stroke:#181818;stroke-width:1;" x1="162.8105" x2="210.123" y1="454.8711" y2="454.8711"/><polygon fill="#181818" points="206.123,543.2422,210.123,553.2422,214.123,543.2422,210.123,547.2422" style="stroke:#181818;stroke-width:1;"/><line style="stroke:#181818;stroke-width:1;" x1="210.123" x2="210.123" y1="454.8711" y2="643.2109"/><line style="stroke:#181818;stroke-width:1;" x1="210.123" x2="118.3369" y1="643.2109" y2="643.2109"/><line style="stroke:#181818;stroke-width:1;" x1="118.3369" x2="118.3369" y1="643.2109" y2="701.5078"/><polygon fill="#181818" points="114.3369,691.5078,118.3369,701.5078,122.3369,691.5078,118.3369,695.5078" style="stroke:#181818;stroke-width:1;"/><line style="stroke:#181818;stroke-width:1;" x1="118.3369" x2="118.3369" y1="422.8711" y2="442.8711"/><polygon fill="#181818" points="114.3369,432.8711,118.3369,442.8711,122.3369,432.8711,118.3369,436.8711" style="stroke:#181818;stroke-width:1;"/><line style="stroke:#181818;stroke-width:1;" x1="118.3369" x2="118.3369" y1="735.4766" y2="755.4766"/><polygon fill="#181818" points="114.3369,745.4766,118.3369,755.4766,122.3369,745.4766,118.3369,749.4766" style="stroke:#181818;stroke-width:1;"/><line style="stroke:#181818;stroke-width:1;" x1="118.3369" x2="118.3369" y1="789.4453" y2="821.4453"/><polygon fill="#181818" points="114.3369,811.4453,118.3369,821.4453,122.3369,811.4453,118.3369,815.4453" style="stroke:#181818;stroke-width:1;"/><!--SRC=[nP11QyCm38Nl-HMYlJX_eQ6CGOyTZEqmUYgXaLTHrSeikQMC_VSbSS9o6BtM1uFr7j_JireThMYxYumam68Zry1ID_3yldbPm79BdqVR8RDSuRk0xgmyCORwZB26PdIx5Bci1fayk6aCSdegmOuOmDrGoy60h0WkI7uDn3Ti9HhucZX5hER2MIu8VQBsv8XVYI8sVnOrQJCsDEIBdtcNroW7LBrJPTzcYviwpKgCqeCxPEp_su-HcWxzefct-eXa22RJs2SUFW2OrAeENlHnlm00]--></g></svg>