<svg xmlns="http://www.w3.org/2000/svg" xmlns:xlink="http://www.w3.org/1999/xlink" contentStyleType="text/css" data-diagram-type="ACTIVITY" height="947px" preserveAspectRatio="none" style="width:682px;height:947px;background:#FFFFFF;" version="1.1" viewBox="0 0 682 947" width="682px" zoomAndPan="magnify"><defs/><g><ellipse cx="341.3418" cy="20" fill="#222222" rx="10" ry="10" style="stroke:#222222;stroke-width:1;"/><rect fill="#FFFFE0" height="244.1719" style="stroke:#000000;stroke-width:1.5;" width="232.1348" x="225.2744" y="40"/><path d="M312.1924,40 L312.1924,49.2969 L302.1924,59.2969 L225.2744,59.2969" fill="none" style="stroke:#000000;stroke-width:1.5;"/><text fill="#000000" font-family="sans-serif" font-size="14" lengthAdjust="spacing" textLength="76.918" x="228.2744" y="53.9951">Preprocess</text><rect fill="#F1F1F1" height="33.9688" rx="12.5" ry="12.5" style="stroke:#181818;stroke-width:0.5;" width="118.502" x="282.0908" y="76.2969"/><text fill="#000000" font-family="sans-serif" font-size="12" lengthAdjust="spacing" textLength="98.502" x="292.0908" y="97.4355">Initialize logging</text><rect fill="#F1F1F1" height="33.9688" rx="12.5" ry="12.5" style="stroke:#181818;stroke-width:0.5;" width="210.6758" x="236.0039" y="130.2656"/><text fill="#000000" font-family="sans-serif" font-size="12" lengthAdjust="spacing" textLength="190.6758" x="246.0039" y="151.4043">Change directory to working dir</text><rect fill="#F1F1F1" height="33.9688" rx="12.5" ry="12.5" style="stroke:#181818;stroke-width:0.5;" width="212.1348" x="235.2744" y="184.2344"/><text fill="#000000" font-family="sans-serif" font-size="12" lengthAdjust="spacing" textLength="192.1348" x="245.2744" y="205.373">Remove all *.asdm.sdm.tar files</text><rect fill="#F1F1F1" height="33.9688" rx="12.5" ry="12.5" style="stroke:#181818;stroke-width:0.5;" width="162.1777" x="260.2529" y="238.2031"/><text fill="#000000" font-family="sans-serif" font-size="12" lengthAdjust="spacing" textLength="142.1777" x="270.2529" y="259.3418">Report process settings</text><rect fill="#FFFFE0" height="309.9136" style="stroke:#000000;stroke-width:1.5;" width="473.7637" x="100.521" y="294.1719"/><path d="M189.0522,294.1719 L189.0522,303.4688 L179.0522,313.4688 L100.521,313.4688" fill="none" style="stroke:#000000;stroke-width:1.5;"/><text fill="#000000" font-family="sans-serif" font-size="14" lengthAdjust="spacing" textLength="78.5313" x="103.521" y="308.167">Query data</text><rect fill="#F1F1F1" height="33.9688" rx="12.5" ry="12.5" style="stroke:#181818;stroke-width:0.5;" width="282.5527" x="200.0654" y="330.4688"/><text fill="#000000" font-family="sans-serif" font-size="12" lengthAdjust="spacing" textLength="262.5527" x="210.0654" y="351.6074">query = Query(source, band, cycle).query()</text><polygon fill="#F1F1F1" points="299.2834,384.4375,383.4001,384.4375,395.4001,396.4375,383.4001,408.4375,299.2834,408.4375,287.2834,396.4375,299.2834,384.4375" style="stroke:#181818;stroke-width:0.5;"/><text fill="#000000" font-family="sans-serif" font-size="11" lengthAdjust="spacing" textLength="19.0083" x="345.3418" y="418.6479">yes</text><text fill="#000000" font-family="sans-serif" font-size="11" lengthAdjust="spacing" textLength="84.1167" x="299.2834" y="400.2456">query success?</text><text fill="#000000" font-family="sans-serif" font-size="11" lengthAdjust="spacing" textLength="13.7017" x="395.4001" y="393.8433">no</text><ellipse cx="431.1018" cy="396.4375" fill="none" rx="11" ry="11" style="stroke:#222222;stroke-width:1;"/><ellipse cx="431.1018" cy="396.4375" fill="#222222" rx="6" ry="6" style="stroke:#222222;stroke-width:1;"/><polygon fill="#F1F1F1" points="272.6724,440.1479,410.0112,440.1479,422.0112,452.1479,410.0112,464.1479,272.6724,464.1479,260.6724,452.1479,272.6724,440.1479" style="stroke:#181818;stroke-width:0.5;"/><text fill="#000000" font-family="sans-serif" font-size="11" lengthAdjust="spacing" textLength="137.3389" x="272.6724" y="455.9561">skip_previous_successful</text><text fill="#000000" font-family="sans-serif" font-size="11" lengthAdjust="spacing" textLength="19.0083" x="241.6641" y="449.5537">yes</text><text fill="#000000" font-family="sans-serif" font-size="11" lengthAdjust="spacing" textLength="13.7017" x="422.0112" y="449.5537">no</text><rect fill="#F1F1F1" height="33.9688" rx="12.5" ry="12.5" style="stroke:#181818;stroke-width:0.5;" width="156.7285" x="149.5366" y="474.1479"/><text fill="#000000" font-family="sans-serif" font-size="12" lengthAdjust="spacing" textLength="136.7285" x="159.5366" y="495.2866">load successful_asdms</text><rect fill="#F1F1F1" height="33.9688" rx="12.5" ry="12.5" style="stroke:#181818;stroke-width:0.5;" width="214.7598" x="120.521" y="528.1167"/><text fill="#000000" font-family="sans-serif" font-size="12" lengthAdjust="spacing" textLength="194.7598" x="130.521" y="549.2554">filter to process only new asdms</text><rect fill="#F1F1F1" height="33.9688" rx="12.5" ry="12.5" style="stroke:#181818;stroke-width:0.5;" width="199.0039" x="355.2808" y="474.1479"/><text fill="#000000" font-family="sans-serif" font-size="12" lengthAdjust="spacing" textLength="179.0039" x="365.2808" y="495.2866">remove successful_asdms file</text><polygon fill="#F1F1F1" points="341.3418,568.0854,353.3418,580.0854,341.3418,592.0854,329.3418,580.0854,341.3418,568.0854" style="stroke:#181818;stroke-width:0.5;"/><rect fill="#FFFFE0" height="134.2656" style="stroke:#000000;stroke-width:1.5;" width="660.6836" x="11" y="614.0854"/><path d="M233.0029,614.0854 L233.0029,623.3823 L223.0029,633.3823 L11,633.3823" fill="none" style="stroke:#000000;stroke-width:1.5;"/><text fill="#000000" font-family="sans-serif" font-size="14" lengthAdjust="spacing" textLength="212.0029" x="14" y="628.0806">Download and process ASDMs</text><rect fill="#555555" height="6" rx="2.5" ry="2.5" style="stroke:#555555;stroke-width:1;" width="640.6836" x="21" y="650.3823"/><rect fill="#F1F1F1" height="33.9688" rx="12.5" ry="12.5" style="stroke:#181818;stroke-width:0.5;" width="186.4473" x="33" y="676.3823"/><text fill="#000000" font-family="sans-serif" font-size="12" lengthAdjust="spacing" textLength="166.4473" x="43" y="697.521">_process_wrapper(ASDM_1)</text><rect fill="#F1F1F1" height="33.9688" rx="12.5" ry="12.5" style="stroke:#181818;stroke-width:0.5;" width="186.4473" x="247.4473" y="676.3823"/><text fill="#000000" font-family="sans-serif" font-size="12" lengthAdjust="spacing" textLength="166.4473" x="257.4473" y="697.521">_process_wrapper(ASDM_2)</text><rect fill="#F1F1F1" height="33.9688" rx="12.5" ry="12.5" style="stroke:#181818;stroke-width:0.5;" width="187.7891" x="461.8945" y="676.3823"/><text fill="#000000" font-family="sans-serif" font-size="12" lengthAdjust="spacing" textLength="167.7891" x="471.8945" y="697.521">_process_wrapper(ASDM_N)</text><rect fill="#555555" height="6" rx="2.5" ry="2.5" style="stroke:#555555;stroke-width:1;" width="640.6836" x="21" y="730.3511"/><rect fill="#FFFFE0" height="136.2344" style="stroke:#000000;stroke-width:1.5;" width="169.5918" x="256.5459" y="758.3511"/><path d="M350.4434,758.3511 L350.4434,767.6479 L340.4434,777.6479 L256.5459,777.6479" fill="none" style="stroke:#000000;stroke-width:1.5;"/><text fill="#000000" font-family="sans-serif" font-size="14" lengthAdjust="spacing" textLength="83.8975" x="259.5459" y="772.3462">Postprocess</text><rect fill="#F1F1F1" height="33.9688" rx="12.5" ry="12.5" style="stroke:#181818;stroke-width:0.5;" width="132.1836" x="275.25" y="794.6479"/><text fill="#000000" font-family="sans-serif" font-size="12" lengthAdjust="spacing" textLength="112.1836" x="285.25" y="815.7866">Summarize results</text><rect fill="#F1F1F1" height="33.9688" rx="12.5" ry="12.5" style="stroke:#181818;stroke-width:0.5;" width="149.5918" x="266.5459" y="848.6167"/><text fill="#000000" font-family="sans-serif" font-size="12" lengthAdjust="spacing" textLength="129.5918" x="276.5459" y="869.7554">Preprocess of logging</text><ellipse cx="341.3418" cy="925.5854" fill="none" rx="11" ry="11" style="stroke:#222222;stroke-width:1;"/><ellipse cx="341.3418" cy="925.5854" fill="#222222" rx="6" ry="6" style="stroke:#222222;stroke-width:1;"/><line style="stroke:#181818;stroke-width:1;" x1="341.3418" x2="341.3418" y1="110.2656" y2="130.2656"/><polygon fill="#181818" points="337.3418,120.2656,341.3418,130.2656,345.3418,120.2656,341.3418,124.2656" style="stroke:#181818;stroke-width:1;"/><line style="stroke:#181818;stroke-width:1;" x1="341.3418" x2="341.3418" y1="164.2344" y2="184.2344"/><polygon fill="#181818" points="337.3418,174.2344,341.3418,184.2344,345.3418,174.2344,341.3418,178.2344" style="stroke:#181818;stroke-width:1;"/><line style="stroke:#181818;stroke-width:1;" x1="341.3418" x2="341.3418" y1="218.2031" y2="238.2031"/><polygon fill="#181818" points="337.3418,228.2031,341.3418,238.2031,345.3418,228.2031,341.3418,232.2031" style="stroke:#181818;stroke-width:1;"/><line style="stroke:#181818;stroke-width:1;" x1="341.3418" x2="341.3418" y1="30" y2="76.2969"/><polygon fill="#181818" points="337.3418,66.2969,341.3418,76.2969,345.3418,66.2969,341.3418,70.2969" style="stroke:#181818;stroke-width:1;"/><line style="stroke:#181818;stroke-width:1;" x1="341.3418" x2="341.3418" y1="408.4375" y2="440.1479"/><polygon fill="#181818" points="337.3418,430.1479,341.3418,440.1479,345.3418,430.1479,341.3418,434.1479" style="stroke:#181818;stroke-width:1;"/><line style="stroke:#181818;stroke-width:1;" x1="395.4001" x2="420.1018" y1="396.4375" y2="396.4375"/><polygon fill="#181818" points="410.1018,392.4375,420.1018,396.4375,410.1018,400.4375,414.1018,396.4375" style="stroke:#181818;stroke-width:1;"/><line style="stroke:#181818;stroke-width:1;" x1="341.3418" x2="341.3418" y1="364.4375" y2="384.4375"/><polygon fill="#181818" points="337.3418,374.4375,341.3418,384.4375,345.3418,374.4375,341.3418,378.4375" style="stroke:#181818;stroke-width:1;"/><line style="stroke:#181818;stroke-width:1;" x1="227.9009" x2="227.9009" y1="508.1167" y2="528.1167"/><polygon fill="#181818" points="223.9009,518.1167,227.9009,528.1167,231.9009,518.1167,227.9009,522.1167" style="stroke:#181818;stroke-width:1;"/><line style="stroke:#181818;stroke-width:1;" x1="260.6724" x2="227.9009" y1="452.1479" y2="452.1479"/><line style="stroke:#181818;stroke-width:1;" x1="227.9009" x2="227.9009" y1="452.1479" y2="474.1479"/><polygon fill="#181818" points="223.9009,464.1479,227.9009,474.1479,231.9009,464.1479,227.9009,468.1479" style="stroke:#181818;stroke-width:1;"/><line style="stroke:#181818;stroke-width:1;" x1="422.0112" x2="454.7827" y1="452.1479" y2="452.1479"/><line style="stroke:#181818;stroke-width:1;" x1="454.7827" x2="454.7827" y1="452.1479" y2="474.1479"/><polygon fill="#181818" points="450.7827,464.1479,454.7827,474.1479,458.7827,464.1479,454.7827,468.1479" style="stroke:#181818;stroke-width:1;"/><line style="stroke:#181818;stroke-width:1;" x1="227.9009" x2="227.9009" y1="562.0854" y2="580.0854"/><line style="stroke:#181818;stroke-width:1;" x1="227.9009" x2="329.3418" y1="580.0854" y2="580.0854"/><polygon fill="#181818" points="319.3418,576.0854,329.3418,580.0854,319.3418,584.0854,323.3418,580.0854" style="stroke:#181818;stroke-width:1;"/><line style="stroke:#181818;stroke-width:1;" x1="454.7827" x2="454.7827" y1="508.1167" y2="580.0854"/><line style="stroke:#181818;stroke-width:1;" x1="454.7827" x2="353.3418" y1="580.0854" y2="580.0854"/><polygon fill="#181818" points="363.3418,576.0854,353.3418,580.0854,363.3418,584.0854,359.3418,580.0854" style="stroke:#181818;stroke-width:1;"/><line style="stroke:#181818;stroke-width:1;" x1="341.3418" x2="341.3418" y1="272.1719" y2="330.4688"/><polygon fill="#181818" points="337.3418,320.4688,341.3418,330.4688,345.3418,320.4688,341.3418,324.4688" style="stroke:#181818;stroke-width:1;"/><line style="stroke:#181818;stroke-width:1;" x1="126.2236" x2="126.2236" y1="656.3823" y2="676.3823"/><polygon fill="#181818" points="122.2236,666.3823,126.2236,676.3823,130.2236,666.3823,126.2236,670.3823" style="stroke:#181818;stroke-width:1;"/><line style="stroke:#181818;stroke-width:1;" x1="340.6709" x2="340.6709" y1="656.3823" y2="676.3823"/><polygon fill="#181818" points="336.6709,666.3823,340.6709,676.3823,344.6709,666.3823,340.6709,670.3823" style="stroke:#181818;stroke-width:1;"/><line style="stroke:#181818;stroke-width:1;" x1="555.7891" x2="555.7891" y1="656.3823" y2="676.3823"/><polygon fill="#181818" points="551.7891,666.3823,555.7891,676.3823,559.7891,666.3823,555.7891,670.3823" style="stroke:#181818;stroke-width:1;"/><line style="stroke:#181818;stroke-width:1;" x1="126.2236" x2="126.2236" y1="710.3511" y2="730.3511"/><polygon fill="#181818" points="122.2236,720.3511,126.2236,730.3511,130.2236,720.3511,126.2236,724.3511" style="stroke:#181818;stroke-width:1;"/><line style="stroke:#181818;stroke-width:1;" x1="340.6709" x2="340.6709" y1="710.3511" y2="730.3511"/><polygon fill="#181818" points="336.6709,720.3511,340.6709,730.3511,344.6709,720.3511,340.6709,724.3511" style="stroke:#181818;stroke-width:1;"/><line style="stroke:#181818;stroke-width:1;" x1="555.7891" x2="555.7891" y1="710.3511" y2="730.3511"/><polygon fill="#181818" points="551.7891,720.3511,555.7891,730.3511,559.7891,720.3511,555.7891,724.3511" style="stroke:#181818;stroke-width:1;"/><line style="stroke:#181818;stroke-width:1;" x1="341.3418" x2="341.3418" y1="592.0854" y2="650.3823"/><polygon fill="#181818" points="337.3418,640.3823,341.3418,650.3823,345.3418,640.3823,341.3418,644.3823" style="stroke:#181818;stroke-width:1;"/><line style="stroke:#181818;stroke-width:1;" x1="341.3418" x2="341.3418" y1="828.6167" y2="848.6167"/><polygon fill="#181818" points="337.3418,838.6167,341.3418,848.6167,345.3418,838.6167,341.3418,842.6167" style="stroke:#181818;stroke-width:1;"/><line style="stroke:#181818;stroke-width:1;" x1="341.3418" x2="341.3418" y1="736.3511" y2="794.6479"/><polygon fill="#181818" points="337.3418,784.6479,341.3418,794.6479,345.3418,784.6479,341.3418,788.6479" style="stroke:#181818;stroke-width:1;"/><line style="stroke:#181818;stroke-width:1;" x1="341.3418" x2="341.3418" y1="882.5854" y2="914.5854"/><polygon fill="#181818" points="337.3418,904.5854,341.3418,914.5854,345.3418,904.5854,341.3418,908.5854" style="stroke:#181818;stroke-width:1;"/><!--SRC=[bLFHIiCm57tlLrpcIojZe8yR8k9U19NfddmgiRtjmjBScAGhLVRl9cdNRMue1bfexpdtd9pS6CkqZIBbtjnoaZ1QQ5IQCZHc11UFl5pPDnI26lYAmAtfWtH09lWdWg2ovBASTONx5PCbGiurPfPq2vQW8Rrs2F-pHxrYHHi49WHSJfZ9gub_d0iek40pe1Hf2xqHC6YjQ-EgsqEhBpKwcPnPTjxgHwZVGC35XcgTuHZUcSp7aBMPm6GI877IoV82uevZwimBtoPWLoWXRj4a0OB28CIIkY-_Z2NLbMJEYsXePDPSfKhZXbDjqhvXKOkJbi6g89R37fJwPFemGjs5Or7xI7UPa1GjI6pW07hgRggxl7-s3cdF3dmV1JkdHWP7Bgf1y6uvVpe_4uKxvRrYsXFIHZEbKCUUc5xr6Niii99n-HVZ-j-CvsJOKUVfQ5CBClRNoLxMLSMq7soDfXPsDupx6m5Kx8T-6qN-xBy1]--></g></svg>