<svg xmlns="http://www.w3.org/2000/svg" xmlns:xlink="http://www.w3.org/1999/xlink" contentStyleType="text/css" data-diagram-type="ACTIVITY" height="2356px" preserveAspectRatio="none" style="width:572px;height:2356px;background:#FFFFFF;" version="1.1" viewBox="0 0 572 2356" width="572px" zoomAndPan="magnify"><defs/><g><ellipse cx="280.7971" cy="20" fill="#222222" rx="10" ry="10" style="stroke:#222222;stroke-width:1;"/><rect fill="#FFFFE0" height="136.2344" style="stroke:#000000;stroke-width:1.5;" width="419.1777" x="71.2083" y="40"/><path d="M158.1262,40 L158.1262,49.2969 L148.1262,59.2969 L71.2083,59.2969" fill="none" style="stroke:#000000;stroke-width:1.5;"/><text fill="#000000" font-family="sans-serif" font-size="14" lengthAdjust="spacing" textLength="76.918" x="74.2083" y="53.9951">Preprocess</text><rect fill="#F1F1F1" height="33.9688" rx="12.5" ry="12.5" style="stroke:#181818;stroke-width:0.5;" width="306.7285" x="127.4329" y="76.2969"/><text fill="#000000" font-family="sans-serif" font-size="12" lengthAdjust="spacing" textLength="286.7285" x="137.4329" y="97.4355">Extract name of ASDM from downloaded tarball</text><rect fill="#F1F1F1" height="33.9688" rx="12.5" ry="12.5" style="stroke:#181818;stroke-width:0.5;" width="399.1777" x="81.2083" y="130.2656"/><text fill="#000000" font-family="sans-serif" font-size="12" lengthAdjust="spacing" textLength="379.1777" x="91.2083" y="151.4043">Create working directory for the ASDM. If exists, remove it first</text><rect fill="#FFFFE0" height="137.9761" style="stroke:#000000;stroke-width:1.5;" width="300.6309" x="130.4817" y="186.2344"/><path d="M236.3967,186.2344 L236.3967,195.5313 L226.3967,205.5313 L130.4817,205.5313" fill="none" style="stroke:#000000;stroke-width:1.5;"/><text fill="#000000" font-family="sans-serif" font-size="14" lengthAdjust="spacing" textLength="95.915" x="133.4817" y="200.2295">Extract ASDM</text><rect fill="#F1F1F1" height="33.9688" rx="12.5" ry="12.5" style="stroke:#181818;stroke-width:0.5;" width="280.6309" x="140.4817" y="222.5313"/><text fill="#000000" font-family="sans-serif" font-size="12" lengthAdjust="spacing" textLength="260.6309" x="150.4817" y="243.6699">Extract ASDM tarball into working directory</text><polygon fill="#F1F1F1" points="226.6296,276.5,334.9646,276.5,346.9646,288.5,334.9646,300.5,226.6296,300.5,214.6296,288.5,226.6296,276.5" style="stroke:#181818;stroke-width:0.5;"/><text fill="#000000" font-family="sans-serif" font-size="11" lengthAdjust="spacing" textLength="19.0083" x="284.7971" y="310.7104">yes</text><text fill="#000000" font-family="sans-serif" font-size="11" lengthAdjust="spacing" textLength="108.335" x="226.6296" y="292.3081">extraction success?</text><text fill="#000000" font-family="sans-serif" font-size="11" lengthAdjust="spacing" textLength="13.7017" x="346.9646" y="285.9058">no</text><ellipse cx="382.6663" cy="288.5" fill="none" rx="11" ry="11" style="stroke:#222222;stroke-width:1;"/><ellipse cx="382.6663" cy="288.5" fill="#222222" rx="6" ry="6" style="stroke:#222222;stroke-width:1;"/><rect fill="#FFFFE0" height="1968.9297" style="stroke:#000000;stroke-width:1.5;" width="550.6079" x="11" y="334.2104"/><path d="M120.4355,334.2104 L120.4355,343.5073 L110.4355,353.5073 L11,353.5073" fill="none" style="stroke:#000000;stroke-width:1.5;"/><text fill="#000000" font-family="sans-serif" font-size="14" lengthAdjust="spacing" textLength="99.4355" x="14" y="348.2056">Process ASDM</text><rect fill="#F1F1F1" height="33.9688" rx="12.5" ry="12.5" style="stroke:#181818;stroke-width:0.5;" width="349.4902" x="106.052" y="370.5073"/><text fill="#000000" font-family="sans-serif" font-size="12" lengthAdjust="spacing" textLength="329.4902" x="116.052" y="391.646">Create calibration script with make_calibration_script()</text><polygon fill="#F1F1F1" points="214.9663,424.4761,346.6279,424.4761,358.6279,436.4761,346.6279,448.4761,214.9663,448.4761,202.9663,436.4761,214.9663,424.4761" style="stroke:#181818;stroke-width:0.5;"/><text fill="#000000" font-family="sans-serif" font-size="11" lengthAdjust="spacing" textLength="19.0083" x="284.7971" y="458.6865">yes</text><text fill="#000000" font-family="sans-serif" font-size="11" lengthAdjust="spacing" textLength="131.6616" x="214.9663" y="440.2842">script creation success?</text><text fill="#000000" font-family="sans-serif" font-size="11" lengthAdjust="spacing" textLength="13.7017" x="358.6279" y="433.8818">no</text><ellipse cx="394.3296" cy="436.4761" fill="none" rx="11" ry="11" style="stroke:#222222;stroke-width:1;"/><ellipse cx="394.3296" cy="436.4761" fill="#222222" rx="6" ry="6" style="stroke:#222222;stroke-width:1;"/><rect fill="#F1F1F1" height="33.9688" rx="12.5" ry="12.5" style="stroke:#181818;stroke-width:0.5;" width="148.127" x="206.7336" y="480.1865"/><text fill="#000000" font-family="sans-serif" font-size="12" lengthAdjust="spacing" textLength="128.127" x="216.7336" y="501.3252">Run calibration script</text><polygon fill="#F1F1F1" points="224.8545,534.1553,336.7397,534.1553,348.7397,546.1553,336.7397,558.1553,224.8545,558.1553,212.8545,546.1553,224.8545,534.1553" style="stroke:#181818;stroke-width:0.5;"/><text fill="#000000" font-family="sans-serif" font-size="11" lengthAdjust="spacing" textLength="19.0083" x="284.7971" y="568.3657">yes</text><text fill="#000000" font-family="sans-serif" font-size="11" lengthAdjust="spacing" textLength="111.8853" x="224.8545" y="549.9634">processing success?</text><text fill="#000000" font-family="sans-serif" font-size="11" lengthAdjust="spacing" textLength="13.7017" x="348.7397" y="543.561">no</text><ellipse cx="384.4414" cy="546.1553" fill="none" rx="11" ry="11" style="stroke:#222222;stroke-width:1;"/><ellipse cx="384.4414" cy="546.1553" fill="#222222" rx="6" ry="6" style="stroke:#222222;stroke-width:1;"/><rect fill="#F1F1F1" height="33.9688" rx="12.5" ry="12.5" style="stroke:#181818;stroke-width:0.5;" width="403.9941" x="78.8" y="589.8657"/><text fill="#000000" font-family="sans-serif" font-size="12" lengthAdjust="spacing" textLength="383.9941" x="88.8" y="611.0044">Remove target source of project (keep calibration sources only)</text><polygon fill="#F1F1F1" points="232.0947,643.8345,329.4995,643.8345,341.4995,655.8345,329.4995,667.8345,232.0947,667.8345,220.0947,655.8345,232.0947,643.8345" style="stroke:#181818;stroke-width:0.5;"/><text fill="#000000" font-family="sans-serif" font-size="11" lengthAdjust="spacing" textLength="19.0083" x="284.7971" y="678.0449">yes</text><text fill="#000000" font-family="sans-serif" font-size="11" lengthAdjust="spacing" textLength="97.4048" x="232.0947" y="659.6426">removal success?</text><text fill="#000000" font-family="sans-serif" font-size="11" lengthAdjust="spacing" textLength="13.7017" x="341.4995" y="653.2402">no</text><ellipse cx="377.2012" cy="655.8345" fill="none" rx="11" ry="11" style="stroke:#222222;stroke-width:1;"/><ellipse cx="377.2012" cy="655.8345" fill="#222222" rx="6" ry="6" style="stroke:#222222;stroke-width:1;"/><rect fill="#FFE4B5" height="259.6909" style="stroke:#000000;stroke-width:1.5;" width="491.6013" x="25.0637" y="745.2554"/><path d="M91.9456,745.2554 L91.9456,754.5522 L81.9456,764.5522 L25.0637,764.5522" fill="none" style="stroke:#000000;stroke-width:1.5;"/><text fill="#000000" font-family="sans-serif" font-size="14" lengthAdjust="spacing" textLength="56.8818" x="28.0637" y="759.2505">Imaging</text><polygon fill="#F1F1F1" points="156.7651,781.5522,404.8291,781.5522,416.8291,793.5522,404.8291,805.5522,156.7651,805.5522,144.7651,793.5522,156.7651,781.5522" style="stroke:#181818;stroke-width:0.5;"/><text fill="#000000" font-family="sans-serif" font-size="11" lengthAdjust="spacing" textLength="248.064" x="156.7651" y="797.3604">Required self-calibration later?: `do_selfcal`?</text><text fill="#000000" font-family="sans-serif" font-size="11" lengthAdjust="spacing" textLength="19.0083" x="125.7568" y="790.958">yes</text><text fill="#000000" font-family="sans-serif" font-size="11" lengthAdjust="spacing" textLength="13.7017" x="416.8291" y="790.958">no</text><rect fill="#F1F1F1" height="33.9688" rx="12.5" ry="12.5" style="stroke:#181818;stroke-width:0.5;" width="191.2754" x="39.1274" y="815.5522"/><text fill="#000000" font-family="sans-serif" font-size="12" lengthAdjust="spacing" textLength="171.2754" x="49.1274" y="836.6909">savemodel = 'modelcolumn'</text><rect fill="#F1F1F1" height="33.9688" rx="12.5" ry="12.5" style="stroke:#181818;stroke-width:0.5;" width="139.6719" x="356.9932" y="815.5522"/><text fill="#000000" font-family="sans-serif" font-size="12" lengthAdjust="spacing" textLength="119.6719" x="366.9932" y="836.6909">savemodel = 'none'</text><polygon fill="#F1F1F1" points="280.7971,855.521,292.7971,867.521,280.7971,879.521,268.7971,867.521,280.7971,855.521" style="stroke:#181818;stroke-width:0.5;"/><rect fill="#F1F1F1" height="33.9688" rx="12.5" ry="12.5" style="stroke:#181818;stroke-width:0.5;" width="84.3418" x="238.6262" y="903.2671"/><text fill="#000000" font-family="sans-serif" font-size="12" lengthAdjust="spacing" textLength="64.3418" x="248.6262" y="924.4058">Run tclean</text><polygon fill="#F1F1F1" points="232.3633,957.2358,329.231,957.2358,341.231,969.2358,329.231,981.2358,232.3633,981.2358,220.3633,969.2358,232.3633,957.2358" style="stroke:#181818;stroke-width:0.5;"/><text fill="#000000" font-family="sans-serif" font-size="11" lengthAdjust="spacing" textLength="19.0083" x="284.7971" y="991.4463">yes</text><text fill="#000000" font-family="sans-serif" font-size="11" lengthAdjust="spacing" textLength="96.8677" x="232.3633" y="973.0439">imaging success?</text><text fill="#000000" font-family="sans-serif" font-size="11" lengthAdjust="spacing" textLength="13.7017" x="341.231" y="966.6416">no</text><ellipse cx="376.9326" cy="969.2358" fill="none" rx="11" ry="11" style="stroke:#222222;stroke-width:1;"/><ellipse cx="376.9326" cy="969.2358" fill="#222222" rx="6" ry="6" style="stroke:#222222;stroke-width:1;"/><polygon fill="#F1F1F1" points="190.4553,699.5449,371.1389,699.5449,383.1389,711.5449,371.1389,723.5449,190.4553,723.5449,178.4553,711.5449,190.4553,699.5449" style="stroke:#181818;stroke-width:0.5;"/><text fill="#000000" font-family="sans-serif" font-size="11" lengthAdjust="spacing" textLength="19.0083" x="284.7971" y="733.7554">yes</text><text fill="#000000" font-family="sans-serif" font-size="11" lengthAdjust="spacing" textLength="180.6836" x="190.4553" y="715.353">Required imaging?: `do_tlcean`?</text><text fill="#000000" font-family="sans-serif" font-size="11" lengthAdjust="spacing" textLength="13.7017" x="383.1389" y="708.9507">no</text><polygon fill="#F1F1F1" points="280.7971,1024.9463,292.7971,1036.9463,280.7971,1048.9463,268.7971,1036.9463,280.7971,1024.9463" style="stroke:#181818;stroke-width:0.5;"/><rect fill="#FFE4B5" height="144.2065" style="stroke:#000000;stroke-width:1.5;" width="310.5957" x="154.1968" y="1115.4585"/><path d="M454.7925,1115.4585 L454.7925,1124.7554 L444.7925,1134.7554 L154.1968,1134.7554" fill="none" style="stroke:#000000;stroke-width:1.5;"/><text fill="#000000" font-family="sans-serif" font-size="14" lengthAdjust="spacing" textLength="290.5957" x="157.1968" y="1129.4536">Self-calibration and generate 2nd images</text><rect fill="#F1F1F1" height="33.9688" rx="12.5" ry="12.5" style="stroke:#181818;stroke-width:0.5;" width="160.5898" x="200.5022" y="1151.7554"/><text fill="#000000" font-family="sans-serif" font-size="12" lengthAdjust="spacing" textLength="140.5898" x="210.5022" y="1172.894">Perform self-calibration</text><polygon fill="#F1F1F1" points="213.8088,1211.9546,347.7854,1211.9546,359.7854,1223.9546,347.7854,1235.9546,213.8088,1235.9546,201.8088,1223.9546,213.8088,1211.9546" style="stroke:#181818;stroke-width:0.5;"/><text fill="#000000" font-family="sans-serif" font-size="11" lengthAdjust="spacing" textLength="19.0083" x="284.7971" y="1246.165">yes</text><text fill="#000000" font-family="sans-serif" font-size="11" lengthAdjust="spacing" textLength="133.9766" x="213.8088" y="1227.7627">self-calibration success?</text><text fill="#000000" font-family="sans-serif" font-size="11" lengthAdjust="spacing" textLength="13.7017" x="359.7854" y="1221.3604">no</text><ellipse cx="395.4871" cy="1223.9546" fill="none" rx="11" ry="11" style="stroke:#222222;stroke-width:1;"/><ellipse cx="395.4871" cy="1223.9546" fill="#222222" rx="6" ry="6" style="stroke:#222222;stroke-width:1;"/><polygon fill="#F1F1F1" points="171.2134,1068.9463,390.3809,1068.9463,402.3809,1080.9463,390.3809,1092.9463,171.2134,1092.9463,159.2134,1080.9463,171.2134,1068.9463" style="stroke:#181818;stroke-width:0.5;"/><text fill="#000000" font-family="sans-serif" font-size="11" lengthAdjust="spacing" textLength="19.0083" x="284.7971" y="1103.1567">yes</text><text fill="#000000" font-family="sans-serif" font-size="11" lengthAdjust="spacing" textLength="219.1675" x="171.2134" y="1084.7544">Required self-calibration?: `do_selfcal`?</text><text fill="#000000" font-family="sans-serif" font-size="11" lengthAdjust="spacing" textLength="13.7017" x="402.3809" y="1078.3521">no</text><polygon fill="#F1F1F1" points="280.7971,1279.665,292.7971,1291.665,280.7971,1303.665,268.7971,1291.665,280.7971,1279.665" style="stroke:#181818;stroke-width:0.5;"/><rect fill="#FFE4B5" height="284.3472" style="stroke:#000000;stroke-width:1.5;" width="468.6216" x="56.9863" y="1369.3755"/><path d="M220.7402,1369.3755 L220.7402,1378.6724 L210.7402,1388.6724 L56.9863,1388.6724" fill="none" style="stroke:#000000;stroke-width:1.5;"/><text fill="#000000" font-family="sans-serif" font-size="14" lengthAdjust="spacing" textLength="153.7539" x="59.9863" y="1383.3706">Export images to FITS</text><rect fill="#F1F1F1" height="33.9688" rx="12.5" ry="12.5" style="stroke:#181818;stroke-width:0.5;" width="195.8516" x="182.8713" y="1405.6724"/><text fill="#000000" font-family="sans-serif" font-size="12" lengthAdjust="spacing" textLength="175.8516" x="192.8713" y="1426.811">Export images to FITS format</text><rect fill="#F1F1F1" height="33.9688" rx="12.5" ry="12.5" style="stroke:#181818;stroke-width:0.5;" width="152.9082" x="204.343" y="1508.0435"/><text fill="#000000" font-family="sans-serif" font-size="12" lengthAdjust="spacing" textLength="132.9082" x="214.343" y="1529.1821">Remove CASA images</text><polygon fill="#F1F1F1" points="78.9863,1459.6411,482.6079,1459.6411,494.6079,1471.6411,482.6079,1483.6411,78.9863,1483.6411,66.9863,1471.6411,78.9863,1459.6411" style="stroke:#181818;stroke-width:0.5;"/><text fill="#000000" font-family="sans-serif" font-size="11" lengthAdjust="spacing" textLength="19.0083" x="284.7971" y="1493.8516">yes</text><text fill="#000000" font-family="sans-serif" font-size="11" lengthAdjust="spacing" textLength="403.6216" x="78.9863" y="1475.4492">Required to remove CASA images after export?: `remove_casa_images`?</text><text fill="#000000" font-family="sans-serif" font-size="11" lengthAdjust="spacing" textLength="13.7017" x="494.6079" y="1469.0469">no</text><polygon fill="#F1F1F1" points="280.7971,1562.0122,292.7971,1574.0122,280.7971,1586.0122,268.7971,1574.0122,280.7971,1562.0122" style="stroke:#181818;stroke-width:0.5;"/><polygon fill="#F1F1F1" points="201.8528,1606.0122,359.7415,1606.0122,371.7415,1618.0122,359.7415,1630.0122,201.8528,1630.0122,189.8528,1618.0122,201.8528,1606.0122" style="stroke:#181818;stroke-width:0.5;"/><text fill="#000000" font-family="sans-serif" font-size="11" lengthAdjust="spacing" textLength="19.0083" x="284.7971" y="1640.2227">yes</text><text fill="#000000" font-family="sans-serif" font-size="11" lengthAdjust="spacing" textLength="157.8887" x="201.8528" y="1621.8203">export and remove success?</text><text fill="#000000" font-family="sans-serif" font-size="11" lengthAdjust="spacing" textLength="13.7017" x="371.7415" y="1615.418">no</text><ellipse cx="407.4431" cy="1618.0122" fill="none" rx="11" ry="11" style="stroke:#222222;stroke-width:1;"/><ellipse cx="407.4431" cy="1618.0122" fill="#222222" rx="6" ry="6" style="stroke:#222222;stroke-width:1;"/><polygon fill="#F1F1F1" points="141.2964,1323.665,420.2979,1323.665,432.2979,1335.665,420.2979,1347.665,141.2964,1347.665,129.2964,1335.665,141.2964,1323.665" style="stroke:#181818;stroke-width:0.5;"/><text fill="#000000" font-family="sans-serif" font-size="11" lengthAdjust="spacing" textLength="19.0083" x="284.7971" y="1357.8755">yes</text><text fill="#000000" font-family="sans-serif" font-size="11" lengthAdjust="spacing" textLength="279.0015" x="141.2964" y="1339.4731">Required exporting images to FITS?: `export_fits`?</text><text fill="#000000" font-family="sans-serif" font-size="11" lengthAdjust="spacing" textLength="13.7017" x="432.2979" y="1333.0708">no</text><polygon fill="#F1F1F1" points="280.7971,1673.7227,292.7971,1685.7227,280.7971,1697.7227,268.7971,1685.7227,280.7971,1673.7227" style="stroke:#181818;stroke-width:0.5;"/><rect fill="#FFE4B5" height="321.0391" style="stroke:#000000;stroke-width:1.5;" width="528.6079" x="23" y="1707.7227"/><path d="M90.4902,1707.7227 L90.4902,1717.0195 L80.4902,1727.0195 L23,1727.0195" fill="none" style="stroke:#000000;stroke-width:1.5;"/><text fill="#000000" font-family="sans-serif" font-size="14" lengthAdjust="spacing" textLength="57.4902" x="26" y="1721.7178">Cleanup</text><rect fill="#F1F1F1" height="33.9688" rx="12.5" ry="12.5" style="stroke:#181818;stroke-width:0.5;" width="217.6426" x="171.9758" y="1792.4219"/><text fill="#000000" font-family="sans-serif" font-size="12" lengthAdjust="spacing" textLength="197.6426" x="181.9758" y="1813.5605">Remove ASDM working directory</text><polygon fill="#F1F1F1" points="154.1628,1744.0195,407.4314,1744.0195,419.4314,1756.0195,407.4314,1768.0195,154.1628,1768.0195,142.1628,1756.0195,154.1628,1744.0195" style="stroke:#181818;stroke-width:0.5;"/><text fill="#000000" font-family="sans-serif" font-size="11" lengthAdjust="spacing" textLength="19.0083" x="284.7971" y="1778.23">yes</text><text fill="#000000" font-family="sans-serif" font-size="11" lengthAdjust="spacing" textLength="253.2686" x="154.1628" y="1759.8276">Required to remove ASDM?: `remove_asdm`?</text><text fill="#000000" font-family="sans-serif" font-size="11" lengthAdjust="spacing" textLength="13.7017" x="419.4314" y="1753.4253">no</text><polygon fill="#F1F1F1" points="280.7971,1846.3906,292.7971,1858.3906,280.7971,1870.3906,268.7971,1858.3906,280.7971,1846.3906" style="stroke:#181818;stroke-width:0.5;"/><rect fill="#F1F1F1" height="33.9688" rx="12.5" ry="12.5" style="stroke:#181818;stroke-width:0.5;" width="487.4668" x="37.0637" y="1938.793"/><text fill="#000000" font-family="sans-serif" font-size="12" lengthAdjust="spacing" textLength="467.4668" x="47.0637" y="1959.9316">Remove intermediate files. Only keep images dirs, MS and *.py and *.log files</text><polygon fill="#F1F1F1" points="101.5181,1890.3906,460.0762,1890.3906,472.0762,1902.3906,460.0762,1914.3906,101.5181,1914.3906,89.5181,1902.3906,101.5181,1890.3906" style="stroke:#181818;stroke-width:0.5;"/><text fill="#000000" font-family="sans-serif" font-size="11" lengthAdjust="spacing" textLength="19.0083" x="284.7971" y="1924.6011">yes</text><text fill="#000000" font-family="sans-serif" font-size="11" lengthAdjust="spacing" textLength="358.5581" x="101.5181" y="1906.1987">Required to remove intermediate files?: `remove_intermediate`?</text><text fill="#000000" font-family="sans-serif" font-size="11" lengthAdjust="spacing" textLength="13.7017" x="472.0762" y="1899.7964">no</text><polygon fill="#F1F1F1" points="280.7971,1992.7617,292.7971,2004.7617,280.7971,2016.7617,268.7971,2004.7617,280.7971,1992.7617" style="stroke:#181818;stroke-width:0.5;"/><rect fill="#FFE4B5" height="252.3784" style="stroke:#000000;stroke-width:1.5;" width="290.4961" x="140.0491" y="2038.7617"/><path d="M252.3284,2038.7617 L252.3284,2048.0586 L242.3284,2058.0586 L140.0491,2058.0586" fill="none" style="stroke:#000000;stroke-width:1.5;"/><text fill="#000000" font-family="sans-serif" font-size="14" lengthAdjust="spacing" textLength="102.2793" x="143.0491" y="2052.7568">Check success</text><rect fill="#F1F1F1" height="33.9688" rx="12.5" ry="12.5" style="stroke:#181818;stroke-width:0.5;" width="193.4961" x="184.0491" y="2179.1714"/><text fill="#000000" font-family="sans-serif" font-size="12" lengthAdjust="spacing" textLength="173.4961" x="194.0491" y="2200.3101">Mark ASDM process as failed</text><polygon fill="#F1F1F1" points="203.166,2130.769,358.4282,2130.769,370.4282,2142.769,358.4282,2154.769,203.166,2154.769,191.166,2142.769,203.166,2130.769" style="stroke:#181818;stroke-width:0.5;"/><text fill="#000000" font-family="sans-serif" font-size="11" lengthAdjust="spacing" textLength="19.0083" x="284.7971" y="2164.9795">yes</text><text fill="#000000" font-family="sans-serif" font-size="11" lengthAdjust="spacing" textLength="155.2622" x="203.166" y="2146.5771">log files contains "SEVERE"?</text><text fill="#000000" font-family="sans-serif" font-size="11" lengthAdjust="spacing" textLength="13.7017" x="370.4282" y="2140.1748">no</text><polygon fill="#F1F1F1" points="280.7971,2233.1401,292.7971,2245.1401,280.7971,2257.1401,268.7971,2245.1401,280.7971,2233.1401" style="stroke:#181818;stroke-width:0.5;"/><polygon fill="#F1F1F1" points="240.3877,2075.0586,321.2065,2075.0586,333.2065,2087.0586,321.2065,2099.0586,240.3877,2099.0586,228.3877,2087.0586,240.3877,2075.0586" style="stroke:#181818;stroke-width:0.5;"/><text fill="#000000" font-family="sans-serif" font-size="11" lengthAdjust="spacing" textLength="19.0083" x="284.7971" y="2109.269">yes</text><text fill="#000000" font-family="sans-serif" font-size="11" lengthAdjust="spacing" textLength="80.8188" x="240.3877" y="2090.8667">more log files?</text><ellipse cx="280.7971" cy="2334.1401" fill="none" rx="11" ry="11" style="stroke:#222222;stroke-width:1;"/><ellipse cx="280.7971" cy="2334.1401" fill="#222222" rx="6" ry="6" style="stroke:#222222;stroke-width:1;"/><line style="stroke:#181818;stroke-width:1;" x1="280.7971" x2="280.7971" y1="110.2656" y2="130.2656"/><polygon fill="#181818" points="276.7971,120.2656,280.7971,130.2656,284.7971,120.2656,280.7971,124.2656" style="stroke:#181818;stroke-width:1;"/><line style="stroke:#181818;stroke-width:1;" x1="280.7971" x2="280.7971" y1="30" y2="76.2969"/><polygon fill="#181818" points="276.7971,66.2969,280.7971,76.2969,284.7971,66.2969,280.7971,70.2969" style="stroke:#181818;stroke-width:1;"/><line style="stroke:#181818;stroke-width:1;" x1="280.7971" x2="280.7971" y1="300.5" y2="370.5073"/><polygon fill="#181818" points="276.7971,360.5073,280.7971,370.5073,284.7971,360.5073,280.7971,364.5073" style="stroke:#181818;stroke-width:1;"/><line style="stroke:#181818;stroke-width:1;" x1="346.9646" x2="371.6663" y1="288.5" y2="288.5"/><polygon fill="#181818" points="361.6663,284.5,371.6663,288.5,361.6663,292.5,365.6663,288.5" style="stroke:#181818;stroke-width:1;"/><line style="stroke:#181818;stroke-width:1;" x1="280.7971" x2="280.7971" y1="256.5" y2="276.5"/><polygon fill="#181818" points="276.7971,266.5,280.7971,276.5,284.7971,266.5,280.7971,270.5" style="stroke:#181818;stroke-width:1;"/><line style="stroke:#181818;stroke-width:1;" x1="280.7971" x2="280.7971" y1="164.2344" y2="222.5313"/><polygon fill="#181818" points="276.7971,212.5313,280.7971,222.5313,284.7971,212.5313,280.7971,216.5313" style="stroke:#181818;stroke-width:1;"/><line style="stroke:#181818;stroke-width:1;" x1="280.7971" x2="280.7971" y1="448.4761" y2="480.1865"/><polygon fill="#181818" points="276.7971,470.1865,280.7971,480.1865,284.7971,470.1865,280.7971,474.1865" style="stroke:#181818;stroke-width:1;"/><line style="stroke:#181818;stroke-width:1;" x1="358.6279" x2="383.3296" y1="436.4761" y2="436.4761"/><polygon fill="#181818" points="373.3296,432.4761,383.3296,436.4761,373.3296,440.4761,377.3296,436.4761" style="stroke:#181818;stroke-width:1;"/><line style="stroke:#181818;stroke-width:1;" x1="280.7971" x2="280.7971" y1="404.4761" y2="424.4761"/><polygon fill="#181818" points="276.7971,414.4761,280.7971,424.4761,284.7971,414.4761,280.7971,418.4761" style="stroke:#181818;stroke-width:1;"/><line style="stroke:#181818;stroke-width:1;" x1="280.7971" x2="280.7971" y1="558.1553" y2="589.8657"/><polygon fill="#181818" points="276.7971,579.8657,280.7971,589.8657,284.7971,579.8657,280.7971,583.8657" style="stroke:#181818;stroke-width:1;"/><line style="stroke:#181818;stroke-width:1;" x1="348.7397" x2="373.4414" y1="546.1553" y2="546.1553"/><polygon fill="#181818" points="363.4414,542.1553,373.4414,546.1553,363.4414,550.1553,367.4414,546.1553" style="stroke:#181818;stroke-width:1;"/><line style="stroke:#181818;stroke-width:1;" x1="280.7971" x2="280.7971" y1="514.1553" y2="534.1553"/><polygon fill="#181818" points="276.7971,524.1553,280.7971,534.1553,284.7971,524.1553,280.7971,528.1553" style="stroke:#181818;stroke-width:1;"/><line style="stroke:#181818;stroke-width:1;" x1="280.7971" x2="280.7971" y1="667.8345" y2="699.5449"/><polygon fill="#181818" points="276.7971,689.5449,280.7971,699.5449,284.7971,689.5449,280.7971,693.5449" style="stroke:#181818;stroke-width:1;"/><line style="stroke:#181818;stroke-width:1;" x1="341.4995" x2="366.2012" y1="655.8345" y2="655.8345"/><polygon fill="#181818" points="356.2012,651.8345,366.2012,655.8345,356.2012,659.8345,360.2012,655.8345" style="stroke:#181818;stroke-width:1;"/><line style="stroke:#181818;stroke-width:1;" x1="280.7971" x2="280.7971" y1="623.8345" y2="643.8345"/><polygon fill="#181818" points="276.7971,633.8345,280.7971,643.8345,284.7971,633.8345,280.7971,637.8345" style="stroke:#181818;stroke-width:1;"/><line style="stroke:#181818;stroke-width:1;" x1="144.7651" x2="134.7651" y1="793.5522" y2="793.5522"/><line style="stroke:#181818;stroke-width:1;" x1="134.7651" x2="134.7651" y1="793.5522" y2="815.5522"/><polygon fill="#181818" points="130.7651,805.5522,134.7651,815.5522,138.7651,805.5522,134.7651,809.5522" style="stroke:#181818;stroke-width:1;"/><line style="stroke:#181818;stroke-width:1;" x1="416.8291" x2="426.8291" y1="793.5522" y2="793.5522"/><line style="stroke:#181818;stroke-width:1;" x1="426.8291" x2="426.8291" y1="793.5522" y2="815.5522"/><polygon fill="#181818" points="422.8291,805.5522,426.8291,815.5522,430.8291,805.5522,426.8291,809.5522" style="stroke:#181818;stroke-width:1;"/><line style="stroke:#181818;stroke-width:1;" x1="134.7651" x2="134.7651" y1="849.521" y2="867.521"/><line style="stroke:#181818;stroke-width:1;" x1="134.7651" x2="268.7971" y1="867.521" y2="867.521"/><polygon fill="#181818" points="258.7971,863.521,268.7971,867.521,258.7971,871.521,262.7971,867.521" style="stroke:#181818;stroke-width:1;"/><line style="stroke:#181818;stroke-width:1;" x1="426.8291" x2="426.8291" y1="849.521" y2="867.521"/><line style="stroke:#181818;stroke-width:1;" x1="426.8291" x2="292.7971" y1="867.521" y2="867.521"/><polygon fill="#181818" points="302.7971,863.521,292.7971,867.521,302.7971,871.521,298.7971,867.521" style="stroke:#181818;stroke-width:1;"/><line style="stroke:#181818;stroke-width:1;" x1="280.7971" x2="280.7971" y1="879.521" y2="903.2671"/><polygon fill="#181818" points="276.7971,893.2671,280.7971,903.2671,284.7971,893.2671,280.7971,897.2671" style="stroke:#181818;stroke-width:1;"/><line style="stroke:#181818;stroke-width:1;" x1="280.7971" x2="280.7971" y1="981.2358" y2="1024.9463"/><polygon fill="#181818" points="276.7971,1014.9463,280.7971,1024.9463,284.7971,1014.9463,280.7971,1018.9463" style="stroke:#181818;stroke-width:1;"/><line style="stroke:#181818;stroke-width:1;" x1="341.231" x2="365.9326" y1="969.2358" y2="969.2358"/><polygon fill="#181818" points="355.9326,965.2358,365.9326,969.2358,355.9326,973.2358,359.9326,969.2358" style="stroke:#181818;stroke-width:1;"/><line style="stroke:#181818;stroke-width:1;" x1="280.7971" x2="280.7971" y1="937.2358" y2="957.2358"/><polygon fill="#181818" points="276.7971,947.2358,280.7971,957.2358,284.7971,947.2358,280.7971,951.2358" style="stroke:#181818;stroke-width:1;"/><line style="stroke:#181818;stroke-width:1;" x1="280.7971" x2="280.7971" y1="723.5449" y2="781.5522"/><polygon fill="#181818" points="276.7971,771.5522,280.7971,781.5522,284.7971,771.5522,280.7971,775.5522" style="stroke:#181818;stroke-width:1;"/><line style="stroke:#181818;stroke-width:1;" x1="383.1389" x2="526.665" y1="711.5449" y2="711.5449"/><polygon fill="#181818" points="522.665,889.521,526.665,899.521,530.665,889.521,526.665,893.521" style="stroke:#181818;stroke-width:1;"/><line style="stroke:#181818;stroke-width:1;" x1="526.665" x2="526.665" y1="711.5449" y2="1036.9463"/><line style="stroke:#181818;stroke-width:1;" x1="526.665" x2="292.7971" y1="1036.9463" y2="1036.9463"/><polygon fill="#181818" points="302.7971,1032.9463,292.7971,1036.9463,302.7971,1040.9463,298.7971,1036.9463" style="stroke:#181818;stroke-width:1;"/><line style="stroke:#181818;stroke-width:1;" x1="280.7971" x2="280.7971" y1="1235.9546" y2="1279.665"/><polygon fill="#181818" points="276.7971,1269.665,280.7971,1279.665,284.7971,1269.665,280.7971,1273.665" style="stroke:#181818;stroke-width:1;"/><line style="stroke:#181818;stroke-width:1;" x1="359.7854" x2="384.4871" y1="1223.9546" y2="1223.9546"/><polygon fill="#181818" points="374.4871,1219.9546,384.4871,1223.9546,374.4871,1227.9546,378.4871,1223.9546" style="stroke:#181818;stroke-width:1;"/><line style="stroke:#181818;stroke-width:1;" x1="280.7971" x2="280.7971" y1="1185.7241" y2="1211.9546"/><polygon fill="#181818" points="276.7971,1201.9546,280.7971,1211.9546,284.7971,1201.9546,280.7971,1205.9546" style="stroke:#181818;stroke-width:1;"/><line style="stroke:#181818;stroke-width:1;" x1="280.7971" x2="280.7971" y1="1092.9463" y2="1151.7554"/><polygon fill="#181818" points="276.7971,1141.7554,280.7971,1151.7554,284.7971,1141.7554,280.7971,1145.7554" style="stroke:#181818;stroke-width:1;"/><line style="stroke:#181818;stroke-width:1;" x1="402.3809" x2="474.7925" y1="1080.9463" y2="1080.9463"/><polygon fill="#181818" points="470.7925,1195.7241,474.7925,1205.7241,478.7925,1195.7241,474.7925,1199.7241" style="stroke:#181818;stroke-width:1;"/><line style="stroke:#181818;stroke-width:1;" x1="474.7925" x2="474.7925" y1="1080.9463" y2="1291.665"/><line style="stroke:#181818;stroke-width:1;" x1="474.7925" x2="292.7971" y1="1291.665" y2="1291.665"/><polygon fill="#181818" points="302.7971,1287.665,292.7971,1291.665,302.7971,1295.665,298.7971,1291.665" style="stroke:#181818;stroke-width:1;"/><line style="stroke:#181818;stroke-width:1;" x1="280.7971" x2="280.7971" y1="1048.9463" y2="1068.9463"/><polygon fill="#181818" points="276.7971,1058.9463,280.7971,1068.9463,284.7971,1058.9463,280.7971,1062.9463" style="stroke:#181818;stroke-width:1;"/><line style="stroke:#181818;stroke-width:1;" x1="280.7971" x2="280.7971" y1="1483.6411" y2="1508.0435"/><polygon fill="#181818" points="276.7971,1498.0435,280.7971,1508.0435,284.7971,1498.0435,280.7971,1502.0435" style="stroke:#181818;stroke-width:1;"/><line style="stroke:#181818;stroke-width:1;" x1="494.6079" x2="506.6079" y1="1471.6411" y2="1471.6411"/><polygon fill="#181818" points="502.6079,1515.0278,506.6079,1525.0278,510.6079,1515.0278,506.6079,1519.0278" style="stroke:#181818;stroke-width:1;"/><line style="stroke:#181818;stroke-width:1;" x1="506.6079" x2="506.6079" y1="1471.6411" y2="1574.0122"/><line style="stroke:#181818;stroke-width:1;" x1="506.6079" x2="292.7971" y1="1574.0122" y2="1574.0122"/><polygon fill="#181818" points="302.7971,1570.0122,292.7971,1574.0122,302.7971,1578.0122,298.7971,1574.0122" style="stroke:#181818;stroke-width:1;"/><line style="stroke:#181818;stroke-width:1;" x1="280.7971" x2="280.7971" y1="1542.0122" y2="1562.0122"/><polygon fill="#181818" points="276.7971,1552.0122,280.7971,1562.0122,284.7971,1552.0122,280.7971,1556.0122" style="stroke:#181818;stroke-width:1;"/><line style="stroke:#181818;stroke-width:1;" x1="280.7971" x2="280.7971" y1="1439.6411" y2="1459.6411"/><polygon fill="#181818" points="276.7971,1449.6411,280.7971,1459.6411,284.7971,1449.6411,280.7971,1453.6411" style="stroke:#181818;stroke-width:1;"/><line style="stroke:#181818;stroke-width:1;" x1="280.7971" x2="280.7971" y1="1630.0122" y2="1673.7227"/><polygon fill="#181818" points="276.7971,1663.7227,280.7971,1673.7227,284.7971,1663.7227,280.7971,1667.7227" style="stroke:#181818;stroke-width:1;"/><line style="stroke:#181818;stroke-width:1;" x1="371.7415" x2="396.4431" y1="1618.0122" y2="1618.0122"/><polygon fill="#181818" points="386.4431,1614.0122,396.4431,1618.0122,386.4431,1622.0122,390.4431,1618.0122" style="stroke:#181818;stroke-width:1;"/><line style="stroke:#181818;stroke-width:1;" x1="280.7971" x2="280.7971" y1="1586.0122" y2="1606.0122"/><polygon fill="#181818" points="276.7971,1596.0122,280.7971,1606.0122,284.7971,1596.0122,280.7971,1600.0122" style="stroke:#181818;stroke-width:1;"/><line style="stroke:#181818;stroke-width:1;" x1="280.7971" x2="280.7971" y1="1347.665" y2="1405.6724"/><polygon fill="#181818" points="276.7971,1395.6724,280.7971,1405.6724,284.7971,1395.6724,280.7971,1399.6724" style="stroke:#181818;stroke-width:1;"/><line style="stroke:#181818;stroke-width:1;" x1="432.2979" x2="535.6079" y1="1335.665" y2="1335.665"/><polygon fill="#181818" points="531.6079,1526.2974,535.6079,1536.2974,539.6079,1526.2974,535.6079,1530.2974" style="stroke:#181818;stroke-width:1;"/><line style="stroke:#181818;stroke-width:1;" x1="535.6079" x2="535.6079" y1="1335.665" y2="1685.7227"/><line style="stroke:#181818;stroke-width:1;" x1="535.6079" x2="292.7971" y1="1685.7227" y2="1685.7227"/><polygon fill="#181818" points="302.7971,1681.7227,292.7971,1685.7227,302.7971,1689.7227,298.7971,1685.7227" style="stroke:#181818;stroke-width:1;"/><line style="stroke:#181818;stroke-width:1;" x1="280.7971" x2="280.7971" y1="1303.665" y2="1323.665"/><polygon fill="#181818" points="276.7971,1313.665,280.7971,1323.665,284.7971,1313.665,280.7971,1317.665" style="stroke:#181818;stroke-width:1;"/><line style="stroke:#181818;stroke-width:1;" x1="280.7971" x2="280.7971" y1="1768.0195" y2="1792.4219"/><polygon fill="#181818" points="276.7971,1782.4219,280.7971,1792.4219,284.7971,1782.4219,280.7971,1786.4219" style="stroke:#181818;stroke-width:1;"/><line style="stroke:#181818;stroke-width:1;" x1="419.4314" x2="431.4314" y1="1756.0195" y2="1756.0195"/><polygon fill="#181818" points="427.4314,1799.4063,431.4314,1809.4063,435.4314,1799.4063,431.4314,1803.4063" style="stroke:#181818;stroke-width:1;"/><line style="stroke:#181818;stroke-width:1;" x1="431.4314" x2="431.4314" y1="1756.0195" y2="1858.3906"/><line style="stroke:#181818;stroke-width:1;" x1="431.4314" x2="292.7971" y1="1858.3906" y2="1858.3906"/><polygon fill="#181818" points="302.7971,1854.3906,292.7971,1858.3906,302.7971,1862.3906,298.7971,1858.3906" style="stroke:#181818;stroke-width:1;"/><line style="stroke:#181818;stroke-width:1;" x1="280.7971" x2="280.7971" y1="1826.3906" y2="1846.3906"/><polygon fill="#181818" points="276.7971,1836.3906,280.7971,1846.3906,284.7971,1836.3906,280.7971,1840.3906" style="stroke:#181818;stroke-width:1;"/><line style="stroke:#181818;stroke-width:1;" x1="280.7971" x2="280.7971" y1="1914.3906" y2="1938.793"/><polygon fill="#181818" points="276.7971,1928.793,280.7971,1938.793,284.7971,1928.793,280.7971,1932.793" style="stroke:#181818;stroke-width:1;"/><line style="stroke:#181818;stroke-width:1;" x1="472.0762" x2="534.5305" y1="1902.3906" y2="1902.3906"/><polygon fill="#181818" points="530.5305,1945.7773,534.5305,1955.7773,538.5305,1945.7773,534.5305,1949.7773" style="stroke:#181818;stroke-width:1;"/><line style="stroke:#181818;stroke-width:1;" x1="534.5305" x2="534.5305" y1="1902.3906" y2="2004.7617"/><line style="stroke:#181818;stroke-width:1;" x1="534.5305" x2="292.7971" y1="2004.7617" y2="2004.7617"/><polygon fill="#181818" points="302.7971,2000.7617,292.7971,2004.7617,302.7971,2008.7617,298.7971,2004.7617" style="stroke:#181818;stroke-width:1;"/><line style="stroke:#181818;stroke-width:1;" x1="280.7971" x2="280.7971" y1="1972.7617" y2="1992.7617"/><polygon fill="#181818" points="276.7971,1982.7617,280.7971,1992.7617,284.7971,1982.7617,280.7971,1986.7617" style="stroke:#181818;stroke-width:1;"/><line style="stroke:#181818;stroke-width:1;" x1="280.7971" x2="280.7971" y1="1870.3906" y2="1890.3906"/><polygon fill="#181818" points="276.7971,1880.3906,280.7971,1890.3906,284.7971,1880.3906,280.7971,1884.3906" style="stroke:#181818;stroke-width:1;"/><line style="stroke:#181818;stroke-width:1;" x1="280.7971" x2="280.7971" y1="1697.7227" y2="1744.0195"/><polygon fill="#181818" points="276.7971,1734.0195,280.7971,1744.0195,284.7971,1734.0195,280.7971,1738.0195" style="stroke:#181818;stroke-width:1;"/><line style="stroke:#181818;stroke-width:1;" x1="280.7971" x2="280.7971" y1="2154.769" y2="2179.1714"/><polygon fill="#181818" points="276.7971,2169.1714,280.7971,2179.1714,284.7971,2169.1714,280.7971,2173.1714" style="stroke:#181818;stroke-width:1;"/><line style="stroke:#181818;stroke-width:1;" x1="370.4282" x2="387.5452" y1="2142.769" y2="2142.769"/><polygon fill="#181818" points="383.5452,2186.1558,387.5452,2196.1558,391.5452,2186.1558,387.5452,2190.1558" style="stroke:#181818;stroke-width:1;"/><line style="stroke:#181818;stroke-width:1;" x1="387.5452" x2="387.5452" y1="2142.769" y2="2245.1401"/><line style="stroke:#181818;stroke-width:1;" x1="387.5452" x2="292.7971" y1="2245.1401" y2="2245.1401"/><polygon fill="#181818" points="302.7971,2241.1401,292.7971,2245.1401,302.7971,2249.1401,298.7971,2245.1401" style="stroke:#181818;stroke-width:1;"/><line style="stroke:#181818;stroke-width:1;" x1="280.7971" x2="280.7971" y1="2213.1401" y2="2233.1401"/><polygon fill="#181818" points="276.7971,2223.1401,280.7971,2233.1401,284.7971,2223.1401,280.7971,2227.1401" style="stroke:#181818;stroke-width:1;"/><line style="stroke:#181818;stroke-width:1;" x1="280.7971" x2="280.7971" y1="2099.0586" y2="2130.769"/><polygon fill="#181818" points="276.7971,2120.769,280.7971,2130.769,284.7971,2120.769,280.7971,2124.769" style="stroke:#181818;stroke-width:1;"/><line style="stroke:#181818;stroke-width:1;" x1="280.7971" x2="280.7971" y1="2257.1401" y2="2267.1401"/><line style="stroke:#181818;stroke-width:1;" x1="280.7971" x2="411.5452" y1="2267.1401" y2="2267.1401"/><polygon fill="#181818" points="407.5452,2187.7534,411.5452,2177.7534,415.5452,2187.7534,411.5452,2183.7534" style="stroke:#181818;stroke-width:1;"/><line style="stroke:#181818;stroke-width:1;" x1="411.5452" x2="411.5452" y1="2087.0586" y2="2267.1401"/><line style="stroke:#181818;stroke-width:1;" x1="411.5452" x2="333.2065" y1="2087.0586" y2="2087.0586"/><polygon fill="#181818" points="343.2065,2083.0586,333.2065,2087.0586,343.2065,2091.0586,339.2065,2087.0586" style="stroke:#181818;stroke-width:1;"/><line style="stroke:#181818;stroke-width:1;" x1="228.3877" x2="162.0491" y1="2087.0586" y2="2087.0586"/><polygon fill="#181818" points="158.0491,2173.7534,162.0491,2183.7534,166.0491,2173.7534,162.0491,2177.7534" style="stroke:#181818;stroke-width:1;"/><line style="stroke:#181818;stroke-width:1;" x1="162.0491" x2="162.0491" y1="2087.0586" y2="2279.1401"/><line style="stroke:#181818;stroke-width:1;" x1="162.0491" x2="280.7971" y1="2279.1401" y2="2279.1401"/><line style="stroke:#181818;stroke-width:1;" x1="280.7971" x2="280.7971" y1="2279.1401" y2="2323.1401"/><polygon fill="#181818" points="276.7971,2313.1401,280.7971,2323.1401,284.7971,2313.1401,280.7971,2317.1401" style="stroke:#181818;stroke-width:1;"/><line style="stroke:#181818;stroke-width:1;" x1="280.7971" x2="280.7971" y1="2016.7617" y2="2075.0586"/><polygon fill="#181818" points="276.7971,2065.0586,280.7971,2075.0586,284.7971,2065.0586,280.7971,2069.0586" style="stroke:#181818;stroke-width:1;"/><!--SRC=[pLPDRnen4BtpAqRf8QHgEVG8ggA8KWcfg15KbNeYZdSMNBpsrZOXgCf_x_Y3P65tWIg7rWV4olFnvhsPdRME6TSfwKSueHLSt1eiZUPexGMy-I8MI_S3fTGR-Dq1EltHepECEr2iGD0vtCm-JI0tke1CRvJKBCCCAEWzat8GNOO6cKFOQBCIQW6PCCYTDbl8jG6tn12Z1-CSy55OPz-1mK8_80W7kJ3M3JfFLOWx2DxjECW0Be41ePokWuWOHGvTZ4u-XLrppy3rbOUdeBj5UnNiK5g4hjBnoH_hT1clL2RoVQ2taSWZG1Crd4bnRrZCpOqe7Mo4MqB1LZYlNCxZPVVg1NKovpxGww17HDErQe3paYyrX-VmrQcYogJF0XrOlJOyj1Ib-4dYG7U5MEw32JOMj9BR2WUXNPXyBI0VQeg_rjGQ6OY2BQZ8wpxSPNhk94UcxkgH_QaeFevU9FP4Syw8fgJqxkpbi2ZpzzNw93M3IIdz9TsrvDoTlcKFL7s64Zx2PVZ3jLmNwdAmPrjde3c2qWeFNGD3Uow-IHoNHCcWLbqYhbsCqv2UnMc6yDIWQPkCXnIVHMv5qDcXH4nbi425ni_j1nKR1MsxulrRDFIYAsfGwjJL-k7_u10VIqs4aAQnLg3twEVnjvddCjxDS-7iQJ97mVWWoX7c6ktzrYYO6xIF5Hcc1JAycTtit5bEivLgySYZ2RrTBPj7arEZDgq5FMV6wkCJbqqepNTJmlhFjAu8DFGZlIwR9MdXs2-t2f_CPiKH8dSaXitSieoRYwqWFeA6bZoQ0ZFXnpCN4cq5M_No38prM3tuIfi7mbvARKNOwODbCWjIlksLs_H7waNqELrJrAYcnHBvQjSLpOfibfG0keKs2C_vg2vX6whoX3qR0TVACQ4ilU56tqVJqSM9tfymiugYfGy0O1PoHh6olny2UWhGK-LF7T_0Vm00]--></g></svg>