<svg xmlns="http://www.w3.org/2000/svg" xmlns:xlink="http://www.w3.org/1999/xlink" contentStyleType="text/css" data-diagram-type="ACTIVITY" height="867px" preserveAspectRatio="none" style="width:680px;height:867px;background:#FFFFFF;" version="1.1" viewBox="0 0 680 867" width="680px" zoomAndPan="magnify"><defs/><g><ellipse cx="336.4951" cy="20" fill="#222222" rx="10" ry="10" style="stroke:#222222;stroke-width:1;"/><rect fill="#FFFFE0" height="136.2344" style="stroke:#000000;stroke-width:1.5;" width="641.1777" x="15.9063" y="40"/><path d="M107.3359,40 L107.3359,49.2969 L97.3359,59.2969 L15.9063,59.2969" fill="none" style="stroke:#000000;stroke-width:1.5;"/><text fill="#000000" font-family="sans-serif" font-size="14" lengthAdjust="spacing" textLength="81.4297" x="18.9063" y="53.9951">Preparation</text><rect fill="#F1F1F1" height="33.9688" rx="12.5" ry="12.5" style="stroke:#181818;stroke-width:0.5;" width="538.625" x="67.1826" y="76.2969"/><text fill="#000000" font-family="sans-serif" font-size="12" lengthAdjust="spacing" textLength="518.625" x="77.1826" y="97.4355">Search project directories in the working directory, e.g., uid___A002_X123456_X7890`</text><rect fill="#F1F1F1" height="33.9688" rx="12.5" ry="12.5" style="stroke:#181818;stroke-width:0.5;" width="621.1777" x="25.9063" y="130.2656"/><text fill="#000000" font-family="sans-serif" font-size="12" lengthAdjust="spacing" textLength="601.1777" x="35.9063" y="151.4043">Create directories for target images, e.g., working_dir/uid___A002_X123456_X7890/J1234+5678/fits</text><rect fill="#FFFFE0" height="630.1387" style="stroke:#000000;stroke-width:1.5;" width="658.084" x="11" y="186.2344"/><path d="M105.0479,186.2344 L105.0479,195.5313 L95.0479,205.5313 L11,205.5313" fill="none" style="stroke:#000000;stroke-width:1.5;"/><text fill="#000000" font-family="sans-serif" font-size="14" lengthAdjust="spacing" textLength="84.0479" x="14" y="200.2295">Sort images</text><rect fill="#FFE4B5" height="165.394" style="stroke:#000000;stroke-width:1.5;" width="562.9902" x="55" y="323.9521"/><path d="M270.8984,323.9521 L270.8984,333.249 L260.8984,343.249 L55,343.249" fill="none" style="stroke:#000000;stroke-width:1.5;"/><text fill="#000000" font-family="sans-serif" font-size="14" lengthAdjust="spacing" textLength="205.8984" x="58" y="337.9473">Select target image directory</text><polygon fill="#F1F1F1" points="130.8503,363.249,241.0383,363.249,253.0383,375.249,241.0383,387.249,130.8503,387.249,118.8503,375.249,130.8503,363.249" style="stroke:#181818;stroke-width:0.5;"/><text fill="#000000" font-family="sans-serif" font-size="11" lengthAdjust="spacing" textLength="19.0083" x="189.9443" y="397.4595">yes</text><text fill="#000000" font-family="sans-serif" font-size="11" lengthAdjust="spacing" textLength="110.188" x="130.8503" y="379.0571">`selfcal_fits` exists?</text><rect fill="#F1F1F1" height="33.9688" rx="12.5" ry="12.5" style="stroke:#181818;stroke-width:0.5;" width="241.8887" x="65" y="418.9595"/><text fill="#000000" font-family="sans-serif" font-size="12" lengthAdjust="spacing" textLength="221.8887" x="75" y="440.0981">Images in `selfcal_fits` will be sorted</text><polygon fill="#F1F1F1" points="392.2896,363.249,492.5894,363.249,504.5894,375.249,492.5894,387.249,392.2896,387.249,380.2896,375.249,392.2896,363.249" style="stroke:#181818;stroke-width:0.5;"/><text fill="#000000" font-family="sans-serif" font-size="11" lengthAdjust="spacing" textLength="19.0083" x="446.4395" y="397.4595">yes</text><text fill="#000000" font-family="sans-serif" font-size="11" lengthAdjust="spacing" textLength="100.2998" x="392.2896" y="379.0571">`dirty_fits` exists?</text><text fill="#000000" font-family="sans-serif" font-size="11" lengthAdjust="spacing" textLength="13.7017" x="504.5894" y="372.6548">no</text><rect fill="#F1F1F1" height="33.9688" rx="12.5" ry="12.5" style="stroke:#181818;stroke-width:0.5;" width="231.1016" x="326.8887" y="418.9595"/><text fill="#000000" font-family="sans-serif" font-size="12" lengthAdjust="spacing" textLength="211.1016" x="336.8887" y="440.0981">Images in `dirty_fits` will be sorted</text><rect fill="#FFE4B5" height="223.0425" style="stroke:#000000;stroke-width:1.5;" width="305.0146" x="182.4878" y="515.3306"/><path d="M285.3813,515.3306 L285.3813,524.6274 L275.3813,534.6274 L182.4878,534.6274" fill="none" style="stroke:#000000;stroke-width:1.5;"/><text fill="#000000" font-family="sans-serif" font-size="14" lengthAdjust="spacing" textLength="92.8936" x="185.4878" y="529.3257">Move images</text><rect fill="#F1F1F1" height="33.9688" rx="12.5" ry="12.5" style="stroke:#181818;stroke-width:0.5;" width="229.4609" x="221.7646" y="607.3379"/><text fill="#000000" font-family="sans-serif" font-size="12" lengthAdjust="spacing" textLength="209.4609" x="231.7646" y="628.4766">Extract target name from filename</text><rect fill="#F1F1F1" height="33.9688" rx="12.5" ry="12.5" style="stroke:#181818;stroke-width:0.5;" width="207.5059" x="232.7422" y="670.4043"/><text fill="#000000" font-family="sans-serif" font-size="12" lengthAdjust="spacing" textLength="187.5059" x="242.7422" y="691.543">Move image to target directory</text><polygon fill="#F1F1F1" points="228.4878,551.6274,444.5024,551.6274,456.5024,563.6274,444.5024,575.6274,228.4878,575.6274,216.4878,563.6274,228.4878,551.6274" style="stroke:#181818;stroke-width:0.5;"/><text fill="#000000" font-family="sans-serif" font-size="11" lengthAdjust="spacing" textLength="19.0083" x="340.4951" y="585.8379">yes</text><text fill="#000000" font-family="sans-serif" font-size="11" lengthAdjust="spacing" textLength="216.0146" x="228.4878" y="567.4355">more images in the selected directory?</text><polygon fill="#F1F1F1" points="242.8501,278.2417,430.1401,278.2417,442.1401,290.2417,430.1401,302.2417,242.8501,302.2417,230.8501,290.2417,242.8501,278.2417" style="stroke:#181818;stroke-width:0.5;"/><text fill="#000000" font-family="sans-serif" font-size="11" lengthAdjust="spacing" textLength="19.0083" x="340.4951" y="312.4521">yes</text><text fill="#000000" font-family="sans-serif" font-size="11" lengthAdjust="spacing" textLength="187.29" x="242.8501" y="294.0498">`selfcal_fits` or `dirty_fits` exists?</text><text fill="#000000" font-family="sans-serif" font-size="11" lengthAdjust="spacing" textLength="13.7017" x="442.1401" y="287.6475">no</text><polygon fill="#F1F1F1" points="336.4951,758.373,348.4951,770.373,336.4951,782.373,324.4951,770.373,336.4951,758.373" style="stroke:#181818;stroke-width:0.5;"/><polygon fill="#F1F1F1" points="267.2537,222.5313,405.7366,222.5313,417.7366,234.5313,405.7366,246.5313,267.2537,246.5313,255.2537,234.5313,267.2537,222.5313" style="stroke:#181818;stroke-width:0.5;"/><text fill="#000000" font-family="sans-serif" font-size="11" lengthAdjust="spacing" textLength="19.0083" x="340.4951" y="256.7417">yes</text><text fill="#000000" font-family="sans-serif" font-size="11" lengthAdjust="spacing" textLength="138.4829" x="267.2537" y="238.3394">more project directories?</text><ellipse cx="336.4951" cy="846.373" fill="none" rx="10" ry="10" style="stroke:#222222;stroke-width:1.5;"/><line style="stroke:#222222;stroke-width:2.5;" x1="330.3079" x2="342.6823" y1="840.1859" y2="852.5602"/><line style="stroke:#222222;stroke-width:2.5;" x1="342.6823" x2="330.3079" y1="840.1859" y2="852.5602"/><line style="stroke:#181818;stroke-width:1;" x1="336.4951" x2="336.4951" y1="110.2656" y2="130.2656"/><polygon fill="#181818" points="332.4951,120.2656,336.4951,130.2656,340.4951,120.2656,336.4951,124.2656" style="stroke:#181818;stroke-width:1;"/><line style="stroke:#181818;stroke-width:1;" x1="336.4951" x2="336.4951" y1="30" y2="76.2969"/><polygon fill="#181818" points="332.4951,66.2969,336.4951,76.2969,340.4951,66.2969,336.4951,70.2969" style="stroke:#181818;stroke-width:1;"/><line style="stroke:#181818;stroke-width:1;" x1="185.9443" x2="185.9443" y1="387.249" y2="418.9595"/><polygon fill="#181818" points="181.9443,408.9595,185.9443,418.9595,189.9443,408.9595,185.9443,412.9595" style="stroke:#181818;stroke-width:1;"/><line style="stroke:#181818;stroke-width:1;" x1="185.9443" x2="185.9443" y1="452.9282" y2="472.9282"/><polygon fill="#181818" points="181.9443,462.9282,185.9443,472.9282,189.9443,462.9282,185.9443,466.9282" style="stroke:#181818;stroke-width:1;"/><line style="stroke:#181818;stroke-width:1;" x1="442.4395" x2="442.4395" y1="387.249" y2="418.9595"/><polygon fill="#181818" points="438.4395,408.9595,442.4395,418.9595,446.4395,408.9595,442.4395,412.9595" style="stroke:#181818;stroke-width:1;"/><line style="stroke:#181818;stroke-width:1;" x1="442.4395" x2="442.4395" y1="452.9282" y2="472.9282"/><polygon fill="#181818" points="438.4395,462.9282,442.4395,472.9282,446.4395,462.9282,442.4395,466.9282" style="stroke:#181818;stroke-width:1;"/><line style="stroke:#181818;stroke-width:1;" x1="253.0383" x2="380.2896" y1="375.249" y2="375.249"/><polygon fill="#181818" points="370.2896,371.249,380.2896,375.249,370.2896,379.249,374.2896,375.249" style="stroke:#181818;stroke-width:1;"/><line style="stroke:#181818;stroke-width:1;" x1="336.4951" x2="336.4951" y1="302.2417" y2="348.249"/><line style="stroke:#181818;stroke-width:1;" x1="336.4951" x2="185.9443" y1="348.249" y2="348.249"/><line style="stroke:#181818;stroke-width:1;" x1="185.9443" x2="185.9443" y1="348.249" y2="363.249"/><polygon fill="#181818" points="181.9443,353.249,185.9443,363.249,189.9443,353.249,185.9443,357.249" style="stroke:#181818;stroke-width:1;"/><line style="stroke:#181818;stroke-width:1;" x1="504.5894" x2="592.9902" y1="375.249" y2="375.249"/><line style="stroke:#181818;stroke-width:1;" x1="592.9902" x2="592.9902" y1="375.249" y2="472.9282"/><polygon fill="#181818" points="588.9902,462.9282,592.9902,472.9282,596.9902,462.9282,592.9902,466.9282" style="stroke:#181818;stroke-width:1;"/><line style="stroke:#181818;stroke-width:1;" x1="185.9443" x2="592.9902" y1="472.9282" y2="472.9282"/><line style="stroke:#181818;stroke-width:1;" x1="336.4951" x2="336.4951" y1="641.3066" y2="670.4043"/><polygon fill="#181818" points="332.4951,660.4043,336.4951,670.4043,340.4951,660.4043,336.4951,664.4043" style="stroke:#181818;stroke-width:1;"/><line style="stroke:#181818;stroke-width:1;" x1="336.4951" x2="336.4951" y1="575.6274" y2="607.3379"/><polygon fill="#181818" points="332.4951,597.3379,336.4951,607.3379,340.4951,597.3379,336.4951,601.3379" style="stroke:#181818;stroke-width:1;"/><line style="stroke:#181818;stroke-width:1;" x1="336.4951" x2="336.4951" y1="704.373" y2="714.373"/><line style="stroke:#181818;stroke-width:1;" x1="336.4951" x2="468.5024" y1="714.373" y2="714.373"/><polygon fill="#181818" points="464.5024,650.4043,468.5024,640.4043,472.5024,650.4043,468.5024,646.4043" style="stroke:#181818;stroke-width:1;"/><line style="stroke:#181818;stroke-width:1;" x1="468.5024" x2="468.5024" y1="563.6274" y2="714.373"/><line style="stroke:#181818;stroke-width:1;" x1="468.5024" x2="456.5024" y1="563.6274" y2="563.6274"/><polygon fill="#181818" points="466.5024,559.6274,456.5024,563.6274,466.5024,567.6274,462.5024,563.6274" style="stroke:#181818;stroke-width:1;"/><line style="stroke:#181818;stroke-width:1;" x1="216.4878" x2="204.4878" y1="563.6274" y2="563.6274"/><polygon fill="#181818" points="200.4878,636.4043,204.4878,646.4043,208.4878,636.4043,204.4878,640.4043" style="stroke:#181818;stroke-width:1;"/><line style="stroke:#181818;stroke-width:1;" x1="204.4878" x2="204.4878" y1="563.6274" y2="726.373"/><line style="stroke:#181818;stroke-width:1;" x1="204.4878" x2="336.4951" y1="726.373" y2="726.373"/><line style="stroke:#181818;stroke-width:1;" x1="336.4951" x2="336.4951" y1="726.373" y2="758.373"/><polygon fill="#181818" points="332.4951,748.373,336.4951,758.373,340.4951,748.373,336.4951,752.373" style="stroke:#181818;stroke-width:1;"/><line style="stroke:#181818;stroke-width:1;" x1="336.4951" x2="336.4951" y1="472.9282" y2="551.6274"/><polygon fill="#181818" points="332.4951,541.6274,336.4951,551.6274,340.4951,541.6274,336.4951,545.6274" style="stroke:#181818;stroke-width:1;"/><line style="stroke:#181818;stroke-width:1;" x1="442.1401" x2="627.9902" y1="290.2417" y2="290.2417"/><polygon fill="#181818" points="623.9902,495.3306,627.9902,505.3306,631.9902,495.3306,627.9902,499.3306" style="stroke:#181818;stroke-width:1;"/><line style="stroke:#181818;stroke-width:1;" x1="627.9902" x2="627.9902" y1="290.2417" y2="770.373"/><line style="stroke:#181818;stroke-width:1;" x1="627.9902" x2="348.4951" y1="770.373" y2="770.373"/><polygon fill="#181818" points="358.4951,766.373,348.4951,770.373,358.4951,774.373,354.4951,770.373" style="stroke:#181818;stroke-width:1;"/><line style="stroke:#181818;stroke-width:1;" x1="336.4951" x2="336.4951" y1="246.5313" y2="278.2417"/><polygon fill="#181818" points="332.4951,268.2417,336.4951,278.2417,340.4951,268.2417,336.4951,272.2417" style="stroke:#181818;stroke-width:1;"/><line style="stroke:#181818;stroke-width:1;" x1="336.4951" x2="336.4951" y1="782.373" y2="792.373"/><line style="stroke:#181818;stroke-width:1;" x1="336.4951" x2="651.9902" y1="792.373" y2="792.373"/><polygon fill="#181818" points="647.9902,496.9282,651.9902,486.9282,655.9902,496.9282,651.9902,492.9282" style="stroke:#181818;stroke-width:1;"/><line style="stroke:#181818;stroke-width:1;" x1="651.9902" x2="651.9902" y1="234.5313" y2="792.373"/><line style="stroke:#181818;stroke-width:1;" x1="651.9902" x2="417.7366" y1="234.5313" y2="234.5313"/><polygon fill="#181818" points="427.7366,230.5313,417.7366,234.5313,427.7366,238.5313,423.7366,234.5313" style="stroke:#181818;stroke-width:1;"/><line style="stroke:#181818;stroke-width:1;" x1="255.2537" x2="33" y1="234.5313" y2="234.5313"/><polygon fill="#181818" points="29,482.9282,33,492.9282,37,482.9282,33,486.9282" style="stroke:#181818;stroke-width:1;"/><line style="stroke:#181818;stroke-width:1;" x1="33" x2="33" y1="234.5313" y2="804.373"/><line style="stroke:#181818;stroke-width:1;" x1="33" x2="336.4951" y1="804.373" y2="804.373"/><line style="stroke:#181818;stroke-width:1;" x1="336.4951" x2="336.4951" y1="804.373" y2="836.373"/><polygon fill="#181818" points="332.4951,826.373,336.4951,836.373,340.4951,826.373,336.4951,830.373" style="stroke:#181818;stroke-width:1;"/><line style="stroke:#181818;stroke-width:1;" x1="336.4951" x2="336.4951" y1="164.2344" y2="222.5313"/><polygon fill="#181818" points="332.4951,212.5313,336.4951,222.5313,340.4951,212.5313,336.4951,216.5313" style="stroke:#181818;stroke-width:1;"/><!--SRC=[bLDDJzj04BtxLupI0q55IKe97_41eQfIMn4KAKA2axFOOsTWinljBWqHuhypwoQn4zO5vc1hl9xtthoPjKuO5qLpVf8ZhQ0rCiYPy4aBlbnICNMtAALUm7C478Cn2fDEOMxqFQOECZByqeRG0YbmKuI5DW-aYitHyW2mKtGEu96o94akUht3vERRuVUZ_d5oSt9wrfl4_w1_61GEjo1pRO0r5kY0Pg90kyPQaIJySxS9j_l7Pr_xnoUdtPoSZQENUgjZRTQemLONKv88xPas66htV1_8Gdk9Th_ytGVbq9vOb7agPE8f9y0DJBZABLSvFf5rlfYjKZlbFke2KNhEUl-LgInvgDDKM7RzUGkXGSXxnEiO_2ujyTFSGLYGb727ODaupE8trIWjbiIVwJT4Mw__22cqbGwZxi7uWURCpQFQdU6oeU8NRu3JB7nkq5fefLevKe_Oyjf6KYXtFRmyVoj4PPHlVNrf6knG_yLgy_upnleAqiOVVybikHkOLTs4zd7Bu9zFpeXgdvIO8UH6po1d4f_5uRfAhRTbLRsXZKD6bBeRl0WFR0-kzBf5Ph7btLJl3QxoF4ZgW-zyn8Ul]--></g></svg>