<svg xmlns="http://www.w3.org/2000/svg" xmlns:xlink="http://www.w3.org/1999/xlink" contentStyleType="text/css" data-diagram-type="ACTIVITY" height="998px" preserveAspectRatio="none" style="width:807px;height:998px;background:#FFFFFF;" version="1.1" viewBox="0 0 807 998" width="807px" zoomAndPan="magnify"><defs/><g><ellipse cx="458.7291" cy="20" fill="#222222" rx="10" ry="10" style="stroke:#222222;stroke-width:1;"/><rect fill="#FFFFE0" height="136.2344" style="stroke:#000000;stroke-width:1.5;" width="641.1777" x="138.1403" y="40"/><path d="M229.5699,40 L229.5699,49.2969 L219.5699,59.2969 L138.1403,59.2969" fill="none" style="stroke:#000000;stroke-width:1.5;"/><text fill="#000000" font-family="sans-serif" font-size="14" lengthAdjust="spacing" textLength="81.4297" x="141.1403" y="53.9951">Preparation</text><rect fill="#F1F1F1" height="33.9688" rx="12.5" ry="12.5" style="stroke:#181818;stroke-width:0.5;" width="538.625" x="189.4166" y="76.2969"/><text fill="#000000" font-family="sans-serif" font-size="12" lengthAdjust="spacing" textLength="518.625" x="199.4166" y="97.4355">Search project directories in the working directory, e.g., uid___A002_X123456_X7890`</text><rect fill="#F1F1F1" height="33.9688" rx="12.5" ry="12.5" style="stroke:#181818;stroke-width:0.5;" width="621.1777" x="148.1403" y="130.2656"/><text fill="#000000" font-family="sans-serif" font-size="12" lengthAdjust="spacing" textLength="601.1777" x="158.1403" y="151.4043">Create directories for target images, e.g., working_dir/uid___A002_X123456_X7890/J1234+5678/fits</text><rect fill="#FFFFE0" height="761.4434" style="stroke:#000000;stroke-width:1.5;" width="785.3872" x="11" y="186.2344"/><path d="M105.0479,186.2344 L105.0479,195.5313 L95.0479,205.5313 L11,205.5313" fill="none" style="stroke:#000000;stroke-width:1.5;"/><text fill="#000000" font-family="sans-serif" font-size="14" lengthAdjust="spacing" textLength="84.0479" x="14" y="200.2295">Sort images</text><rect fill="#FFE4B5" height="160.9761" style="stroke:#000000;stroke-width:1.5;" width="562.9902" x="177.234" y="323.9521"/><path d="M393.1324,323.9521 L393.1324,333.249 L383.1324,343.249 L177.234,343.249" fill="none" style="stroke:#000000;stroke-width:1.5;"/><text fill="#000000" font-family="sans-serif" font-size="14" lengthAdjust="spacing" textLength="205.8984" x="180.234" y="337.9473">Select target image directory</text><polygon fill="#F1F1F1" points="253.0844,363.249,363.2723,363.249,375.2723,375.249,363.2723,387.249,253.0844,387.249,241.0844,375.249,253.0844,363.249" style="stroke:#181818;stroke-width:0.5;"/><text fill="#000000" font-family="sans-serif" font-size="11" lengthAdjust="spacing" textLength="19.0083" x="312.1783" y="397.4595">yes</text><text fill="#000000" font-family="sans-serif" font-size="11" lengthAdjust="spacing" textLength="110.188" x="253.0844" y="379.0571">`selfcal_fits` exists?</text><rect fill="#F1F1F1" height="33.9688" rx="12.5" ry="12.5" style="stroke:#181818;stroke-width:0.5;" width="241.8887" x="187.234" y="418.9595"/><text fill="#000000" font-family="sans-serif" font-size="12" lengthAdjust="spacing" textLength="221.8887" x="197.234" y="440.0981">Images in `selfcal_fits` will be sorted</text><polygon fill="#F1F1F1" points="514.5236,363.249,614.8234,363.249,626.8234,375.249,614.8234,387.249,514.5236,387.249,502.5236,375.249,514.5236,363.249" style="stroke:#181818;stroke-width:0.5;"/><text fill="#000000" font-family="sans-serif" font-size="11" lengthAdjust="spacing" textLength="19.0083" x="568.6735" y="397.4595">yes</text><text fill="#000000" font-family="sans-serif" font-size="11" lengthAdjust="spacing" textLength="100.2998" x="514.5236" y="379.0571">`dirty_fits` exists?</text><text fill="#000000" font-family="sans-serif" font-size="11" lengthAdjust="spacing" textLength="13.7017" x="626.8234" y="372.6548">no</text><rect fill="#F1F1F1" height="33.9688" rx="12.5" ry="12.5" style="stroke:#181818;stroke-width:0.5;" width="231.1016" x="449.1227" y="418.9595"/><text fill="#000000" font-family="sans-serif" font-size="12" lengthAdjust="spacing" textLength="211.1016" x="459.1227" y="440.0981">Images in `dirty_fits` will be sorted</text><rect fill="#FFE4B5" height="374.7495" style="stroke:#000000;stroke-width:1.5;" width="705.3872" x="41" y="494.9282"/><path d="M246.2822,494.9282 L246.2822,504.2251 L236.2822,514.2251 L41,514.2251" fill="none" style="stroke:#000000;stroke-width:1.5;"/><text fill="#000000" font-family="sans-serif" font-size="14" lengthAdjust="spacing" textLength="195.2822" x="44" y="508.9233">Move/Copy/Remove images</text><rect fill="#F1F1F1" height="33.9688" rx="12.5" ry="12.5" style="stroke:#181818;stroke-width:0.5;" width="408.6758" x="254.3912" y="586.9355"/><text fill="#000000" font-family="sans-serif" font-size="12" lengthAdjust="spacing" textLength="388.6758" x="264.3912" y="608.0742">Extract target name from filename (part before first underscore)</text><polygon fill="#F1F1F1" points="399.7277,640.9043,517.7306,640.9043,529.7306,652.9043,517.7306,664.9043,399.7277,664.9043,387.7277,652.9043,399.7277,640.9043" style="stroke:#181818;stroke-width:0.5;"/><text fill="#000000" font-family="sans-serif" font-size="11" lengthAdjust="spacing" textLength="118.0029" x="399.7277" y="656.7124">This is target source?</text><text fill="#000000" font-family="sans-serif" font-size="11" lengthAdjust="spacing" textLength="19.0083" x="368.7194" y="650.3101">yes</text><text fill="#000000" font-family="sans-serif" font-size="11" lengthAdjust="spacing" textLength="13.7017" x="529.7306" y="650.3101">no</text><polygon fill="#F1F1F1" points="252.9819,674.9043,343.3237,674.9043,355.3237,686.9043,343.3237,698.9043,252.9819,698.9043,240.9819,686.9043,252.9819,674.9043" style="stroke:#181818;stroke-width:0.5;"/><text fill="#000000" font-family="sans-serif" font-size="11" lengthAdjust="spacing" textLength="90.3418" x="252.9819" y="690.7124">`keep_original`?</text><text fill="#000000" font-family="sans-serif" font-size="11" lengthAdjust="spacing" textLength="19.0083" x="221.9736" y="684.3101">yes</text><text fill="#000000" font-family="sans-serif" font-size="11" lengthAdjust="spacing" textLength="13.7017" x="355.3237" y="684.3101">no</text><rect fill="#F1F1F1" height="33.9688" rx="12.5" ry="12.5" style="stroke:#181818;stroke-width:0.5;" width="205.7656" x="81.9521" y="708.9043"/><text fill="#000000" font-family="sans-serif" font-size="12" lengthAdjust="spacing" textLength="185.7656" x="91.9521" y="730.043">Copy image to target directory</text><rect fill="#F1F1F1" height="33.9688" rx="12.5" ry="12.5" style="stroke:#181818;stroke-width:0.5;" width="207.5059" x="307.7178" y="708.9043"/><text fill="#000000" font-family="sans-serif" font-size="12" lengthAdjust="spacing" textLength="187.5059" x="317.7178" y="730.043">Move image to target directory</text><polygon fill="#F1F1F1" points="298.1528,748.873,310.1528,760.873,298.1528,772.873,286.1528,760.873,298.1528,748.873" style="stroke:#181818;stroke-width:0.5;"/><rect fill="#F1F1F1" height="33.9688" rx="12.5" ry="12.5" style="stroke:#181818;stroke-width:0.5;" width="110.4277" x="564.0916" y="723.3066"/><text fill="#000000" font-family="sans-serif" font-size="12" lengthAdjust="spacing" textLength="90.4277" x="574.0916" y="744.4453">Remove image</text><polygon fill="#F1F1F1" points="557.2236,674.9043,681.3872,674.9043,693.3872,686.9043,681.3872,698.9043,557.2236,698.9043,545.2236,686.9043,557.2236,674.9043" style="stroke:#181818;stroke-width:0.5;"/><text fill="#000000" font-family="sans-serif" font-size="11" lengthAdjust="spacing" textLength="19.0083" x="623.3054" y="709.1147">yes</text><text fill="#000000" font-family="sans-serif" font-size="11" lengthAdjust="spacing" textLength="124.1636" x="557.2236" y="690.7124">`remove_non_target`?</text><text fill="#000000" font-family="sans-serif" font-size="11" lengthAdjust="spacing" textLength="13.7017" x="693.3872" y="684.3101">no</text><polygon fill="#F1F1F1" points="619.3054,781.6777,631.3054,793.6777,619.3054,805.6777,607.3054,793.6777,619.3054,781.6777" style="stroke:#181818;stroke-width:0.5;"/><polygon fill="#F1F1F1" points="458.7291,811.6777,470.7291,823.6777,458.7291,835.6777,446.7291,823.6777,458.7291,811.6777" style="stroke:#181818;stroke-width:0.5;"/><polygon fill="#F1F1F1" points="350.7218,531.2251,566.7365,531.2251,578.7365,543.2251,566.7365,555.2251,350.7218,555.2251,338.7218,543.2251,350.7218,531.2251" style="stroke:#181818;stroke-width:0.5;"/><text fill="#000000" font-family="sans-serif" font-size="11" lengthAdjust="spacing" textLength="19.0083" x="462.7291" y="565.4355">yes</text><text fill="#000000" font-family="sans-serif" font-size="11" lengthAdjust="spacing" textLength="216.0146" x="350.7218" y="547.0332">more images in the selected directory?</text><polygon fill="#F1F1F1" points="365.0841,278.2417,552.3741,278.2417,564.3741,290.2417,552.3741,302.2417,365.0841,302.2417,353.0841,290.2417,365.0841,278.2417" style="stroke:#181818;stroke-width:0.5;"/><text fill="#000000" font-family="sans-serif" font-size="11" lengthAdjust="spacing" textLength="19.0083" x="462.7291" y="312.4521">yes</text><text fill="#000000" font-family="sans-serif" font-size="11" lengthAdjust="spacing" textLength="187.29" x="365.0841" y="294.0498">`selfcal_fits` or `dirty_fits` exists?</text><text fill="#000000" font-family="sans-serif" font-size="11" lengthAdjust="spacing" textLength="13.7017" x="564.3741" y="287.6475">no</text><polygon fill="#F1F1F1" points="458.7291,889.6777,470.7291,901.6777,458.7291,913.6777,446.7291,901.6777,458.7291,889.6777" style="stroke:#181818;stroke-width:0.5;"/><polygon fill="#F1F1F1" points="389.4877,222.5313,527.9706,222.5313,539.9706,234.5313,527.9706,246.5313,389.4877,246.5313,377.4877,234.5313,389.4877,222.5313" style="stroke:#181818;stroke-width:0.5;"/><text fill="#000000" font-family="sans-serif" font-size="11" lengthAdjust="spacing" textLength="19.0083" x="462.7291" y="256.7417">yes</text><text fill="#000000" font-family="sans-serif" font-size="11" lengthAdjust="spacing" textLength="138.4829" x="389.4877" y="238.3394">more project directories?</text><ellipse cx="458.7291" cy="977.6777" fill="none" rx="10" ry="10" style="stroke:#222222;stroke-width:1.5;"/><line style="stroke:#222222;stroke-width:2.5;" x1="452.5419" x2="464.9163" y1="971.4906" y2="983.8649"/><line style="stroke:#222222;stroke-width:2.5;" x1="464.9163" x2="452.5419" y1="971.4906" y2="983.8649"/><line style="stroke:#181818;stroke-width:1;" x1="458.7291" x2="458.7291" y1="110.2656" y2="130.2656"/><polygon fill="#181818" points="454.7291,120.2656,458.7291,130.2656,462.7291,120.2656,458.7291,124.2656" style="stroke:#181818;stroke-width:1;"/><line style="stroke:#181818;stroke-width:1;" x1="458.7291" x2="458.7291" y1="30" y2="76.2969"/><polygon fill="#181818" points="454.7291,66.2969,458.7291,76.2969,462.7291,66.2969,458.7291,70.2969" style="stroke:#181818;stroke-width:1;"/><line style="stroke:#181818;stroke-width:1;" x1="308.1783" x2="308.1783" y1="387.249" y2="418.9595"/><polygon fill="#181818" points="304.1783,408.9595,308.1783,418.9595,312.1783,408.9595,308.1783,412.9595" style="stroke:#181818;stroke-width:1;"/><line style="stroke:#181818;stroke-width:1;" x1="308.1783" x2="308.1783" y1="452.9282" y2="472.9282"/><polygon fill="#181818" points="304.1783,462.9282,308.1783,472.9282,312.1783,462.9282,308.1783,466.9282" style="stroke:#181818;stroke-width:1;"/><line style="stroke:#181818;stroke-width:1;" x1="564.6735" x2="564.6735" y1="387.249" y2="418.9595"/><polygon fill="#181818" points="560.6735,408.9595,564.6735,418.9595,568.6735,408.9595,564.6735,412.9595" style="stroke:#181818;stroke-width:1;"/><line style="stroke:#181818;stroke-width:1;" x1="564.6735" x2="564.6735" y1="452.9282" y2="472.9282"/><polygon fill="#181818" points="560.6735,462.9282,564.6735,472.9282,568.6735,462.9282,564.6735,466.9282" style="stroke:#181818;stroke-width:1;"/><line style="stroke:#181818;stroke-width:1;" x1="375.2723" x2="502.5236" y1="375.249" y2="375.249"/><polygon fill="#181818" points="492.5236,371.249,502.5236,375.249,492.5236,379.249,496.5236,375.249" style="stroke:#181818;stroke-width:1;"/><line style="stroke:#181818;stroke-width:1;" x1="458.7291" x2="458.7291" y1="302.2417" y2="348.249"/><line style="stroke:#181818;stroke-width:1;" x1="458.7291" x2="308.1783" y1="348.249" y2="348.249"/><line style="stroke:#181818;stroke-width:1;" x1="308.1783" x2="308.1783" y1="348.249" y2="363.249"/><polygon fill="#181818" points="304.1783,353.249,308.1783,363.249,312.1783,353.249,308.1783,357.249" style="stroke:#181818;stroke-width:1;"/><line style="stroke:#181818;stroke-width:1;" x1="626.8234" x2="715.2242" y1="375.249" y2="375.249"/><line style="stroke:#181818;stroke-width:1;" x1="715.2242" x2="715.2242" y1="375.249" y2="472.9282"/><polygon fill="#181818" points="711.2242,462.9282,715.2242,472.9282,719.2242,462.9282,715.2242,466.9282" style="stroke:#181818;stroke-width:1;"/><line style="stroke:#181818;stroke-width:1;" x1="308.1783" x2="715.2242" y1="472.9282" y2="472.9282"/><line style="stroke:#181818;stroke-width:1;" x1="240.9819" x2="184.835" y1="686.9043" y2="686.9043"/><line style="stroke:#181818;stroke-width:1;" x1="184.835" x2="184.835" y1="686.9043" y2="708.9043"/><polygon fill="#181818" points="180.835,698.9043,184.835,708.9043,188.835,698.9043,184.835,702.9043" style="stroke:#181818;stroke-width:1;"/><line style="stroke:#181818;stroke-width:1;" x1="355.3237" x2="411.4707" y1="686.9043" y2="686.9043"/><line style="stroke:#181818;stroke-width:1;" x1="411.4707" x2="411.4707" y1="686.9043" y2="708.9043"/><polygon fill="#181818" points="407.4707,698.9043,411.4707,708.9043,415.4707,698.9043,411.4707,702.9043" style="stroke:#181818;stroke-width:1;"/><line style="stroke:#181818;stroke-width:1;" x1="184.835" x2="184.835" y1="742.873" y2="760.873"/><line style="stroke:#181818;stroke-width:1;" x1="184.835" x2="286.1528" y1="760.873" y2="760.873"/><polygon fill="#181818" points="276.1528,756.873,286.1528,760.873,276.1528,764.873,280.1528,760.873" style="stroke:#181818;stroke-width:1;"/><line style="stroke:#181818;stroke-width:1;" x1="411.4707" x2="411.4707" y1="742.873" y2="760.873"/><line style="stroke:#181818;stroke-width:1;" x1="411.4707" x2="310.1528" y1="760.873" y2="760.873"/><polygon fill="#181818" points="320.1528,756.873,310.1528,760.873,320.1528,764.873,316.1528,760.873" style="stroke:#181818;stroke-width:1;"/><line style="stroke:#181818;stroke-width:1;" x1="619.3054" x2="619.3054" y1="698.9043" y2="723.3066"/><polygon fill="#181818" points="615.3054,713.3066,619.3054,723.3066,623.3054,713.3066,619.3054,717.3066" style="stroke:#181818;stroke-width:1;"/><line style="stroke:#181818;stroke-width:1;" x1="693.3872" x2="705.3872" y1="686.9043" y2="686.9043"/><polygon fill="#181818" points="701.3872,730.291,705.3872,740.291,709.3872,730.291,705.3872,734.291" style="stroke:#181818;stroke-width:1;"/><line style="stroke:#181818;stroke-width:1;" x1="705.3872" x2="705.3872" y1="686.9043" y2="793.6777"/><line style="stroke:#181818;stroke-width:1;" x1="705.3872" x2="631.3054" y1="793.6777" y2="793.6777"/><polygon fill="#181818" points="641.3054,789.6777,631.3054,793.6777,641.3054,797.6777,637.3054,793.6777" style="stroke:#181818;stroke-width:1;"/><line style="stroke:#181818;stroke-width:1;" x1="619.3054" x2="619.3054" y1="757.2754" y2="781.6777"/><polygon fill="#181818" points="615.3054,771.6777,619.3054,781.6777,623.3054,771.6777,619.3054,775.6777" style="stroke:#181818;stroke-width:1;"/><line style="stroke:#181818;stroke-width:1;" x1="387.7277" x2="298.1528" y1="652.9043" y2="652.9043"/><line style="stroke:#181818;stroke-width:1;" x1="298.1528" x2="298.1528" y1="652.9043" y2="674.9043"/><polygon fill="#181818" points="294.1528,664.9043,298.1528,674.9043,302.1528,664.9043,298.1528,668.9043" style="stroke:#181818;stroke-width:1;"/><line style="stroke:#181818;stroke-width:1;" x1="529.7306" x2="619.3054" y1="652.9043" y2="652.9043"/><line style="stroke:#181818;stroke-width:1;" x1="619.3054" x2="619.3054" y1="652.9043" y2="674.9043"/><polygon fill="#181818" points="615.3054,664.9043,619.3054,674.9043,623.3054,664.9043,619.3054,668.9043" style="stroke:#181818;stroke-width:1;"/><line style="stroke:#181818;stroke-width:1;" x1="298.1528" x2="298.1528" y1="772.873" y2="823.6777"/><line style="stroke:#181818;stroke-width:1;" x1="298.1528" x2="446.7291" y1="823.6777" y2="823.6777"/><polygon fill="#181818" points="436.7291,819.6777,446.7291,823.6777,436.7291,827.6777,440.7291,823.6777" style="stroke:#181818;stroke-width:1;"/><line style="stroke:#181818;stroke-width:1;" x1="619.3054" x2="619.3054" y1="805.6777" y2="823.6777"/><line style="stroke:#181818;stroke-width:1;" x1="619.3054" x2="470.7291" y1="823.6777" y2="823.6777"/><polygon fill="#181818" points="480.7291,819.6777,470.7291,823.6777,480.7291,827.6777,476.7291,823.6777" style="stroke:#181818;stroke-width:1;"/><line style="stroke:#181818;stroke-width:1;" x1="458.7291" x2="458.7291" y1="620.9043" y2="640.9043"/><polygon fill="#181818" points="454.7291,630.9043,458.7291,640.9043,462.7291,630.9043,458.7291,634.9043" style="stroke:#181818;stroke-width:1;"/><line style="stroke:#181818;stroke-width:1;" x1="458.7291" x2="458.7291" y1="555.2251" y2="586.9355"/><polygon fill="#181818" points="454.7291,576.9355,458.7291,586.9355,462.7291,576.9355,458.7291,580.9355" style="stroke:#181818;stroke-width:1;"/><line style="stroke:#181818;stroke-width:1;" x1="458.7291" x2="458.7291" y1="835.6777" y2="845.6777"/><line style="stroke:#181818;stroke-width:1;" x1="458.7291" x2="727.3872" y1="845.6777" y2="845.6777"/><polygon fill="#181818" points="723.3872,695.4043,727.3872,685.4043,731.3872,695.4043,727.3872,691.4043" style="stroke:#181818;stroke-width:1;"/><line style="stroke:#181818;stroke-width:1;" x1="727.3872" x2="727.3872" y1="543.2251" y2="845.6777"/><line style="stroke:#181818;stroke-width:1;" x1="727.3872" x2="578.7365" y1="543.2251" y2="543.2251"/><polygon fill="#181818" points="588.7365,539.2251,578.7365,543.2251,588.7365,547.2251,584.7365,543.2251" style="stroke:#181818;stroke-width:1;"/><line style="stroke:#181818;stroke-width:1;" x1="338.7218" x2="57" y1="543.2251" y2="543.2251"/><polygon fill="#181818" points="53,681.4043,57,691.4043,61,681.4043,57,685.4043" style="stroke:#181818;stroke-width:1;"/><line style="stroke:#181818;stroke-width:1;" x1="57" x2="57" y1="543.2251" y2="857.6777"/><line style="stroke:#181818;stroke-width:1;" x1="57" x2="458.7291" y1="857.6777" y2="857.6777"/><line style="stroke:#181818;stroke-width:1;" x1="458.7291" x2="458.7291" y1="857.6777" y2="889.6777"/><polygon fill="#181818" points="454.7291,879.6777,458.7291,889.6777,462.7291,879.6777,458.7291,883.6777" style="stroke:#181818;stroke-width:1;"/><line style="stroke:#181818;stroke-width:1;" x1="458.7291" x2="458.7291" y1="472.9282" y2="531.2251"/><polygon fill="#181818" points="454.7291,521.2251,458.7291,531.2251,462.7291,521.2251,458.7291,525.2251" style="stroke:#181818;stroke-width:1;"/><line style="stroke:#181818;stroke-width:1;" x1="564.3741" x2="756.3872" y1="290.2417" y2="290.2417"/><polygon fill="#181818" points="752.3872,546.3149,756.3872,556.3149,760.3872,546.3149,756.3872,550.3149" style="stroke:#181818;stroke-width:1;"/><line style="stroke:#181818;stroke-width:1;" x1="756.3872" x2="756.3872" y1="290.2417" y2="901.6777"/><line style="stroke:#181818;stroke-width:1;" x1="756.3872" x2="470.7291" y1="901.6777" y2="901.6777"/><polygon fill="#181818" points="480.7291,897.6777,470.7291,901.6777,480.7291,905.6777,476.7291,901.6777" style="stroke:#181818;stroke-width:1;"/><line style="stroke:#181818;stroke-width:1;" x1="458.7291" x2="458.7291" y1="246.5313" y2="278.2417"/><polygon fill="#181818" points="454.7291,268.2417,458.7291,278.2417,462.7291,268.2417,458.7291,272.2417" style="stroke:#181818;stroke-width:1;"/><line style="stroke:#181818;stroke-width:1;" x1="458.7291" x2="458.7291" y1="913.6777" y2="923.6777"/><line style="stroke:#181818;stroke-width:1;" x1="458.7291" x2="780.3872" y1="923.6777" y2="923.6777"/><polygon fill="#181818" points="776.3872,547.9126,780.3872,537.9126,784.3872,547.9126,780.3872,543.9126" style="stroke:#181818;stroke-width:1;"/><line style="stroke:#181818;stroke-width:1;" x1="780.3872" x2="780.3872" y1="234.5313" y2="923.6777"/><line style="stroke:#181818;stroke-width:1;" x1="780.3872" x2="539.9706" y1="234.5313" y2="234.5313"/><polygon fill="#181818" points="549.9706,230.5313,539.9706,234.5313,549.9706,238.5313,545.9706,234.5313" style="stroke:#181818;stroke-width:1;"/><line style="stroke:#181818;stroke-width:1;" x1="377.4877" x2="27" y1="234.5313" y2="234.5313"/><polygon fill="#181818" points="23,533.9126,27,543.9126,31,533.9126,27,537.9126" style="stroke:#181818;stroke-width:1;"/><line style="stroke:#181818;stroke-width:1;" x1="27" x2="27" y1="234.5313" y2="935.6777"/><line style="stroke:#181818;stroke-width:1;" x1="27" x2="458.7291" y1="935.6777" y2="935.6777"/><line style="stroke:#181818;stroke-width:1;" x1="458.7291" x2="458.7291" y1="935.6777" y2="967.6777"/><polygon fill="#181818" points="454.7291,957.6777,458.7291,967.6777,462.7291,957.6777,458.7291,961.6777" style="stroke:#181818;stroke-width:1;"/><line style="stroke:#181818;stroke-width:1;" x1="458.7291" x2="458.7291" y1="164.2344" y2="222.5313"/><polygon fill="#181818" points="454.7291,212.5313,458.7291,222.5313,462.7291,212.5313,458.7291,216.5313" style="stroke:#181818;stroke-width:1;"/><!--SRC=[fLLTRzf047pdLwpe0w16WQRDHyD3LAMLsYfKKKYbzCbSxRNPSjnPTqS8YlBVksV06B03j2U4EPztPdTsrbWdZAlLKlucHrf1_TOWxuJVrE7D3IL3zmkbr5DuhW6lopuA4muXDVeFXWuYCdpHXj02AN13XAas8r99VZGx0ZnEZezWGb4G19ywdPFWuTt9-m-dPy73-SN7pg0xXxusA1okGSRQ0EUOe0CQYmJj4cj14l33xIhSzdU_UtjwTdxHZidPRksbM6fVcoLgQQdJ8Kc4vbWRB2ltgWLaeJb3syeUzujYQ0uioZWKCl2K0-021XpbPeizFf5rFfYbKXlXVXKJHEavY_MlHEMKUpeCXMNLdzSGAXBPHRnSbzyoINmtDn2c92NyHh0i74RThMYK5ZFYG-ejeot6xqCAJQNBKHlG7r7AtDogpHxEAYA-iWESviHJWzP2FTJAaPfWtUTsAuLoFtitLzk9g8ZYjRilLOtjwKTiN-jqrhx3CVzUkV2LbXRjIBbMVk1ivXECLfMLUNDDx2zFpeYLjvGO8yH6Zo5cacpNzFcoyB7dYybO1nCLeR4XtsXrIs5zy- -zrFnP85izCI7kRdzksX5Y6l209QI47EmNE7zxi9wB8U7kBUXpHRgLmQyRA8VlvNqw47xB5liJPuAOp2A1qYgOinuYIj5V_oj10pvhK9fdIIN_Kcxf2T_DZ5qnEEMPDU27Niu0DyDcBtArQyfN2PII-iL_43K-_0i0]--></g></svg>